{"glyphs":{"0":{"ha":751,"x_min":14,"x_max":738,"o":"m 333 213 l 332 186 q 379 156 349 156 q 408 169 393 156 q 431 197 422 183 l 438 213 q 451 282 438 231 l 456 297 q 421 354 456 319 q 451 404 421 379 q 460 468 460 414 l 456 561 q 433 613 433 592 l 439 626 q 460 670 460 654 q 446 696 460 686 q 432 708 432 706 l 433 738 q 433 763 433 750 q 393 903 433 903 l 389 903 q 339 874 369 903 l 328 864 q 303 728 303 772 q 328 703 328 713 q 297 494 297 588 q 331 447 331 467 q 299 331 299 364 q 306 310 299 329 q 333 213 333 232 m 413 -6 q 383 -4 406 -4 q 347 -21 361 -4 q 236 -6 286 -21 q 167 25 186 10 l 147 42 q 96 148 122 104 q 56 206 69 192 l 40 218 q 18 276 31 225 l 14 293 q 24 439 24 319 l 19 625 q 61 735 19 646 l 76 765 q 65 788 76 769 q 53 817 53 807 q 74 869 53 826 q 115 935 96 913 q 183 1004 133 958 q 248 1049 232 1050 q 303 1049 264 1049 q 355 1060 343 1049 q 390 1072 367 1072 q 477 1062 414 1072 q 563 1051 540 1051 q 615 973 574 1051 q 667 850 656 894 q 703 824 694 833 q 725 706 713 815 q 738 559 738 597 q 735 518 738 521 q 685 474 685 483 q 687 457 685 465 q 691 444 689 449 q 697 436 693 440 q 703 431 701 432 q 718 425 711 425 q 721 415 721 422 q 711 363 721 407 q 701 306 701 319 q 706 288 701 292 l 706 285 q 674 195 706 267 q 628 124 642 124 q 578 110 600 124 q 551 44 564 96 l 547 26 q 440 -3 524 3 l 413 -6 z "},"1":{"ha":531,"x_min":0,"x_max":510,"o":"m 476 606 l 463 238 q 467 193 463 197 q 485 169 485 174 q 493 61 493 85 q 492 38 493 38 q 445 24 469 38 q 408 -3 421 11 l 394 -15 q 363 -22 390 -22 l 357 -22 q 267 -12 311 -22 q 201 10 224 -1 q 178 28 178 22 l 186 72 q 196 140 196 115 l 196 153 q 213 161 196 158 q 232 193 229 169 q 213 219 231 203 q 196 243 196 235 l 196 244 q 207 464 207 317 q 203 622 207 611 l 203 624 q 210 633 203 625 q 218 644 218 640 q 210 658 218 649 q 185 717 185 688 q 228 761 185 722 l 243 775 q 212 806 243 806 q 122 758 181 806 l 63 710 l 61 710 q 30 743 60 713 q 0 785 0 774 q 6 828 0 796 q 18 865 13 860 q 124 956 36 889 q 221 1033 213 1022 l 222 1033 l 264 1026 q 272 1029 269 1026 q 306 1064 301 1064 q 402 1069 356 1064 q 460 1074 449 1074 q 510 1063 510 1068 q 492 965 510 1010 q 471 917 474 919 q 474 876 474 903 l 471 746 q 474 704 471 711 l 474 703 q 457 684 474 699 q 438 663 440 669 q 435 646 435 656 q 439 631 435 636 q 476 606 476 614 z "},"2":{"ha":699,"x_min":7,"x_max":692,"o":"m 457 483 l 467 433 q 453 411 467 417 q 432 399 439 406 q 382 313 425 392 q 339 211 339 233 q 425 189 353 189 l 431 189 q 469 195 451 189 q 517 240 486 201 q 575 351 549 279 q 629 357 588 357 q 692 311 692 329 q 657 138 669 150 q 615 93 615 111 q 629 74 615 82 l 643 65 q 636 26 643 53 q 625 -1 629 -1 l 503 10 q 483 18 499 10 q 463 26 468 26 q 425 19 458 26 q 290 -4 325 -4 q 273 13 286 -4 q 251 29 260 29 q 235 21 243 29 q 121 0 214 0 l 15 6 q 8 61 10 11 l 7 76 q 34 153 19 85 q 51 223 49 221 q 67 231 53 225 q 106 262 106 244 q 85 306 106 279 q 194 517 85 331 l 232 578 q 265 588 256 578 q 282 611 272 590 q 271 628 282 613 q 260 647 260 643 q 317 719 260 651 q 374 797 374 788 q 353 885 374 864 q 340 892 346 892 q 272 883 303 892 q 218 856 228 869 q 160 756 199 838 l 147 728 q 74 771 114 728 q 35 840 35 814 q 60 927 35 851 q 97 1015 85 1003 q 192 1050 108 1026 q 297 1074 275 1074 l 429 1068 q 458 1071 450 1068 q 503 1058 465 1074 q 649 976 611 1014 q 668 865 668 897 q 664 824 668 832 q 642 792 642 800 q 646 779 642 785 q 650 767 650 774 q 647 757 650 760 q 528 538 556 629 q 457 483 457 503 z "},"3":{"ha":647,"x_min":3,"x_max":640,"o":"m 115 454 q 88 489 108 454 q 102 572 88 531 q 131 636 117 614 l 144 657 q 186 661 149 661 l 267 658 q 333 709 292 658 q 375 774 375 760 q 372 803 375 788 q 358 840 368 818 q 324 875 349 861 q 272 889 299 889 q 175 867 225 889 l 158 858 q 103 794 142 847 l 89 778 q 36 812 69 778 q 3 858 3 846 q 51 958 3 869 q 113 1046 99 1046 q 296 1075 263 1057 q 335 1078 304 1078 q 455 1051 365 1078 q 575 994 544 1025 q 599 921 586 982 q 613 846 613 860 q 632 818 632 824 q 582 702 632 785 q 517 619 532 619 l 515 619 q 471 625 494 625 q 436 614 447 625 q 426 588 426 594 q 429 582 426 582 q 589 508 524 582 q 618 463 618 475 q 582 418 582 433 q 608 392 593 392 q 640 385 640 392 q 631 241 640 318 q 608 147 621 164 q 543 81 594 129 q 485 31 492 33 q 451 25 478 28 q 350 -11 382 21 q 315 -22 339 -22 q 204 -8 264 -22 l 182 -4 q 72 10 132 10 l 56 10 q 20 81 38 10 q 3 183 3 153 q 42 233 3 194 q 85 271 81 271 q 114 248 89 271 q 178 201 139 225 q 242 178 217 178 q 299 188 276 178 l 300 214 q 363 263 343 233 q 383 349 383 292 q 346 417 383 368 l 333 432 q 268 447 328 440 l 249 449 q 240 463 246 449 q 228 478 233 478 q 133 461 179 478 l 117 454 l 115 454 z "},"4":{"ha":782,"x_min":0,"x_max":775,"o":"m 396 604 l 407 744 q 406 757 407 756 q 400 758 404 758 l 363 750 l 321 667 l 333 632 q 303 600 333 619 q 258 495 272 547 q 243 438 243 443 q 274 426 243 432 q 343 419 306 419 q 390 429 381 419 q 400 467 400 439 l 400 481 q 394 487 400 482 q 383 500 389 492 q 376 515 376 508 q 390 536 376 522 q 404 569 404 550 l 396 600 l 396 604 m 0 317 l 25 425 q 75 451 75 436 q 76 473 76 458 q 67 497 76 488 q 154 697 144 688 q 168 706 157 701 q 182 721 179 711 q 285 932 261 932 q 326 954 326 938 q 374 1032 351 1032 q 469 1054 407 1032 q 551 1076 531 1076 q 625 1057 571 1076 q 679 1026 679 1038 l 679 1025 q 660 858 660 949 q 661 742 660 767 q 674 710 674 719 q 672 699 674 700 q 635 649 635 667 q 651 624 635 631 q 667 615 667 618 q 668 563 668 597 q 661 522 668 529 q 628 501 644 518 q 613 464 613 483 q 643 458 613 458 q 744 482 715 458 l 747 483 q 765 472 756 483 q 775 451 775 460 q 772 438 775 443 q 722 288 736 364 q 658 261 719 275 l 639 256 q 635 190 635 251 l 636 129 q 651 74 636 111 q 667 32 667 36 q 585 -7 667 14 q 482 -28 504 -28 q 405 -3 460 -28 q 329 24 350 21 q 328 26 328 25 q 338 86 328 28 q 349 181 349 144 q 364 186 349 183 q 414 199 414 192 q 392 240 414 229 q 317 250 371 250 q 78 228 188 250 l 39 221 q 33 219 38 219 q 4 242 24 219 q 8 285 8 264 q 1 313 8 306 l 0 317 z "},"5":{"ha":686,"x_min":21,"x_max":665,"o":"m 424 42 q 414 17 421 24 q 342 -2 407 10 q 246 -14 276 -14 q 211 -10 215 -14 q 143 6 197 6 l 124 6 q 72 40 113 6 q 32 83 32 74 l 32 85 q 39 103 39 94 q 30 131 39 113 q 21 156 21 150 q 52 201 21 161 q 90 242 83 242 q 111 233 93 242 q 197 211 168 211 q 290 232 246 211 q 309 271 300 242 q 321 303 318 300 q 348 317 324 307 q 380 335 372 328 q 388 384 388 343 q 376 436 388 425 q 349 459 365 447 q 285 489 333 471 q 203 507 236 507 q 89 492 150 507 l 67 486 q 29 565 46 486 l 24 592 q 45 615 24 594 q 67 651 67 636 q 45 678 67 667 q 24 694 24 690 l 24 696 q 65 969 51 792 q 72 1026 69 1024 q 94 1035 74 1028 q 189 1054 153 1054 q 235 1044 225 1054 q 419 1042 317 1042 q 532 1051 522 1042 q 597 1082 588 1082 q 624 1051 606 1082 q 642 1008 642 1021 q 611 918 642 994 q 568 842 581 842 l 567 842 q 486 862 511 856 q 406 868 461 868 q 339 857 351 868 q 310 789 326 846 q 294 686 294 732 l 294 682 q 333 640 294 640 q 349 665 335 640 q 371 690 363 690 q 526 671 511 686 q 608 589 593 597 q 642 539 622 583 q 661 454 661 494 q 631 410 631 414 q 639 383 631 392 q 665 374 647 375 q 645 252 665 328 q 581 132 625 176 q 561 108 575 126 q 517 69 532 69 q 469 79 478 79 q 424 42 424 60 z "},"6":{"ha":721,"x_min":14,"x_max":707,"o":"m 321 306 l 311 240 q 334 179 322 190 q 372 168 346 168 q 399 181 399 168 q 420 238 399 188 q 442 315 442 288 l 408 399 q 404 411 404 403 q 415 453 404 433 q 426 478 426 472 q 407 503 426 492 q 401 527 401 508 q 398 560 400 546 q 385 574 396 574 q 324 549 350 574 q 299 509 299 525 q 305 458 299 493 q 311 417 311 424 q 297 396 311 411 q 282 379 282 381 q 317 324 282 357 q 321 306 321 319 m 707 443 l 699 286 q 700 271 699 272 l 700 268 q 669 197 700 253 q 611 118 628 118 l 572 129 q 542 78 542 129 l 542 69 q 372 -4 542 39 q 331 -8 356 -8 q 211 3 278 -8 l 189 6 q 101 110 153 42 q 50 203 50 179 q 66 231 50 208 q 82 264 82 253 q 39 293 82 282 q 17 417 28 304 l 14 454 q 35 481 14 460 q 56 515 56 501 q 21 561 56 529 q 42 716 33 681 q 83 816 51 751 q 128 894 114 881 q 122 933 122 924 q 164 974 122 942 q 275 1038 206 1007 q 404 1069 344 1069 q 456 1061 453 1064 q 493 1035 476 1035 q 515 1042 510 1035 q 565 1049 521 1049 q 614 1043 608 1049 q 667 907 668 965 q 661 843 667 849 q 582 806 604 806 q 535 865 563 839 q 490 892 508 892 q 354 838 394 879 q 349 802 350 833 q 342 764 349 771 q 297 742 319 764 q 286 700 286 715 q 292 679 286 685 q 418 726 399 725 q 467 726 438 726 q 582 708 564 726 q 635 649 613 649 q 658 613 640 649 q 676 567 676 576 q 658 540 676 557 q 639 511 639 522 q 653 490 639 500 q 685 474 668 481 q 705 466 703 468 q 707 443 707 464 z "},"7":{"ha":688,"x_min":29,"x_max":681,"o":"m 29 919 l 32 1040 q 185 1058 32 1056 q 243 1064 238 1058 q 332 1069 249 1069 q 424 1061 415 1069 q 458 1024 440 1024 q 490 1037 469 1024 q 517 1050 511 1050 q 635 1057 589 1057 q 681 1050 681 1057 q 650 879 667 892 q 547 749 604 840 q 525 718 529 719 q 483 635 503 708 q 464 533 464 561 q 390 469 390 494 q 410 449 390 456 q 426 444 418 446 q 439 440 433 442 q 443 435 444 438 q 411 165 411 258 l 432 54 q 364 19 432 40 l 342 13 q 288 -12 329 8 q 238 -33 247 -33 q 149 -6 203 -33 q 94 33 94 21 l 94 35 q 111 108 100 46 l 114 131 q 119 139 114 135 l 136 150 q 154 163 147 157 q 157 169 157 165 q 121 217 157 186 q 154 440 142 275 l 158 493 q 185 532 158 497 q 258 699 200 588 l 315 810 q 352 824 319 818 q 385 844 385 831 q 365 881 385 864 q 328 899 344 899 q 225 878 297 899 l 200 871 q 167 789 181 851 l 161 769 q 150 763 161 763 q 63 792 125 763 l 42 801 q 29 919 29 814 z "},"8":{"ha":747,"x_min":7,"x_max":740,"o":"m 411 710 q 449 748 425 710 q 472 809 472 786 q 443 861 472 832 q 440 867 440 864 q 445 882 440 869 q 450 907 450 894 q 428 934 450 919 q 392 949 407 949 q 350 926 376 949 q 324 886 324 903 q 347 825 347 849 q 319 788 319 799 q 331 766 324 779 q 361 731 338 753 q 411 710 385 710 m 435 286 q 433 297 433 288 q 458 353 433 306 q 450 401 458 390 q 413 432 442 413 q 371 465 383 451 l 369 465 q 352 456 365 465 q 326 426 339 446 q 313 385 313 407 q 339 347 339 357 q 336 335 339 336 q 294 260 294 278 q 313 222 294 242 q 332 201 332 203 q 347 153 336 165 q 390 138 372 138 q 417 146 408 138 q 457 249 457 190 q 435 286 457 264 m 146 550 q 178 539 153 550 q 210 528 203 528 q 222 551 217 528 q 203 586 222 571 q 151 623 185 601 q 97 665 117 644 q 76 817 76 685 q 80 875 76 864 q 149 961 83 886 q 253 1050 215 1036 q 461 1075 346 1075 q 514 1065 508 1071 q 549 1018 521 1018 q 591 1022 579 1022 q 663 972 603 1022 q 722 903 722 921 q 710 791 722 850 q 685 695 699 732 q 661 658 671 658 q 638 651 651 656 q 602 628 625 647 q 579 583 579 608 q 597 569 579 576 q 686 515 661 540 q 719 424 711 490 q 734 352 728 358 q 740 300 740 346 q 736 254 740 254 q 682 211 682 238 q 699 181 699 186 q 624 61 699 135 q 525 -12 549 -12 q 510 -6 524 -12 q 490 1 497 1 q 458 -19 474 1 q 400 -31 453 -28 l 382 -31 q 256 -8 318 -31 l 233 -1 q 209 -7 228 -7 q 144 24 190 -7 q 99 68 99 56 q 106 75 99 69 q 125 104 125 96 q 115 122 125 113 q 71 132 104 132 l 54 131 q 24 194 42 131 q 7 310 7 257 q 69 444 7 338 q 146 550 131 550 z "},"9":{"ha":683,"x_min":7,"x_max":676,"o":"m 378 886 q 365 919 378 904 q 324 908 344 919 q 294 883 304 896 l 285 872 q 263 792 263 811 q 272 763 263 774 q 282 744 282 751 q 269 709 282 736 q 256 681 256 682 q 280 638 256 665 q 317 611 304 611 q 348 622 329 611 q 378 642 367 632 l 389 653 q 399 718 399 661 l 397 765 q 369 821 397 793 q 368 829 368 822 l 378 879 l 378 886 m 322 1051 l 397 1050 q 437 1061 421 1061 q 477 1051 453 1061 q 522 1029 501 1042 q 544 1017 543 1017 q 651 878 651 924 q 625 839 625 847 q 646 808 631 818 q 664 658 661 797 q 675 504 668 519 q 676 499 676 503 q 660 477 676 494 q 643 449 643 460 q 649 429 643 439 q 661 414 656 419 q 667 407 667 408 q 653 306 667 361 q 611 183 631 210 q 576 167 604 176 q 533 136 533 153 q 551 104 533 122 q 468 42 551 90 q 361 -7 385 -7 q 357 -6 358 -7 q 311 7 344 7 q 253 0 278 7 q 208 -7 229 -7 q 139 5 188 -7 q 80 26 90 17 q 49 117 69 36 q 28 218 28 197 q 65 260 28 228 q 122 292 103 292 l 129 285 q 176 217 146 242 q 227 187 207 192 q 265 182 247 182 q 369 228 299 182 l 393 243 q 404 294 404 256 l 394 388 l 394 389 q 444 436 394 400 l 461 447 q 426 476 461 463 q 300 417 389 476 l 271 397 q 264 396 269 396 q 135 435 229 396 q 90 471 119 440 q 39 529 61 501 l 18 557 l 7 629 l 42 794 q 30 813 42 800 q 18 829 18 826 q 106 949 18 865 q 228 1042 193 1033 q 322 1051 263 1051 z "}," ":{"ha":319,"x_min":0,"x_max":0,"o":""},"!":{"ha":324,"x_min":7,"x_max":317,"o":"m 186 22 l 189 -3 q 186 -7 189 -7 l 165 -7 q 32 29 68 -7 q 17 75 26 35 q 7 140 7 115 q 11 168 7 164 q 29 188 15 172 q 53 213 43 203 q 81 235 64 222 q 158 260 114 260 q 195 236 160 260 q 254 213 231 213 q 274 135 265 213 l 276 108 q 264 70 276 96 q 246 44 251 44 l 228 46 q 194 38 203 46 q 186 22 186 29 m 8 1013 q 69 1053 8 1028 q 157 1078 131 1078 q 208 1064 158 1078 q 275 1047 258 1050 q 317 1036 317 1040 q 301 899 317 971 q 267 808 286 828 q 263 798 263 804 q 275 779 263 792 q 288 764 288 767 q 281 731 288 761 q 257 572 257 636 q 266 557 257 571 q 275 537 275 543 q 272 529 275 531 l 244 489 q 238 454 238 482 l 244 381 q 122 322 183 322 q 89 338 114 322 q 64 363 64 353 q 57 556 64 535 q 39 603 39 593 q 42 617 39 614 q 65 661 65 647 q 42 692 65 675 q 19 710 19 708 q 33 741 19 719 q 46 767 46 763 q 27 889 46 794 q 8 1013 8 983 z "},"\"":{"ha":510,"x_min":7,"x_max":503,"o":"m 304 836 l 315 874 q 302 969 315 917 q 289 1025 289 1022 q 331 1062 289 1033 q 394 1090 372 1090 q 503 1061 503 1067 q 497 1017 503 1049 q 486 983 490 986 q 478 975 482 979 q 467 962 467 967 q 477 942 467 957 q 488 923 488 926 q 486 918 488 919 q 456 835 471 903 q 440 742 440 767 q 413 722 440 735 q 378 710 386 710 q 353 716 371 710 q 335 726 335 722 l 325 814 q 304 836 304 829 m 232 1068 l 206 961 q 182 942 182 949 q 194 922 182 931 q 207 911 207 914 q 196 862 207 893 q 185 825 185 831 q 190 811 190 815 q 175 736 179 736 q 147 721 167 736 q 117 706 128 706 q 92 710 107 706 q 57 728 57 718 q 44 814 57 771 l 40 829 q 53 848 40 832 q 65 871 65 864 q 49 884 65 878 q 32 893 32 890 q 19 964 32 908 l 7 1018 q 58 1058 7 1029 q 131 1086 108 1086 q 192 1079 153 1086 q 232 1068 232 1072 z "},"#":{"ha":813,"x_min":14,"x_max":799,"o":"m 342 600 q 325 588 332 590 l 325 456 l 338 439 l 469 439 l 486 450 l 486 583 q 474 600 478 589 l 342 600 m 661 744 l 788 736 q 799 683 799 715 q 783 645 799 678 q 768 593 768 613 q 709 586 729 586 q 685 590 689 586 q 657 599 679 600 q 622 592 635 599 l 639 538 l 629 503 q 621 444 624 497 q 695 443 649 443 q 743 444 742 443 q 775 451 751 451 q 799 444 799 451 q 779 325 799 372 l 772 308 q 711 297 761 297 l 694 297 q 626 300 664 299 q 631 265 631 288 l 622 139 q 569 126 603 126 q 532 142 565 126 q 479 157 499 157 q 474 217 474 196 q 476 240 474 238 q 485 268 486 246 q 478 303 485 290 l 424 288 l 389 296 q 331 304 386 299 q 329 235 329 281 q 333 181 329 189 q 338 149 338 172 q 332 126 338 126 q 213 146 260 126 l 196 153 q 183 214 183 165 l 183 232 q 186 299 185 261 q 151 294 174 294 l 25 303 q 14 356 14 324 q 28 394 14 361 q 43 446 43 426 q 103 453 83 453 q 128 449 124 453 q 155 439 133 439 q 189 446 176 439 l 174 501 l 182 536 q 190 594 188 542 l 124 596 q 67 592 75 596 q 36 588 58 588 q 14 593 14 588 q 33 714 14 664 l 39 731 q 100 742 50 742 l 118 742 q 185 739 149 740 q 182 774 182 746 l 190 900 q 243 913 210 913 q 281 897 247 913 q 333 882 314 882 q 339 822 339 843 q 336 799 339 801 q 326 769 325 792 q 333 736 326 747 l 388 751 l 422 743 q 481 735 432 738 q 482 807 482 760 q 478 860 482 854 q 474 890 474 867 q 481 913 474 913 q 600 893 553 913 l 617 886 q 628 813 628 875 l 628 807 q 625 740 626 776 q 661 744 636 744 z "},"$":{"ha":742,"x_min":36,"x_max":728,"o":"m 479 -29 l 489 -101 q 440 -128 489 -108 q 373 -149 392 -149 q 329 -138 354 -149 q 292 -118 304 -128 l 281 -108 q 297 -39 290 -87 l 299 -25 q 176 -6 231 -19 q 100 19 121 8 l 81 31 q 61 117 72 39 q 50 260 50 196 q 106 307 50 268 l 124 319 q 193 336 140 328 q 194 325 194 336 l 193 294 l 229 207 q 276 188 233 203 q 342 172 319 172 q 417 217 379 172 q 456 281 456 263 q 418 364 456 313 l 406 382 q 285 447 304 447 q 250 440 267 447 q 229 456 242 440 q 217 478 217 472 l 226 521 q 197 539 226 533 l 158 532 q 90 602 143 532 q 36 685 36 672 q 55 754 36 699 q 113 888 74 810 q 194 1008 151 965 q 314 1047 229 1033 l 314 1065 q 308 1143 314 1138 q 403 1186 369 1186 q 469 1174 436 1186 q 501 1158 501 1161 q 482 1031 482 1108 q 518 1019 482 1019 q 546 1060 546 1025 q 609 1064 546 1064 q 672 1044 672 1064 q 675 988 675 1015 q 672 922 675 961 q 688 844 688 858 l 688 842 q 642 802 679 826 q 595 778 604 778 q 586 781 586 778 q 533 848 586 806 q 435 890 479 890 q 365 846 408 890 q 322 771 322 801 q 351 735 329 735 q 381 751 365 735 l 382 751 q 465 703 394 751 q 539 642 535 654 q 567 644 556 644 q 585 642 579 644 q 654 571 618 615 q 696 513 690 526 q 728 275 728 444 q 641 118 728 225 q 485 -15 554 11 q 479 -29 479 -17 z "},"%":{"ha":822,"x_min":14,"x_max":799,"o":"m 151 729 q 168 682 165 693 l 168 663 q 186 650 175 650 q 218 675 204 650 l 228 714 q 211 740 228 724 q 225 764 211 753 q 229 794 229 767 l 228 835 q 217 858 217 851 l 219 865 q 229 887 229 879 q 223 898 229 894 q 217 903 217 901 l 217 917 q 206 989 217 978 l 194 993 q 165 975 186 993 q 153 913 153 932 q 165 901 165 906 q 151 806 151 847 q 167 783 167 792 q 151 729 151 744 m 586 147 l 603 99 l 603 81 q 622 67 611 67 q 654 93 639 67 l 663 132 q 646 158 663 142 q 661 181 646 171 q 665 207 665 185 l 663 253 q 651 276 651 268 l 654 283 q 665 303 665 296 q 658 315 665 311 q 651 321 651 319 l 651 347 q 642 407 651 397 l 631 410 q 601 392 622 410 q 589 329 589 350 q 601 318 601 322 q 586 222 586 265 q 603 200 603 208 q 586 147 586 161 m 356 768 l 347 717 q 349 710 347 711 l 349 708 q 333 667 349 700 q 311 635 318 635 l 286 628 l 271 589 q 207 575 260 578 l 199 575 q 175 568 182 575 q 78 597 118 568 q 26 678 57 651 l 14 713 q 19 779 19 725 l 17 865 l 44 929 l 32 954 q 42 977 32 957 q 62 1008 53 997 q 95 1039 71 1018 q 126 1060 119 1060 l 138 1060 q 178 1065 172 1060 q 194 1071 183 1071 l 279 1061 q 304 1025 285 1061 q 329 969 324 989 q 347 957 343 961 q 358 901 351 953 q 364 835 364 849 q 363 815 364 821 q 338 796 338 800 q 354 772 338 781 q 356 768 356 772 m 792 188 l 782 133 q 783 126 782 128 l 783 125 q 768 84 783 117 q 746 51 753 51 l 722 46 q 707 7 715 39 q 642 -8 694 -6 l 631 -7 q 610 -15 615 -7 q 524 6 551 -15 l 514 14 q 463 94 493 68 l 449 129 q 454 196 454 142 l 451 282 l 479 346 l 468 371 q 478 394 468 374 q 499 425 489 414 q 532 457 508 436 q 563 477 556 478 q 590 476 571 476 q 614 482 608 476 q 631 488 619 488 l 715 478 q 740 442 721 478 q 765 386 758 407 l 782 375 q 793 322 788 369 q 799 254 799 274 q 797 233 799 235 q 774 212 774 217 q 774 203 774 207 q 778 197 775 199 q 781 194 781 194 q 787 191 782 193 q 792 188 792 189 m 390 407 q 382 392 390 407 q 358 338 375 376 q 333 292 342 300 q 258 156 317 275 l 239 117 q 242 94 242 103 q 228 71 242 76 q 198 41 218 69 q 178 1 178 13 q 156 -33 178 -11 q 84 -39 150 -39 q 18 -21 18 -39 q 50 38 18 -7 l 61 53 q 92 112 89 106 q 101 140 96 118 q 107 165 106 163 l 151 215 q 217 319 161 225 q 274 430 274 414 q 318 519 274 446 q 369 592 363 592 q 454 735 396 592 q 475 782 474 782 q 522 838 488 782 q 583 951 556 894 q 608 1010 610 1008 l 608 1013 q 650 1079 608 1033 q 727 1089 660 1089 q 794 1076 794 1089 q 771 1031 781 1033 q 750 1021 754 1026 q 747 983 747 993 q 741 966 747 974 q 725 949 735 958 l 714 938 q 673 872 701 925 q 619 774 644 819 q 589 729 594 729 q 506 583 583 729 q 416 438 428 438 q 390 407 404 438 z "},"&":{"ha":833,"x_min":7,"x_max":831,"o":"m 447 786 q 476 815 447 788 q 506 861 506 843 q 488 906 506 879 q 451 933 469 933 q 402 904 433 933 q 371 853 371 875 q 392 799 371 832 q 424 765 414 765 q 432 764 428 764 q 447 786 447 764 m 418 439 q 376 463 418 449 q 340 447 363 463 q 303 414 318 431 l 288 397 q 271 296 271 382 q 292 278 271 290 q 313 254 313 267 q 342 206 313 228 q 391 183 372 183 q 438 199 410 183 q 467 229 467 215 q 421 301 467 231 q 375 388 375 372 q 397 412 375 390 q 418 439 418 433 m 607 43 q 590 60 607 43 q 568 76 572 76 q 501 29 564 76 q 414 -18 439 -18 q 408 -14 413 -18 q 368 0 394 0 q 289 -15 342 0 q 233 -31 236 -31 q 135 30 190 -31 q 43 153 79 90 q 7 226 7 215 q 25 269 7 238 q 43 322 43 300 q 35 359 43 343 q 26 376 26 375 q 131 497 26 401 q 236 596 236 593 q 194 692 236 611 l 179 719 q 163 731 174 725 q 144 749 144 742 q 156 854 144 794 q 181 926 167 914 q 294 1013 213 960 q 393 1067 375 1067 l 397 1067 q 611 1040 586 1067 q 675 939 675 965 q 654 924 657 924 q 639 886 639 924 q 676 867 660 867 q 685 834 682 867 q 689 776 689 801 q 679 750 689 750 q 590 691 658 750 q 518 618 522 632 q 622 460 557 524 q 735 468 701 468 q 771 465 768 468 q 774 413 774 438 q 770 381 774 389 q 740 336 767 372 q 713 293 713 300 q 735 259 713 286 q 775 232 758 232 q 828 225 825 228 q 831 201 831 222 q 818 152 831 179 q 749 67 806 125 q 667 10 692 10 q 607 43 642 10 z "},"'":{"ha":228,"x_min":7,"x_max":221,"o":"m 22 836 l 33 874 q 20 969 33 917 q 7 1025 7 1022 q 49 1062 7 1033 q 113 1090 90 1090 q 221 1061 221 1067 q 215 1017 221 1049 q 204 983 208 986 q 194 975 200 979 q 185 962 185 967 q 195 942 185 957 q 206 923 206 926 q 204 918 206 919 q 174 835 189 903 q 158 742 158 767 q 131 722 158 735 q 97 710 104 710 q 71 716 89 710 q 53 726 53 722 l 43 814 q 22 836 22 829 z "},"(":{"ha":429,"x_min":14,"x_max":429,"o":"m 94 938 q 96 940 94 938 q 113 949 99 942 q 137 965 128 956 q 146 983 146 974 q 133 1015 146 993 q 200 1108 133 1031 l 222 1133 q 360 1174 304 1174 q 429 1151 429 1167 q 397 1100 429 1143 q 275 865 293 967 q 218 818 218 843 q 234 796 218 810 q 250 775 250 782 q 214 517 214 697 q 246 456 246 476 q 224 430 246 450 q 203 397 203 410 l 203 394 q 213 375 203 375 l 221 375 q 236 369 236 375 q 283 153 236 263 q 299 110 299 115 l 299 107 q 296 99 296 104 q 343 3 296 72 q 410 -72 390 -67 q 417 -84 417 -75 q 410 -105 417 -93 q 397 -119 403 -117 q 368 -122 390 -122 q 235 -97 285 -122 q 184 -46 213 -86 q 139 29 156 -6 l 122 64 q 103 72 106 69 q 92 118 94 78 q 108 157 108 135 l 107 168 q 71 178 107 172 q 46 283 60 189 q 32 435 32 376 l 33 456 l 33 457 q 14 481 33 464 q 33 697 14 586 q 70 871 51 808 q 94 938 89 933 z "},")":{"ha":429,"x_min":0,"x_max":415,"o":"m 131 942 q 135 953 135 950 q 87 1049 135 979 q 19 1124 39 1118 q 13 1135 13 1126 q 20 1156 13 1144 q 34 1171 28 1168 q 61 1174 40 1174 q 194 1149 144 1174 q 245 1097 217 1138 q 290 1022 274 1057 l 307 989 q 317 985 310 988 q 328 981 324 983 q 338 933 335 972 q 321 894 321 917 l 322 883 q 358 874 322 879 q 384 770 371 863 q 397 618 397 678 l 396 597 l 396 596 q 415 571 396 588 q 397 354 415 467 q 359 180 378 242 q 333 111 340 118 l 317 103 q 283 68 283 88 q 296 36 283 54 q 229 -56 296 21 l 207 -82 q 69 -122 125 -122 q 0 -100 0 -115 q 33 -50 0 -92 q 154 186 136 85 q 211 233 211 208 q 196 256 211 242 q 181 276 181 269 q 215 535 215 354 q 185 597 185 575 q 206 622 185 603 q 228 654 228 642 l 228 656 q 217 676 228 676 l 208 676 q 193 682 193 676 q 146 897 193 781 q 131 942 131 936 z "},"*":{"ha":411,"x_min":14,"x_max":397,"o":"m 271 1099 l 250 1007 q 260 999 250 999 q 306 1030 271 999 q 344 1061 340 1061 q 373 1034 349 1061 q 397 990 397 1007 q 390 965 396 972 q 304 921 304 931 q 346 885 304 904 q 388 865 388 867 q 366 812 388 844 q 326 779 344 779 q 292 816 325 779 q 243 853 258 853 q 235 836 235 853 q 244 763 235 804 l 249 749 q 223 736 249 743 q 176 729 197 729 q 142 744 154 729 q 149 783 142 746 q 157 828 157 819 q 156 839 157 838 l 143 842 q 105 813 138 842 q 68 785 72 785 q 53 793 64 785 q 30 824 42 801 q 18 874 18 846 q 36 882 18 876 q 111 917 111 906 l 108 925 q 61 944 108 929 q 14 963 14 960 q 24 1001 14 974 q 42 1036 33 1028 q 76 1058 57 1051 q 113 1024 79 1058 q 158 989 146 989 q 169 1013 169 989 l 158 1092 l 158 1093 q 183 1106 163 1097 q 214 1115 204 1114 l 218 1115 q 251 1110 232 1115 q 271 1099 271 1104 z "},"+":{"ha":761,"x_min":7,"x_max":754,"o":"m 461 451 q 446 435 449 444 q 455 423 446 433 q 464 400 464 413 l 457 383 q 449 291 449 375 q 453 199 449 207 q 457 172 457 192 q 451 146 457 151 q 390 140 446 140 q 313 163 335 140 q 304 222 304 171 l 304 250 q 313 414 313 406 q 296 438 313 426 q 174 449 285 449 q 58 445 64 449 q 30 442 53 442 q 7 447 7 442 q 26 567 7 519 l 33 583 q 106 594 44 594 l 111 594 q 300 589 250 589 l 310 603 q 313 703 313 658 q 307 753 313 747 q 301 783 301 760 l 310 881 q 363 892 331 892 q 401 877 368 892 q 453 863 433 863 q 460 832 460 843 q 456 817 460 821 q 447 786 446 811 q 454 754 447 761 q 461 738 461 747 q 458 716 461 729 q 452 691 456 703 q 449 678 449 679 l 449 603 q 460 590 449 596 q 556 586 503 586 q 615 592 610 586 q 644 597 619 597 q 743 589 644 597 q 754 536 754 569 q 739 499 754 532 q 724 446 724 465 q 692 440 704 440 q 678 443 681 440 q 647 453 672 454 q 615 445 622 453 q 600 438 608 438 q 578 440 592 438 q 553 447 565 443 q 539 451 542 451 l 461 451 z "},",":{"ha":283,"x_min":7,"x_max":269,"o":"m 163 -143 l 160 -147 q 75 -157 150 -157 q 56 -146 63 -157 q 50 -125 50 -135 q 51 -114 50 -115 q 113 -31 113 -53 q 106 -2 113 -25 q 91 21 99 21 q 72 14 83 21 q 57 7 60 7 l 56 7 q 25 42 43 10 q 7 100 7 75 q 19 122 7 101 q 31 163 31 143 q 113 231 31 192 q 155 236 124 236 q 188 232 186 236 q 213 200 207 214 q 244 182 236 190 q 269 79 269 157 l 268 40 q 240 4 240 22 q 250 -21 250 -17 q 163 -143 250 -50 z "},"-":{"ha":600,"x_min":14,"x_max":586,"o":"m 468 290 l 421 303 l 265 307 q 235 285 249 285 l 222 290 q 136 303 211 303 q 55 299 61 303 q 31 294 49 294 q 14 300 14 294 q 28 419 14 374 l 32 436 q 89 447 43 447 l 96 447 q 251 440 243 440 l 300 458 l 328 450 q 404 439 336 439 q 479 443 472 439 q 503 450 485 450 l 576 442 q 586 389 586 422 q 574 351 586 385 q 563 299 563 318 q 539 293 547 293 q 526 300 531 293 q 503 306 521 307 q 479 298 485 306 q 468 290 474 290 z "},".":{"ha":276,"x_min":14,"x_max":263,"o":"m 263 119 q 244 54 260 69 q 221 39 229 39 q 190 16 213 39 q 163 -7 167 -7 l 90 3 q 32 42 71 10 l 19 53 q 14 85 14 58 q 22 147 14 111 q 39 183 31 183 q 114 233 64 183 q 144 239 132 239 q 226 190 226 215 q 219 165 219 178 q 241 145 219 161 q 263 119 263 129 z "},"/":{"ha":513,"x_min":-6,"x_max":578,"o":"m 338 1108 l 336 1119 q 361 1142 335 1126 q 479 1190 432 1183 l 481 1190 q 535 1180 494 1190 q 578 1160 576 1169 q 479 886 479 915 l 479 882 q 456 778 479 860 q 421 684 432 696 q 405 640 410 672 q 391 554 400 608 q 361 446 382 500 q 318 399 318 414 l 318 397 q 329 380 319 392 q 340 360 339 368 q 333 341 340 353 q 311 276 325 329 q 289 178 297 224 l 281 133 q 272 119 281 131 q 249 56 249 85 l 251 21 q 236 -67 251 -24 l 231 -83 q 163 -128 233 -94 l 139 -139 q 115 -140 133 -140 q 67 -133 97 -140 q -6 -108 -1 -119 l -6 -107 q 24 -14 -6 -100 q 57 103 53 72 q 87 125 79 115 q 94 149 94 135 l 93 169 q 85 182 86 174 l 85 189 l 93 228 q 115 243 107 231 q 126 278 124 256 q 124 285 124 281 l 124 293 q 145 406 124 324 q 189 556 167 489 l 211 624 q 239 671 239 640 l 238 681 l 232 697 l 232 700 l 257 799 l 257 806 q 271 871 257 832 q 288 910 285 910 q 309 921 301 913 q 319 944 317 929 l 303 976 l 303 979 q 320 1035 303 986 q 338 1108 338 1083 z "},":":{"ha":281,"x_min":14,"x_max":267,"o":"m 246 557 q 219 540 226 540 q 190 517 213 540 q 163 494 167 494 l 90 504 q 31 544 68 513 l 18 554 q 14 581 14 558 q 23 644 14 604 q 38 685 32 685 q 114 735 64 685 q 144 740 131 740 q 226 692 226 718 q 219 667 219 679 q 240 647 219 663 q 261 622 261 632 q 246 557 260 571 m 228 175 l 232 211 l 232 213 q 176 238 215 229 q 153 239 174 239 q 74 219 132 239 q 15 125 32 200 l 15 124 q 39 81 15 117 q 38 68 38 76 l 40 40 q 61 22 39 33 q 140 0 101 0 q 185 13 178 0 q 206 34 192 25 q 234 49 221 43 q 249 57 247 56 q 267 118 267 93 q 264 146 267 143 q 248 151 261 149 q 231 160 235 154 q 228 175 228 165 z "},";":{"ha":297,"x_min":14,"x_max":283,"o":"m 247 706 l 244 671 q 248 655 244 660 q 264 647 251 650 q 280 641 276 644 q 283 613 283 638 q 265 553 283 589 q 250 544 264 551 q 202 511 211 526 q 172 496 193 496 q 113 504 150 496 l 110 504 q 81 516 104 504 q 57 535 57 528 l 57 536 q 54 561 54 550 q 56 576 54 572 q 32 621 32 608 l 32 622 q 53 678 39 656 q 79 708 68 701 l 90 715 q 169 736 147 736 q 200 733 190 736 q 227 722 210 731 q 247 708 244 713 l 247 706 m 169 -143 l 167 -147 q 82 -157 157 -157 q 63 -146 69 -157 q 57 -125 57 -135 q 58 -114 57 -115 q 119 -31 119 -53 q 113 -2 119 -25 q 98 21 106 21 q 78 14 90 21 q 64 7 67 7 l 63 7 q 32 42 50 10 q 14 100 14 75 q 26 122 14 101 q 38 163 38 143 q 119 231 38 192 q 161 236 131 236 q 194 232 192 236 q 219 200 214 214 q 251 182 243 190 q 276 79 276 157 l 275 40 q 247 4 247 22 q 257 -21 257 -17 q 169 -143 257 -50 z "},"<":{"ha":589,"x_min":7,"x_max":575,"o":"m 208 303 q 183 343 189 303 q 150 382 183 356 q 83 428 117 408 l 49 449 q 14 500 38 449 l 7 518 q 47 588 29 571 q 203 690 192 676 q 232 726 218 726 q 283 743 283 728 q 296 771 292 771 q 418 849 310 771 q 533 932 526 926 q 539 938 539 938 q 540 939 539 939 q 560 911 549 939 q 571 865 571 883 q 562 819 571 847 q 553 779 553 790 q 510 739 522 739 l 503 739 q 479 732 486 739 q 432 682 458 682 q 425 683 429 683 q 399 661 407 683 q 221 524 221 546 q 339 414 221 496 l 381 385 q 406 358 388 358 l 417 358 q 443 353 439 358 q 467 315 467 332 q 517 276 467 307 q 571 242 567 246 q 575 210 575 238 q 560 135 575 182 q 529 89 546 89 q 493 120 524 89 q 456 151 463 151 q 449 149 450 149 q 376 204 436 149 q 301 260 315 260 q 282 265 286 260 q 274 278 278 269 q 263 296 271 288 q 228 304 254 304 l 208 303 z "},"=":{"ha":799,"x_min":7,"x_max":792,"o":"m 144 294 l 18 303 q 7 356 7 324 q 22 394 7 361 q 38 446 38 426 q 97 453 76 453 q 121 449 117 453 q 151 440 126 439 q 185 448 176 440 q 203 456 193 456 q 235 449 213 456 q 260 443 258 443 l 464 439 q 504 460 485 460 l 519 456 q 633 443 532 443 q 736 444 735 443 q 769 451 747 451 q 792 444 792 451 q 772 325 792 375 l 767 308 q 706 297 756 297 l 688 297 q 482 304 493 304 l 418 288 l 383 296 q 280 307 369 307 q 184 301 190 307 q 144 294 178 294 m 654 744 l 781 736 q 792 683 792 715 q 777 645 792 678 q 763 593 763 613 q 703 586 724 586 q 678 590 682 586 q 647 599 672 600 q 615 591 622 599 q 597 583 607 583 q 565 590 588 583 q 540 596 542 596 l 336 600 q 296 578 314 578 l 279 583 q 169 596 269 596 q 60 592 68 596 q 30 588 53 588 q 7 593 7 588 q 26 714 7 667 l 33 731 q 94 742 44 742 l 111 742 q 317 735 306 735 l 382 751 l 417 743 q 518 732 428 732 q 615 738 608 732 q 654 744 621 744 z "},">":{"ha":588,"x_min":14,"x_max":581,"o":"m 379 731 q 404 690 399 731 q 438 651 404 678 q 506 606 472 625 l 540 585 q 574 533 553 585 l 581 515 q 540 446 558 463 q 385 343 396 357 q 356 307 371 307 q 304 290 304 306 q 292 263 296 263 q 170 185 279 263 q 50 96 61 107 l 47 94 q 28 122 39 94 q 17 168 17 150 q 26 215 17 186 q 35 254 35 243 q 79 294 65 294 l 86 294 q 108 301 101 294 q 156 351 129 351 q 163 350 158 350 q 189 372 182 350 q 367 510 367 488 q 247 619 367 538 l 207 649 q 183 675 201 675 l 172 675 q 144 681 149 675 q 122 718 122 700 q 72 758 122 729 q 18 792 22 788 q 14 824 14 796 q 28 898 14 851 q 58 944 42 944 q 94 913 64 944 q 132 882 125 882 q 139 885 138 885 q 213 829 151 885 q 288 774 274 774 q 306 769 301 774 q 313 755 310 764 q 325 738 317 746 q 360 729 333 729 l 379 731 z "},"?":{"ha":639,"x_min":0,"x_max":639,"o":"m 146 26 l 122 25 q 114 28 117 25 q 111 57 111 31 q 167 206 111 172 q 214 222 179 213 q 292 232 249 232 q 313 202 304 232 q 329 172 321 172 l 346 172 q 362 169 358 172 q 371 136 365 165 q 376 97 376 107 q 353 49 376 86 q 311 -7 329 11 q 224 -24 254 -24 q 185 -15 193 -24 q 163 19 169 13 q 146 26 156 26 m 144 375 l 136 494 q 146 533 136 524 q 321 693 285 693 l 325 693 q 367 701 357 693 q 369 785 369 732 q 356 851 369 838 q 260 900 294 900 q 201 874 244 900 q 137 834 157 849 q 107 803 117 819 q 95 784 97 786 q 89 782 93 782 q 34 809 68 782 q 0 863 0 836 q 42 994 26 978 q 167 1045 57 1010 q 322 1081 278 1081 q 470 1031 365 1081 q 596 961 575 982 q 608 842 603 954 l 611 806 q 625 795 611 804 q 639 782 639 786 q 607 671 639 744 q 567 589 575 597 q 529 575 554 575 l 521 575 q 440 536 500 575 q 367 486 379 497 q 356 460 356 475 l 357 442 q 385 430 374 442 q 397 385 397 418 q 394 353 397 353 q 314 326 365 353 q 261 300 263 300 q 193 316 243 300 q 143 344 143 332 l 143 346 q 144 375 144 356 z "},"@":{"ha":1497,"x_min":32,"x_max":1490,"o":"m 796 253 q 788 292 788 269 q 792 361 788 292 q 789 371 792 371 q 726 349 769 371 q 683 308 683 326 q 693 281 693 292 q 689 267 693 271 q 672 245 672 260 q 691 212 672 231 q 723 193 710 193 q 766 217 736 193 q 796 253 796 242 m 419 -104 l 428 -101 q 456 -111 432 -101 q 606 -142 524 -142 q 661 -134 633 -142 q 690 -126 689 -126 q 700 -144 700 -126 q 663 -250 693 -219 q 610 -312 610 -299 q 510 -322 542 -322 q 474 -318 478 -322 q 461 -274 468 -281 q 436 -268 444 -268 q 426 -269 428 -268 q 392 -299 397 -299 q 301 -260 365 -299 q 211 -196 238 -221 q 166 -108 194 -150 q 119 -65 138 -65 q 88 -22 108 -65 q 50 103 68 21 q 32 269 32 185 q 53 288 32 271 q 74 326 74 306 q 57 353 74 346 q 40 365 40 360 q 67 533 40 442 q 94 633 94 625 l 94 663 q 153 707 115 707 q 176 733 176 718 q 171 765 171 749 q 272 874 171 782 q 400 965 374 965 q 413 993 410 989 q 667 1065 585 1065 q 683 1054 671 1065 q 710 1043 694 1043 q 742 1062 725 1043 q 761 1081 760 1081 q 952 1059 853 1081 q 1110 1012 1051 1038 q 1169 971 1169 986 q 1168 949 1168 963 q 1180 924 1168 936 q 1206 911 1192 911 q 1231 919 1219 911 l 1232 919 q 1285 878 1242 919 q 1372 778 1329 838 q 1415 688 1415 719 q 1444 631 1415 657 q 1474 597 1474 606 q 1457 536 1474 572 q 1480 454 1469 524 q 1490 348 1490 385 q 1484 304 1490 311 q 1465 228 1478 297 q 1453 142 1453 158 q 1356 -28 1453 107 l 1322 -74 q 1288 -78 1318 -78 l 1267 -78 q 1238 -92 1249 -78 q 1225 -119 1228 -106 l 1224 -135 q 1117 -171 1224 -146 l 1081 -179 l 978 -146 q 921 -103 978 -103 l 915 -103 q 878 -81 893 -103 q 858 -33 864 -60 q 832 36 843 36 q 821 57 821 36 l 821 79 l 804 86 q 783 66 799 86 q 733 23 768 46 q 669 -14 697 0 l 640 -26 q 560 -1 600 -26 q 500 47 521 24 q 479 74 479 71 q 483 81 479 76 q 500 108 500 94 q 450 144 500 132 l 433 149 q 445 269 433 211 q 469 356 457 328 l 481 382 q 587 450 497 403 q 731 497 676 497 q 745 488 735 497 q 763 479 756 479 q 783 486 771 479 q 806 508 806 497 q 786 563 806 529 q 688 586 774 578 l 660 589 q 581 569 628 589 q 531 549 533 549 q 516 565 528 549 q 504 590 504 582 q 530 647 504 597 q 565 703 556 696 q 668 735 582 713 q 792 758 754 758 q 900 708 854 718 q 989 667 946 699 q 1032 606 1032 636 q 1019 576 1032 603 q 1006 533 1006 550 q 1014 504 1006 517 l 1021 492 q 1017 413 1021 422 q 1001 378 1001 382 q 1008 369 1001 375 q 1014 360 1014 364 l 1014 358 l 1013 339 l 1014 267 q 1010 233 1014 233 q 965 167 965 206 q 996 144 965 153 q 1006 140 1006 142 l 1013 97 q 1049 41 1013 72 q 1111 10 1085 10 q 1181 41 1138 10 q 1231 83 1225 72 q 1289 229 1289 171 q 1268 282 1268 254 q 1289 308 1268 289 q 1310 336 1310 328 l 1310 346 q 1229 640 1310 561 q 1203 656 1224 646 q 1182 679 1182 667 q 1186 713 1186 694 q 1178 739 1186 731 q 1068 824 1093 824 q 1062 833 1064 824 q 1049 853 1060 843 q 1011 863 1038 863 q 764 913 910 913 q 685 893 732 913 q 608 874 638 874 q 511 838 578 874 q 444 781 444 803 q 431 742 444 754 q 375 731 417 731 q 358 707 358 717 q 363 693 358 697 q 261 549 269 586 q 228 324 228 382 q 235 261 228 267 q 258 223 258 232 q 244 193 258 214 q 231 168 231 172 l 231 165 q 243 129 231 129 q 262 131 251 131 q 272 125 272 131 q 333 -18 272 68 q 419 -104 394 -104 z "},"A":{"ha":850,"x_min":0,"x_max":847,"o":"m 478 553 q 476 557 476 556 q 458 735 458 614 l 458 740 q 446 769 458 769 q 390 738 390 769 l 396 674 q 378 621 396 665 q 360 550 360 576 q 367 524 360 524 q 404 533 379 524 q 453 542 429 542 q 478 553 478 542 m 214 847 l 196 928 q 302 998 196 940 q 428 1060 408 1056 q 499 1064 447 1064 q 594 1054 550 1064 q 689 1014 689 1033 q 682 978 689 1013 q 660 806 660 869 q 674 795 660 799 q 688 790 688 792 q 715 522 688 746 q 761 239 742 297 l 761 238 q 740 219 761 235 q 718 186 718 204 q 740 161 718 168 q 782 151 761 154 q 803 136 803 147 q 801 126 801 133 q 806 101 801 119 q 839 28 810 74 l 847 14 q 769 -37 847 -10 q 652 -64 690 -64 q 577 -49 614 -64 q 517 -18 540 -35 q 494 6 494 -1 q 497 21 494 7 q 504 96 504 56 l 474 286 q 499 296 474 292 q 524 314 524 300 q 503 344 524 332 q 452 357 482 357 q 381 342 422 357 q 334 313 340 326 q 314 190 328 300 q 300 25 300 79 q 226 -6 300 14 q 104 -25 153 -25 q 22 11 79 -25 l 4 22 q 0 35 0 26 l 0 38 q 50 150 21 64 l 61 181 q 103 202 79 181 q 128 233 128 224 q 113 262 128 242 q 97 286 97 282 l 97 288 l 149 415 q 181 631 149 446 q 214 847 214 815 z "},"B":{"ha":790,"x_min":28,"x_max":769,"o":"m 349 729 l 324 672 q 331 651 324 664 q 343 638 338 638 q 386 661 386 651 q 418 682 386 664 q 450 722 450 700 q 444 738 450 728 q 439 758 439 747 q 447 792 439 769 l 454 813 q 435 860 454 832 q 399 888 415 888 q 363 873 382 888 q 342 851 343 858 l 342 849 l 349 729 m 346 319 l 340 242 q 348 194 340 215 q 364 174 356 174 q 405 181 375 174 q 444 197 435 189 q 474 245 458 211 q 489 292 489 279 q 467 332 489 306 q 444 365 444 358 l 456 413 q 431 442 456 428 q 394 457 407 457 q 362 428 382 457 q 342 392 342 400 l 346 332 l 346 319 m 717 194 q 686 160 686 176 q 706 117 686 144 q 673 76 706 107 q 615 28 640 46 q 535 -12 590 11 q 453 -36 481 -36 q 365 -15 426 -36 q 300 7 304 7 q 272 -19 296 7 q 235 -44 249 -44 q 115 0 188 -44 q 42 61 42 44 q 51 86 42 64 q 79 258 79 150 l 76 321 q 86 326 76 322 q 118 361 118 339 q 95 403 118 383 q 72 425 72 422 l 72 426 q 82 532 82 457 l 78 708 l 78 728 q 67 753 78 736 q 57 780 57 769 q 75 814 57 790 q 93 853 93 838 q 60 922 93 868 q 28 978 28 976 q 83 1028 28 996 q 168 1061 139 1061 q 261 1092 229 1092 q 301 1044 274 1092 q 332 997 328 997 q 371 1018 336 997 q 520 1079 472 1079 q 638 1037 568 1079 q 707 969 707 994 l 689 951 q 671 915 671 933 q 698 894 671 900 q 725 885 725 888 q 661 689 725 753 q 615 653 646 674 q 566 615 583 632 q 549 575 549 597 q 563 554 554 554 q 595 570 565 554 q 647 586 625 586 q 684 553 656 586 q 741 460 713 521 q 769 356 769 399 q 760 267 769 313 q 750 215 750 221 q 743 204 750 208 q 717 194 726 194 z "},"C":{"ha":742,"x_min":21,"x_max":721,"o":"m 310 803 l 313 785 q 303 735 313 781 q 293 654 293 690 q 310 633 293 649 q 326 601 326 617 q 304 565 326 585 q 282 536 282 546 q 291 517 282 526 q 308 501 300 507 q 317 493 317 496 q 313 425 313 476 l 313 358 q 310 299 313 314 l 310 296 q 347 222 310 268 q 426 175 385 175 q 494 236 447 175 q 542 353 542 297 q 558 360 542 360 l 563 360 q 615 335 572 358 q 669 299 657 311 q 701 252 681 288 q 721 213 721 217 q 647 79 721 161 q 550 -3 574 -3 q 535 9 547 -3 q 514 21 522 21 q 475 8 506 21 q 308 -32 386 -32 q 203 14 279 -32 q 107 93 128 60 q 46 219 69 153 q 22 303 22 285 l 43 322 q 64 360 64 342 q 45 395 64 378 q 27 417 26 413 q 28 440 28 421 l 21 574 q 36 670 21 608 q 51 747 51 732 q 44 783 51 763 q 36 806 36 804 q 138 931 36 840 q 297 1042 239 1021 q 565 1072 403 1072 q 647 1023 603 1072 q 690 960 690 974 q 676 939 690 958 q 663 905 663 919 q 685 874 663 890 q 709 850 708 857 q 710 829 710 843 q 696 753 710 775 q 649 698 682 732 q 603 660 615 664 q 468 640 544 640 q 454 650 463 640 q 446 664 446 660 q 447 668 446 668 q 469 786 469 692 q 458 815 469 801 q 446 833 446 828 l 446 836 l 447 846 q 439 889 447 868 q 413 910 431 910 q 344 873 379 910 q 310 803 310 836 z "},"D":{"ha":785,"x_min":14,"x_max":764,"o":"m 358 565 q 345 490 357 519 q 333 383 333 461 q 344 239 333 306 q 314 186 344 213 q 304 173 304 178 q 314 158 304 168 q 342 147 324 147 q 388 162 360 147 q 432 190 417 176 l 447 204 q 475 297 475 232 l 469 357 q 490 372 469 361 q 510 396 510 383 q 481 439 510 418 q 456 468 464 444 q 465 497 456 471 q 494 598 494 576 q 492 628 494 619 q 471 743 476 654 q 453 855 465 832 q 419 894 440 878 q 382 917 397 911 l 367 922 q 346 915 357 922 q 336 900 335 908 q 338 838 338 892 q 331 731 338 783 l 331 729 q 347 705 331 722 q 363 676 363 688 q 342 642 363 665 q 322 610 322 619 q 340 585 322 600 q 358 565 358 571 m 760 500 l 764 439 q 760 426 764 428 q 739 354 739 408 q 715 260 726 265 q 658 217 658 250 q 672 191 658 203 q 685 174 685 179 q 648 126 685 168 q 572 57 611 83 q 476 2 533 31 q 392 -26 419 -26 q 383 -18 389 -26 q 368 -10 376 -10 q 235 -21 368 -10 q 85 -1 163 -21 l 57 6 q 43 19 50 8 q 36 36 36 31 l 38 39 q 61 186 61 75 l 61 189 q 83 203 61 192 q 104 235 104 215 q 79 274 104 254 q 54 297 54 293 l 54 299 q 68 574 68 357 l 68 613 q 54 681 68 650 l 54 683 l 68 719 q 71 751 71 728 l 65 869 q 36 947 58 913 q 14 983 14 981 q 17 992 14 985 q 42 1024 26 1015 q 159 1057 57 1033 q 297 1081 261 1081 q 426 1064 332 1081 q 553 1031 519 1047 q 650 952 586 1014 q 714 875 714 890 q 701 849 714 871 q 689 818 689 828 q 715 792 689 808 q 744 763 742 776 q 761 647 758 686 l 763 614 q 761 544 763 589 l 760 500 z "},"E":{"ha":706,"x_min":28,"x_max":699,"o":"m 331 644 l 557 657 q 600 644 600 657 q 568 527 600 607 q 518 447 536 447 l 494 461 q 444 474 471 474 q 336 465 344 474 q 328 340 328 457 q 350 200 328 222 q 442 178 372 178 q 530 197 511 178 q 569 247 549 215 q 601 302 589 279 q 615 325 614 325 q 663 290 628 325 q 699 240 699 256 q 669 126 699 224 q 626 15 639 28 q 615 13 625 13 l 536 21 q 453 17 486 21 q 415 14 419 14 q 392 22 410 14 q 367 31 375 31 q 355 26 360 31 q 346 15 350 22 q 321 -1 336 -1 l 263 6 q 176 -4 222 6 q 108 -14 129 -14 q 58 -6 88 -14 q 28 11 28 1 q 35 39 28 14 q 57 148 57 117 q 54 189 57 179 q 72 202 54 190 q 89 233 89 214 q 64 269 89 253 q 39 286 39 285 l 51 344 q 64 424 64 403 q 60 456 64 444 q 57 468 57 467 l 57 471 q 68 588 68 524 q 63 709 68 653 q 58 767 58 765 q 72 779 58 768 q 86 805 86 790 q 72 846 86 819 q 33 1029 33 925 q 129 1056 33 1044 q 313 1068 225 1068 q 343 1053 331 1068 q 365 1038 356 1038 q 447 1051 374 1038 q 561 1065 519 1065 q 663 1042 663 1065 q 646 934 663 1001 q 621 858 629 867 q 551 842 607 842 q 537 862 546 842 q 503 902 528 882 q 450 922 479 922 q 388 910 421 922 q 346 890 354 899 q 338 820 338 882 q 344 728 338 758 l 344 724 q 317 706 344 714 q 289 651 289 697 q 331 644 289 644 z "},"F":{"ha":686,"x_min":28,"x_max":679,"o":"m 556 460 q 551 461 553 461 q 435 481 504 481 q 326 467 367 481 q 263 408 263 444 q 297 390 263 390 q 322 393 303 390 l 324 393 q 329 364 329 393 l 328 332 q 321 194 321 236 q 333 110 321 151 l 346 68 q 342 61 346 64 q 296 35 331 57 q 174 -19 211 -19 q 106 -10 138 -19 q 57 8 75 -1 q 39 22 39 18 q 53 69 39 29 q 68 142 68 108 q 54 158 68 149 q 40 179 40 167 q 49 214 40 192 q 58 238 58 236 l 58 243 l 57 313 q 60 386 57 331 l 60 392 l 61 417 q 56 475 61 446 q 51 506 51 504 q 74 526 51 507 q 96 557 96 546 q 92 574 96 568 q 81 584 88 581 q 69 590 75 588 q 54 599 54 597 q 61 694 61 668 l 57 847 q 74 875 74 869 q 61 893 74 881 q 38 949 49 900 q 28 1021 28 997 q 113 1041 28 1031 q 197 1060 197 1051 q 215 1064 204 1064 q 278 1058 226 1064 q 335 1047 329 1053 l 340 1033 q 360 1021 346 1021 q 436 1038 374 1021 q 547 1054 499 1054 l 601 1065 q 676 1049 672 1051 q 679 1022 679 1043 q 674 969 679 1000 l 674 967 q 626 824 642 839 q 566 809 611 808 q 521 825 521 810 l 521 829 q 500 884 521 864 q 444 904 479 904 q 358 882 408 904 q 308 847 308 860 q 323 833 308 844 q 338 811 338 821 q 332 794 338 801 q 324 726 324 782 q 331 664 324 671 q 381 657 338 657 l 586 663 q 616 659 613 663 q 619 618 619 656 q 596 520 619 581 q 557 460 572 460 l 556 460 z "},"G":{"ha":756,"x_min":14,"x_max":735,"o":"m 461 640 l 499 639 q 553 651 540 639 q 638 663 565 664 q 723 651 711 663 q 735 599 735 639 q 732 556 735 558 q 697 519 701 535 q 693 494 693 504 q 713 474 693 483 q 733 457 733 464 q 721 397 733 436 q 708 349 708 358 q 715 224 708 282 q 721 128 721 167 q 711 75 721 89 q 660 42 692 56 q 613 28 628 28 q 581 53 610 28 q 540 79 553 79 q 508 63 528 79 q 464 28 488 47 q 401 -6 440 10 q 324 -22 361 -22 q 219 13 286 -22 q 135 65 153 47 q 119 87 129 69 q 104 108 108 104 q 80 122 100 113 q 53 138 60 131 q 38 254 46 144 q 18 386 29 364 l 18 388 q 37 403 18 389 q 56 437 56 418 q 45 469 56 456 q 24 490 35 482 q 14 500 14 499 q 43 589 14 528 q 51 672 51 606 l 49 790 q 153 938 49 826 q 294 1049 257 1049 l 324 1033 q 412 1046 328 1033 q 525 1058 496 1058 q 603 1049 554 1058 q 660 1032 653 1039 q 667 1001 667 1025 q 662 953 667 978 q 640 885 657 929 q 616 833 624 842 q 590 825 608 825 q 569 827 571 825 q 556 843 567 829 q 536 867 546 857 q 463 894 511 894 q 411 878 450 894 q 351 840 372 861 q 335 793 344 833 q 325 721 325 753 q 294 700 325 715 q 282 676 282 683 q 305 656 282 668 q 328 640 328 644 q 310 589 328 625 q 299 443 299 553 q 301 331 299 333 q 314 321 304 328 q 339 297 339 304 q 336 271 336 286 q 368 188 336 219 q 407 178 378 178 q 447 221 422 178 q 471 297 471 264 q 459 324 471 300 q 447 381 447 347 l 461 397 q 474 430 474 413 q 463 460 474 447 q 447 474 453 472 q 435 475 442 475 l 383 469 q 375 474 375 469 q 398 567 375 515 q 438 636 421 619 q 461 640 442 640 z "},"H":{"ha":822,"x_min":28,"x_max":806,"o":"m 736 838 l 739 754 q 720 735 739 751 q 701 707 701 719 q 717 681 701 694 q 744 667 732 667 q 750 635 750 667 q 747 598 750 604 q 739 582 744 592 l 733 569 l 733 550 q 746 274 733 308 l 746 272 q 727 250 746 269 q 708 216 708 231 q 719 196 708 201 q 742 189 731 190 q 754 186 754 188 q 772 133 754 169 q 798 89 790 97 q 806 78 806 81 q 732 14 806 58 q 626 -31 658 -31 q 537 4 593 -31 q 475 47 481 39 q 464 153 467 60 l 464 185 l 489 200 q 513 236 513 217 q 489 261 513 256 q 465 269 465 267 q 472 303 465 271 q 479 392 479 335 q 469 458 479 449 q 456 463 463 463 q 336 434 382 463 q 290 376 290 406 q 319 360 290 360 l 339 363 q 343 354 343 361 l 336 214 q 345 106 336 142 q 354 51 354 69 q 352 31 354 33 q 324 10 350 28 q 258 -26 297 -7 q 190 -44 218 -44 q 95 -21 163 -44 q 28 19 28 3 l 29 22 q 82 406 82 110 l 75 544 q 53 607 53 567 l 53 613 q 74 631 53 614 q 96 660 96 647 q 88 681 96 672 q 72 694 79 689 q 64 703 64 700 q 69 787 69 724 q 47 950 69 850 q 46 956 47 951 l 46 957 q 129 1019 46 972 q 235 1067 213 1067 q 306 1051 257 1067 q 356 1026 356 1035 q 347 948 356 1017 q 336 874 338 879 l 326 851 q 342 817 326 839 q 357 786 357 794 q 353 769 357 778 q 335 713 336 739 q 335 658 335 686 q 338 627 335 631 q 367 624 342 624 q 461 649 435 624 q 485 808 485 675 q 472 988 485 940 l 472 989 q 538 1048 472 1004 q 634 1092 603 1092 q 717 1073 665 1092 q 769 1039 769 1054 l 769 1038 q 736 838 736 960 z "},"I":{"ha":386,"x_min":28,"x_max":358,"o":"m 324 282 q 321 190 321 256 q 358 50 321 125 q 342 32 358 43 q 319 16 326 21 q 301 1 313 11 q 282 -14 289 -8 q 254 -29 263 -29 q 122 -14 214 -29 q 29 17 29 1 q 36 86 29 25 q 44 154 43 147 l 54 174 q 67 354 67 311 q 63 461 67 397 q 56 562 60 525 q 53 601 53 599 q 64 610 53 603 q 94 654 94 631 q 72 690 94 678 q 49 706 49 701 q 56 770 49 719 q 63 849 63 821 q 45 926 63 876 q 28 983 28 976 q 92 1034 28 994 q 184 1074 157 1074 q 274 1056 211 1074 q 336 1018 336 1039 q 321 942 336 1003 q 306 872 306 881 q 315 858 306 864 q 324 843 324 851 q 308 630 308 685 q 310 566 308 575 q 318 546 311 557 q 325 524 325 535 q 303 504 325 522 q 282 472 282 486 q 306 439 282 458 q 329 399 329 419 q 324 369 325 371 q 303 352 324 367 q 282 332 282 338 l 282 322 q 310 294 282 304 q 324 282 324 289 z "},"J":{"ha":711,"x_min":7,"x_max":683,"o":"m 649 414 l 657 219 q 652 176 657 200 q 610 99 647 153 q 554 44 574 44 l 510 58 q 494 46 504 58 q 467 18 483 33 q 376 -22 451 3 q 274 -46 300 -46 q 140 -4 207 -46 q 40 74 74 38 q 27 79 39 75 q 12 87 15 83 q 8 108 8 90 q 21 211 8 146 l 25 232 q 7 306 25 232 q 76 372 7 321 q 175 424 144 424 q 236 414 206 424 q 274 399 274 404 q 263 358 274 393 q 251 306 251 322 q 268 278 251 290 q 285 264 285 267 q 269 219 285 244 q 254 193 254 194 q 280 151 254 175 q 319 128 306 128 q 378 160 340 128 q 399 247 399 181 q 392 319 399 313 q 385 371 385 326 l 385 382 q 406 399 385 385 q 426 431 426 414 q 408 458 426 447 q 389 471 389 469 l 390 500 q 393 666 393 558 q 383 804 393 774 l 383 806 q 407 833 383 814 q 431 853 431 851 q 421 876 431 865 q 392 888 411 888 q 351 874 372 888 q 320 846 331 860 q 304 832 310 832 q 275 851 299 832 q 251 882 251 871 q 266 949 251 893 q 288 1014 281 1006 q 392 1054 301 1026 q 540 1082 483 1082 q 553 1071 550 1075 q 558 1067 556 1067 l 654 1076 q 677 1070 671 1076 q 683 979 683 1064 q 661 909 683 958 q 639 852 639 860 q 656 830 639 844 q 672 807 672 815 q 653 780 672 799 q 633 749 633 761 q 654 710 633 738 q 675 679 675 683 q 674 675 675 675 q 674 674 674 675 q 649 511 649 629 l 649 414 z "},"K":{"ha":783,"x_min":28,"x_max":783,"o":"m 324 1049 l 303 913 q 315 899 315 907 l 315 890 l 299 788 q 297 783 299 786 l 297 753 q 306 703 300 708 q 331 685 325 685 q 336 685 336 685 q 339 688 336 686 q 366 756 342 690 q 396 827 390 822 q 420 833 401 832 q 444 840 439 835 q 453 865 453 856 l 440 901 q 441 903 440 903 q 442 904 442 903 q 503 1043 493 997 q 575 1075 504 1050 q 654 1100 646 1100 q 670 1093 663 1100 q 685 1086 678 1086 l 718 1090 q 753 1072 724 1090 q 783 1047 783 1053 q 758 1015 783 1042 q 729 983 732 989 q 696 950 713 950 q 678 954 681 954 q 649 928 649 939 q 656 906 649 917 q 664 891 664 894 q 647 869 664 888 q 576 781 593 807 q 507 657 507 671 q 589 617 507 651 q 647 570 621 603 q 672 494 672 538 q 678 458 672 479 q 683 424 683 436 q 671 400 683 413 q 658 367 658 376 q 703 339 658 351 q 713 269 708 332 q 717 169 717 206 q 778 68 778 85 q 697 19 778 54 q 596 -15 615 -15 q 532 0 576 -15 q 478 24 488 15 q 456 119 464 38 l 453 147 l 453 149 q 469 163 453 150 q 486 196 486 175 q 450 217 486 217 l 447 217 q 439 250 439 217 l 439 256 l 429 381 q 432 406 429 399 l 432 410 q 401 465 432 432 q 336 499 371 499 q 314 478 328 499 q 300 451 300 457 q 317 430 300 444 q 335 408 335 415 q 329 388 335 400 q 324 333 324 375 l 324 328 q 333 301 324 311 q 343 285 343 290 q 337 270 343 279 q 319 254 331 261 q 310 225 310 244 l 310 219 q 322 208 310 217 q 333 193 333 199 l 333 192 q 331 153 331 175 l 336 43 q 297 18 336 31 q 226 -14 258 6 q 165 -33 194 -33 q 85 -10 136 -33 q 33 28 33 13 l 51 186 q 53 226 53 199 l 49 346 q 72 365 49 351 q 94 393 94 378 q 68 426 94 408 q 42 447 42 443 q 54 649 42 544 l 58 683 q 42 806 42 710 q 52 812 42 807 q 63 826 63 817 q 45 919 63 872 q 28 980 28 967 q 92 1032 28 993 q 183 1071 157 1071 l 261 1068 q 324 1049 324 1060 z "},"L":{"ha":708,"x_min":28,"x_max":708,"o":"m 674 185 l 678 158 q 655 87 678 139 q 628 29 632 35 q 557 15 613 15 q 364 26 451 15 l 332 31 q 292 15 308 31 q 242 -1 275 -1 l 117 7 q 47 24 47 7 l 47 26 q 54 101 54 50 l 47 218 l 47 219 q 74 246 47 226 q 100 281 100 265 q 88 310 100 296 q 49 332 75 324 q 46 349 46 340 l 54 404 q 57 440 57 424 l 44 663 q 56 675 44 667 q 76 701 76 690 l 69 732 q 49 746 61 740 q 28 760 28 753 q 44 807 28 768 q 60 856 60 846 l 36 978 q 96 1033 36 989 q 195 1076 156 1076 q 297 1067 235 1076 q 358 1047 358 1057 q 348 959 358 1031 q 331 883 338 888 q 297 848 297 867 q 319 810 297 829 q 340 786 340 792 l 340 785 q 329 573 329 631 q 331 506 329 515 q 345 485 333 497 q 357 465 357 472 q 342 437 357 458 q 328 397 328 415 q 332 330 332 354 q 329 303 332 306 q 281 219 281 254 q 288 200 281 213 q 299 188 294 188 q 331 208 304 188 q 371 228 357 228 l 375 228 q 464 218 422 218 q 518 231 506 218 q 593 342 565 278 q 604 358 600 358 q 676 325 643 358 q 708 269 708 292 q 687 210 700 226 q 674 185 674 194 z "},"M":{"ha":1126,"x_min":28,"x_max":1099,"o":"m 68 910 l 63 1014 q 131 1049 63 1022 q 210 1076 200 1076 l 244 1061 q 267 1062 253 1061 q 313 1064 282 1063 q 381 1067 382 1065 q 479 1029 479 1047 q 488 924 479 992 q 513 839 496 857 q 494 813 513 836 q 476 768 476 789 q 496 753 476 761 q 515 740 515 744 q 537 588 529 600 q 565 575 544 575 q 575 592 571 575 q 599 664 590 656 q 624 828 614 817 q 665 872 665 850 q 651 899 665 885 q 638 917 638 914 q 654 973 638 921 q 678 1033 671 1025 q 785 1065 686 1040 q 908 1089 883 1089 q 1079 1058 1079 1082 q 1053 942 1053 957 q 1054 926 1053 926 q 1067 781 1067 926 l 1067 756 q 1056 747 1067 753 q 1021 696 1021 726 q 1042 678 1021 694 q 1063 654 1063 663 l 1063 653 q 1049 399 1049 589 l 1050 310 q 1057 258 1057 294 l 1057 243 q 1038 219 1057 239 q 1019 192 1019 200 q 1060 168 1019 174 q 1089 65 1060 136 l 1099 42 q 1019 0 1099 29 q 892 -29 939 -29 q 819 -6 875 -29 q 764 28 764 17 l 786 147 l 781 322 q 798 342 781 324 q 815 374 815 361 q 808 397 815 388 q 792 409 800 406 q 783 414 783 413 q 800 469 783 431 q 795 595 800 506 q 785 685 790 685 l 761 674 q 724 530 757 669 q 690 383 690 390 q 697 360 690 376 q 704 337 704 343 q 697 323 704 331 q 678 307 689 315 q 664 296 667 299 l 657 274 q 669 251 657 264 q 682 234 682 238 q 662 202 682 231 q 606 143 642 174 q 544 113 571 113 q 450 133 517 113 q 383 164 383 153 l 371 229 q 381 235 371 231 q 411 269 411 247 q 383 290 411 285 q 354 304 354 296 q 306 594 354 396 l 290 660 q 289 660 289 660 q 288 661 289 661 l 271 653 q 261 515 261 643 l 265 311 q 281 249 281 264 q 279 233 281 235 q 246 183 246 210 l 246 178 q 258 165 246 171 q 272 156 269 158 q 275 142 275 150 l 274 107 l 281 51 q 272 32 281 33 l 219 8 q 151 -15 165 -15 q 83 4 138 -15 q 28 35 28 24 q 38 74 28 38 q 68 274 68 188 q 53 283 68 275 q 38 296 38 292 l 67 442 q 63 667 63 465 l 63 735 q 72 742 63 736 q 99 776 99 761 q 94 799 99 790 q 84 813 90 807 q 72 822 78 818 q 62 828 65 826 q 63 843 58 831 q 68 910 68 856 z "},"N":{"ha":853,"x_min":28,"x_max":825,"o":"m 785 722 l 793 685 q 789 474 789 563 q 793 363 789 386 q 758 303 758 328 q 806 254 806 272 q 798 242 806 250 q 790 209 790 235 q 798 147 790 183 q 814 92 806 110 l 822 72 l 822 71 q 789 43 822 64 q 706 3 756 22 q 632 -15 657 -15 q 527 -1 607 -15 q 447 22 447 13 q 435 121 447 61 q 410 211 422 181 l 401 226 q 406 233 401 228 q 422 269 422 254 q 413 290 422 283 q 392 303 404 297 q 378 311 381 308 q 333 503 378 354 l 319 551 q 285 563 311 560 q 279 471 279 557 l 282 260 l 281 239 q 263 211 271 229 q 256 188 256 193 q 299 168 256 171 q 308 100 299 146 q 318 50 318 54 q 300 31 318 38 q 200 -18 240 3 l 176 -31 q 162 -32 175 -32 q 96 -13 149 -32 q 43 13 43 6 q 68 161 43 85 l 76 188 q 75 201 75 189 l 81 374 q 76 418 81 414 q 72 457 72 422 l 74 501 q 82 508 74 503 q 107 550 107 525 q 79 585 107 560 l 67 596 q 64 613 64 599 l 71 690 l 58 775 q 69 790 58 776 q 81 815 81 804 q 54 909 81 826 q 28 998 28 992 q 71 1031 28 1004 q 126 1058 114 1058 l 133 1058 q 225 1069 210 1058 q 272 1071 244 1071 q 440 1047 417 1071 q 465 939 465 957 l 465 936 q 438 879 438 914 q 470 865 438 874 q 503 842 503 857 l 497 793 q 534 674 497 775 q 578 565 571 572 q 597 558 589 558 q 604 565 604 558 l 604 578 q 582 810 604 785 q 596 834 582 815 q 610 860 610 853 q 575 917 601 890 q 572 926 572 919 q 583 953 572 933 q 593 979 593 974 l 578 1042 q 606 1061 578 1044 q 735 1111 686 1111 q 825 1094 825 1108 q 794 817 794 896 q 822 775 822 786 q 803 744 822 764 q 785 722 785 725 z "},"O":{"ha":819,"x_min":14,"x_max":806,"o":"m 344 813 l 367 749 q 346 721 367 746 q 325 684 325 696 q 344 657 325 672 q 363 633 363 642 q 331 408 331 478 q 364 360 331 393 q 367 349 367 357 q 353 312 367 342 q 340 276 340 282 q 374 200 340 239 q 436 161 407 161 q 467 176 454 161 q 492 204 481 190 l 504 218 q 506 222 506 219 q 490 251 506 225 q 474 286 474 276 q 488 340 474 296 q 503 403 503 383 l 481 425 q 479 433 479 426 l 479 436 q 469 469 479 460 l 468 474 q 501 524 471 488 q 508 581 508 531 l 501 715 q 480 744 501 728 q 458 765 458 761 q 478 847 458 801 l 485 863 q 447 900 485 879 l 435 907 q 378 873 411 907 q 344 813 344 839 m 739 315 q 767 263 739 288 q 746 185 767 232 q 702 107 725 139 q 672 75 679 75 q 598 57 640 75 q 529 21 556 39 l 503 3 q 375 -22 489 -10 l 338 -26 q 217 23 279 -26 q 122 118 154 72 q 89 169 89 164 q 95 193 89 175 q 101 228 101 211 q 58 261 101 261 l 47 260 q 19 408 36 260 l 14 457 l 31 646 q 47 674 31 650 q 64 703 64 697 l 61 822 q 65 882 61 876 q 181 979 83 907 q 326 1051 278 1051 q 347 1075 336 1075 q 509 1079 417 1079 q 617 1064 601 1079 q 649 1035 618 1063 q 700 986 679 1007 q 741 935 721 965 q 761 883 761 904 l 733 849 q 777 715 749 817 q 806 568 806 613 q 785 351 800 351 q 739 315 739 333 z "},"P":{"ha":728,"x_min":19,"x_max":714,"o":"m 436 532 l 419 558 q 423 563 419 560 q 431 576 426 567 q 442 601 436 586 q 454 713 454 636 q 436 728 454 714 q 418 750 418 743 q 442 815 418 763 l 450 832 q 433 864 450 849 q 400 886 417 879 l 385 893 q 326 821 326 844 l 335 729 q 308 694 308 706 q 311 681 308 683 q 332 652 332 661 q 328 640 332 643 q 325 617 325 636 l 326 556 q 322 517 326 525 q 359 493 343 493 q 406 507 375 493 q 436 532 436 521 m 714 728 l 710 638 q 714 600 710 614 l 714 596 q 658 492 714 568 q 587 417 603 417 q 522 380 571 417 q 472 332 472 343 q 398 312 472 324 q 324 297 324 300 q 346 78 324 160 l 353 51 q 310 22 353 42 q 261 -6 268 1 q 196 -29 246 -21 q 99 -11 171 -29 q 26 21 26 7 q 53 172 42 53 l 56 214 q 61 219 56 215 q 81 249 81 229 q 56 285 81 269 q 32 304 32 301 q 51 356 32 321 l 58 368 l 61 464 q 57 515 61 511 q 53 525 53 519 l 69 594 q 72 639 72 614 q 56 819 72 711 l 49 858 l 68 890 q 32 989 68 915 l 19 1015 q 163 1083 97 1083 q 258 1067 253 1074 q 288 1000 272 1051 l 293 982 q 308 975 303 975 q 315 978 314 975 q 365 1061 356 1035 q 481 1065 444 1065 l 496 1064 l 499 1064 q 557 1048 517 1061 q 606 1026 597 1035 q 689 892 649 983 q 707 858 703 861 l 707 857 q 685 828 707 853 q 664 797 664 804 l 664 796 q 675 773 664 782 q 701 764 686 764 q 714 728 714 764 z "},"Q":{"ha":833,"x_min":14,"x_max":819,"o":"m 338 650 l 319 476 q 324 453 319 457 q 349 404 349 413 q 332 374 349 396 q 315 350 315 353 q 339 250 315 300 l 347 233 q 417 193 389 193 q 467 213 467 203 q 443 256 460 219 q 426 297 426 292 q 500 361 426 307 l 524 379 q 476 438 524 410 q 487 540 476 468 q 497 631 497 611 q 475 663 497 651 q 484 751 475 686 q 498 820 493 815 q 503 829 503 825 q 463 883 503 849 q 406 917 424 917 q 365 876 396 917 q 335 822 335 836 q 349 789 335 808 q 363 763 363 769 q 347 722 363 756 q 332 678 332 688 q 335 667 332 669 q 338 650 338 664 m 551 4 q 519 42 551 24 q 468 24 500 42 q 414 -11 436 7 l 393 -29 q 244 12 324 -29 q 119 94 164 53 l 74 135 q 44 208 60 151 l 40 226 q 61 277 61 250 q 38 358 61 304 q 14 418 14 413 q 26 574 14 490 q 50 706 38 658 l 61 753 q 115 788 115 756 q 97 811 115 793 q 79 839 79 829 q 176 1004 121 950 q 217 1028 190 1014 q 331 1065 243 1042 q 514 1089 418 1089 q 595 1060 532 1089 q 672 1015 658 1031 q 754 865 754 907 q 719 804 719 842 q 731 794 719 796 q 757 790 742 792 q 779 781 772 788 q 783 724 783 761 q 774 638 783 688 q 807 512 807 549 q 797 429 807 475 q 782 381 788 383 q 742 340 742 365 q 772 297 742 313 q 782 290 782 292 q 761 242 782 271 q 719 194 740 214 q 699 172 699 174 q 781 58 708 125 q 819 26 797 43 q 781 -30 819 4 q 703 -87 742 -64 l 663 -111 q 633 -115 650 -115 q 546 -100 594 -115 q 521 -36 525 -79 l 519 -22 q 535 -10 519 -21 q 551 4 551 0 z "},"R":{"ha":813,"x_min":21,"x_max":806,"o":"m 356 582 q 363 582 356 582 q 412 617 369 582 q 454 660 454 651 q 444 688 454 669 q 435 715 435 707 q 449 740 435 722 q 463 764 463 758 q 451 851 463 815 q 426 899 439 888 l 414 910 q 359 887 394 910 q 324 856 324 864 l 324 854 q 341 809 332 842 q 350 747 350 776 q 339 733 350 744 q 325 722 328 722 q 333 629 333 657 q 332 596 333 601 q 356 582 343 582 m 724 864 q 738 811 738 864 q 731 715 738 758 q 717 664 725 672 q 558 547 649 594 q 551 529 551 533 q 554 525 551 525 q 659 487 601 525 q 717 425 717 449 q 714 374 714 406 q 806 93 714 185 l 806 92 q 753 33 806 79 q 685 -14 700 -14 q 569 -4 628 -14 q 494 22 511 6 q 492 44 493 24 q 483 122 488 108 q 493 131 483 125 q 522 172 522 150 q 496 188 522 185 q 469 197 469 192 q 457 333 469 242 l 453 364 q 435 399 449 381 q 408 425 421 417 l 396 435 q 332 403 374 435 l 318 393 q 351 339 318 383 q 333 185 333 247 l 333 169 q 347 160 339 169 q 356 147 356 151 l 365 29 q 363 18 365 18 q 283 -12 335 18 q 203 -43 231 -43 q 188 -40 201 -43 q 121 -31 139 -31 q 44 14 90 -31 l 29 28 q 53 171 49 67 l 54 206 q 66 213 54 207 q 89 231 78 219 q 100 256 100 243 q 78 274 100 265 q 57 288 57 282 q 69 426 57 360 q 81 500 81 493 q 74 514 81 507 q 67 575 68 521 q 50 811 65 760 q 63 822 50 814 q 75 836 75 829 q 33 958 75 882 q 21 983 21 982 q 58 1015 21 992 q 151 1058 94 1038 q 249 1078 207 1078 q 272 1041 260 1078 q 285 985 285 1004 q 296 979 290 979 q 304 982 301 979 q 390 1060 382 1057 q 534 1067 458 1067 q 626 1050 610 1067 q 696 926 696 982 q 663 879 663 901 q 693 861 663 861 l 724 864 z "},"S":{"ha":713,"x_min":7,"x_max":699,"o":"m 442 -14 q 428 3 438 -14 q 403 21 418 21 q 372 -1 389 21 q 344 -24 354 -24 q 178 -9 251 -24 q 78 21 104 6 l 50 36 q 31 123 42 44 q 21 265 21 201 q 76 311 21 275 l 94 324 q 164 342 108 333 q 165 331 165 342 l 164 300 l 200 211 q 249 192 207 207 q 313 178 292 178 q 388 223 350 178 q 426 286 426 268 q 389 369 426 318 l 376 388 q 254 451 275 451 q 222 444 229 444 q 201 461 214 444 q 188 483 188 478 l 197 525 q 168 544 197 536 l 129 538 q 60 607 114 538 q 7 690 7 676 q 26 760 7 704 q 83 892 44 815 q 165 1013 122 969 q 266 1047 194 1032 q 418 1063 338 1063 q 476 1025 442 1025 q 507 1074 507 1039 q 553 1078 507 1078 q 645 1054 644 1078 q 646 990 646 1031 q 643 928 646 950 q 658 849 658 861 l 658 847 q 613 806 650 831 q 566 782 575 782 q 557 786 557 782 q 503 853 557 811 q 406 896 450 896 q 336 851 379 896 q 293 775 293 806 q 322 740 300 740 q 351 756 335 740 l 353 756 q 435 708 365 756 q 510 647 506 660 q 538 650 526 650 q 556 647 550 650 q 625 576 589 621 q 667 517 661 531 q 699 279 699 443 q 592 108 699 229 q 442 -14 486 -14 z "},"T":{"ha":781,"x_min":3,"x_max":778,"o":"m 546 1044 l 714 1056 q 726 1054 725 1056 q 756 951 735 1046 q 778 801 778 856 q 737 762 778 790 q 669 733 696 733 q 660 756 667 733 q 597 871 636 832 q 524 889 547 889 q 495 887 500 889 q 481 876 490 885 q 472 854 472 868 q 536 815 536 825 q 529 638 529 725 q 496 601 496 610 q 507 572 496 583 q 529 557 518 561 q 540 551 540 553 q 532 301 532 401 q 538 167 532 200 q 569 53 569 88 q 537 26 569 42 q 483 6 504 11 q 422 -29 449 -3 q 298 -22 347 -29 q 236 -8 249 -15 l 225 -1 l 249 83 q 251 126 251 88 l 250 232 q 251 254 250 254 q 285 290 268 254 q 260 322 285 297 q 236 353 236 347 l 257 393 q 260 424 260 404 l 256 553 q 260 582 256 578 q 264 592 264 586 q 249 615 264 599 q 233 643 233 631 l 256 693 q 261 800 261 710 q 258 890 261 890 q 185 847 219 890 q 135 758 150 803 l 119 714 q 63 729 92 714 q 18 760 33 744 q 3 784 3 776 q 31 923 3 792 q 67 1056 60 1054 q 150 1043 132 1049 q 347 1060 324 1060 l 408 1053 q 471 1075 464 1075 q 504 1055 493 1065 q 546 1044 515 1044 z "},"U":{"ha":794,"x_min":21,"x_max":767,"o":"m 365 374 l 350 246 q 374 187 354 213 q 422 161 394 161 q 454 185 436 161 q 472 239 472 210 q 469 281 469 261 q 474 304 469 300 q 496 342 496 324 q 467 386 467 376 l 490 442 l 490 518 q 488 604 490 597 q 503 644 503 614 q 486 667 503 656 q 469 692 469 679 q 488 774 474 738 q 490 849 490 779 q 485 925 490 919 q 469 1004 469 940 q 471 1011 469 1007 q 542 1048 478 1018 q 610 1078 607 1078 q 629 1069 614 1078 q 653 1061 644 1061 q 667 1067 661 1061 q 680 1072 672 1072 q 690 1071 688 1072 q 767 1028 767 1039 q 752 957 767 1021 q 738 847 738 893 q 751 828 738 840 q 765 808 765 815 q 754 781 765 800 q 743 760 743 761 q 740 586 740 678 q 747 476 740 494 l 747 475 q 728 450 747 469 q 710 422 710 431 q 716 406 710 414 q 729 397 722 399 q 747 388 747 392 q 743 328 743 371 q 744 211 743 267 l 746 192 q 693 97 746 169 l 675 74 q 569 44 589 54 q 490 -21 539 32 l 475 -37 q 279 -24 358 -37 q 179 1 200 -11 l 158 14 l 83 106 l 61 113 q 42 135 56 114 q 29 160 29 156 q 33 169 29 165 q 57 240 47 183 q 67 326 67 297 q 61 360 67 354 q 56 425 56 365 l 58 503 q 39 560 58 540 q 47 593 39 583 q 62 613 54 603 q 74 628 69 624 l 81 661 q 60 684 81 663 q 39 710 39 706 q 44 729 39 714 q 64 799 64 775 q 42 916 64 822 q 21 1011 21 1010 q 102 1057 21 1018 q 201 1096 183 1096 q 251 1082 232 1082 l 282 1088 q 332 1076 304 1088 q 374 1050 360 1064 q 340 786 340 817 q 357 767 357 774 l 356 736 q 349 596 349 644 q 354 523 349 547 q 360 474 360 499 q 325 421 325 435 q 331 399 325 407 q 343 388 336 390 q 364 379 353 383 q 365 374 365 376 z "},"V":{"ha":824,"x_min":3,"x_max":821,"o":"m 658 324 q 597 269 597 289 q 615 246 597 260 q 632 229 632 232 q 599 35 599 68 q 571 17 599 25 q 542 10 543 10 q 422 -42 481 -22 l 401 -49 q 372 -50 394 -50 q 236 -29 324 -50 l 207 -22 q 179 153 196 -11 l 174 208 q 161 228 172 214 q 150 253 150 242 q 168 271 150 254 q 186 299 186 288 q 159 330 186 311 q 132 350 132 349 q 100 543 132 365 q 56 735 68 721 l 56 736 l 72 774 q 38 875 72 789 q 3 964 3 961 q 76 1010 3 972 q 179 1049 150 1049 q 220 1036 196 1036 q 253 1038 244 1036 l 257 1038 q 302 1023 272 1038 q 332 1001 332 1008 q 331 913 331 958 q 333 860 331 868 q 292 803 292 842 q 317 788 292 794 q 342 779 342 782 q 358 564 351 574 q 381 542 365 554 q 397 524 397 529 q 383 482 397 504 q 369 450 369 460 q 386 328 386 351 q 413 319 406 319 q 430 332 419 319 q 446 358 440 344 q 469 551 463 547 q 510 599 510 579 q 506 607 510 603 q 464 667 464 636 q 481 688 464 668 q 499 724 499 708 l 511 935 q 508 968 511 957 l 508 969 q 565 1019 508 982 q 639 1056 621 1056 q 652 1051 642 1056 q 688 1046 663 1046 q 722 1047 713 1046 q 821 1026 821 1046 l 821 1024 q 756 836 758 863 q 704 792 704 817 q 723 774 704 783 q 742 763 742 764 q 658 324 658 440 z "},"W":{"ha":1324,"x_min":7,"x_max":1317,"o":"m 1163 331 l 1175 297 l 1175 296 q 1115 229 1117 233 l 1115 222 q 1132 181 1115 197 q 1135 162 1135 178 q 1119 92 1135 146 q 1096 39 1103 39 q 1039 21 1072 39 q 994 -8 1006 3 q 950 -40 975 -28 q 789 -24 836 -40 l 772 -18 q 706 35 750 -7 q 663 96 663 76 l 706 132 q 689 163 706 146 l 685 163 q 656 175 674 163 q 647 318 656 213 q 632 439 639 424 q 628 442 632 442 q 600 424 618 442 q 581 290 593 413 l 576 250 q 543 197 543 217 l 556 183 q 569 161 569 169 q 542 119 569 150 q 537 87 538 115 q 535 33 536 58 q 529 7 535 7 q 451 -24 506 7 q 344 -54 396 -54 q 239 -28 328 -54 q 150 15 150 -3 l 133 186 q 119 199 133 189 q 104 217 104 208 q 132 268 104 226 q 89 322 132 293 q 92 365 92 331 l 89 467 q 61 594 81 483 l 56 631 q 79 679 79 646 l 79 682 q 53 703 79 690 q 26 722 26 715 l 47 781 l 7 961 q 39 993 7 968 q 117 1042 71 1018 q 194 1067 164 1067 q 264 1052 200 1067 q 328 1032 328 1038 q 326 919 326 967 q 328 864 326 871 q 285 821 285 843 q 325 794 285 811 l 338 789 q 350 481 340 526 q 333 453 344 465 q 357 306 350 314 q 386 286 379 286 q 396 289 393 286 q 428 463 428 403 q 449 486 447 476 q 465 638 465 611 l 465 643 q 444 689 444 668 q 488 763 483 744 q 496 817 493 782 q 507 914 503 913 q 656 1001 613 1001 l 660 1001 q 737 979 692 997 q 836 961 782 961 l 840 961 q 853 824 853 964 q 851 788 853 789 q 825 734 825 756 q 867 710 825 713 q 890 490 890 569 q 867 462 867 475 q 883 429 867 449 q 899 331 888 342 q 933 311 926 311 q 942 315 939 311 q 949 360 944 319 q 956 403 953 400 q 972 426 971 419 q 990 618 986 604 q 1025 654 1025 644 l 1025 656 q 997 693 1025 674 q 1024 854 1014 808 q 1014 950 1014 921 q 1018 983 1014 979 q 1140 1056 1094 1040 q 1250 1064 1215 1064 l 1257 1064 q 1317 1033 1317 1049 l 1317 1032 q 1250 865 1250 886 q 1194 813 1194 835 q 1205 801 1194 804 q 1221 794 1215 797 l 1231 789 q 1233 786 1235 788 q 1212 667 1214 703 q 1201 594 1210 631 q 1186 533 1193 557 q 1171 445 1179 510 q 1163 331 1163 381 z "},"X":{"ha":840,"x_min":3,"x_max":838,"o":"m 774 892 q 781 863 782 869 q 778 851 781 856 q 751 831 776 847 q 725 799 725 815 q 603 490 603 515 q 611 451 607 454 q 624 442 615 447 q 678 293 663 324 q 665 268 671 272 q 683 239 667 240 q 721 228 721 235 q 760 126 728 194 q 806 38 792 58 l 806 35 q 744 -3 806 21 l 725 -10 q 663 -56 676 -56 q 497 -31 556 -56 l 478 -24 l 471 50 l 481 68 q 443 99 481 90 q 435 113 435 99 l 446 161 q 422 239 446 183 l 415 258 q 394 267 407 267 l 390 267 q 348 190 385 267 q 311 104 311 114 l 296 -6 q 260 -28 296 -15 q 208 -42 225 -42 q 133 -57 178 -42 l 118 -62 q 47 -44 90 -62 q 3 -14 3 -25 l 61 100 q 82 113 75 100 q 193 403 126 201 l 217 475 q 222 479 217 479 q 240 463 226 479 q 264 431 254 447 l 275 414 q 297 447 286 414 q 250 567 297 482 q 203 658 203 653 q 214 678 203 664 q 225 697 225 692 q 217 716 225 703 q 203 732 208 729 q 188 735 197 735 q 172 736 179 736 q 165 739 165 736 q 112 859 165 771 q 58 954 58 947 q 87 981 58 958 q 153 1024 115 1003 q 213 1046 192 1046 q 361 1033 360 1044 q 415 903 406 911 q 417 896 417 901 l 403 850 q 422 832 403 832 q 435 828 433 832 q 478 710 468 710 q 503 719 494 711 q 561 900 561 853 q 554 988 554 969 q 556 1006 554 1006 q 707 1076 650 1076 q 838 1035 838 1049 q 806 966 838 1025 q 774 892 774 907 z "},"Y":{"ha":813,"x_min":3,"x_max":810,"o":"m 90 1021 l 107 1018 q 175 1038 133 1018 q 336 1015 335 1024 q 354 868 354 890 q 353 844 354 846 q 324 814 326 821 l 324 811 q 343 786 324 788 q 361 782 361 783 q 399 650 379 650 q 428 665 425 656 q 479 828 475 792 q 501 842 496 835 q 520 890 506 850 q 535 947 535 929 l 535 960 q 540 1011 535 1008 q 690 1047 657 1047 q 810 999 810 1018 q 708 840 724 876 l 708 836 q 688 768 708 789 q 636 731 636 760 q 649 706 649 714 q 524 396 550 508 q 469 353 479 385 q 504 324 479 324 l 507 324 q 496 114 496 150 l 513 14 l 513 11 q 489 0 513 6 q 417 -21 456 0 q 360 -51 400 -40 q 267 -37 310 -51 q 205 -9 224 -24 q 186 14 186 6 l 186 15 q 215 215 215 57 l 215 251 q 199 279 215 261 q 182 300 182 297 q 208 340 182 314 q 172 489 208 399 l 161 518 l 160 522 l 164 549 q 163 560 164 556 l 75 774 l 75 776 q 91 803 75 782 q 107 832 107 824 q 58 854 107 846 q 42 899 49 854 l 40 914 q 21 945 39 918 q 3 981 3 972 q 19 993 3 983 q 90 1021 64 1021 z "},"Z":{"ha":760,"x_min":7,"x_max":753,"o":"m 550 653 q 574 611 550 635 q 539 569 574 593 q 504 531 504 546 q 375 196 375 269 q 419 176 385 176 q 518 201 486 178 q 581 297 544 224 q 619 369 618 369 q 683 338 638 369 q 729 290 729 306 q 693 126 714 193 q 707 108 707 113 q 672 17 707 100 l 660 -11 q 503 -32 639 -32 l 499 -32 q 481 -10 496 -24 q 456 4 465 4 q 386 -21 435 4 l 371 -29 q 356 -31 368 -31 q 261 -17 328 -31 l 239 -11 q 148 -26 219 -11 q 67 -40 76 -40 l 64 -40 q 24 8 40 -28 q 7 54 7 43 q 66 201 7 65 q 129 367 125 336 q 145 382 129 374 q 176 394 161 390 l 192 399 l 210 429 q 174 469 210 444 q 264 661 174 496 l 293 715 q 319 725 314 715 q 342 790 329 742 l 344 806 q 386 817 350 810 q 422 829 422 825 q 358 868 422 868 l 354 868 q 271 858 325 868 l 256 856 q 203 807 232 842 q 157 744 174 772 l 140 715 q 85 751 124 715 q 47 801 47 786 q 74 906 47 815 q 115 1010 101 996 q 186 1017 178 1015 q 225 1042 194 1018 q 353 1047 313 1047 q 403 1044 394 1047 q 514 1017 489 1017 q 561 1051 551 1051 q 715 1031 704 1042 q 753 990 753 997 l 753 989 q 675 882 697 925 q 675 879 675 881 l 683 861 q 603 699 608 735 q 550 653 550 678 z "},"[":{"ha":328,"x_min":28,"x_max":328,"o":"m 246 407 l 239 233 q 240 221 239 222 q 204 167 204 192 q 225 149 204 153 q 246 143 246 144 q 244 56 244 118 q 257 -24 244 -6 q 283 -58 269 -43 q 306 -80 297 -72 q 314 -90 314 -87 q 284 -116 314 -99 q 235 -133 254 -133 q 122 -79 217 -133 q 28 -7 28 -25 l 42 128 q 44 168 44 135 l 40 317 q 51 351 40 351 l 72 346 q 88 378 88 346 l 88 379 q 63 411 88 386 q 57 453 57 417 l 64 611 q 58 642 64 642 q 53 674 53 642 l 58 844 l 54 931 l 56 956 q 47 1003 56 964 q 39 1057 39 1042 q 142 1128 39 1072 q 275 1183 244 1183 q 328 1157 328 1168 q 303 1131 318 1147 q 265 1063 289 1114 q 242 963 242 1013 q 257 914 257 922 q 247 886 257 906 q 238 856 238 867 l 238 682 q 250 631 250 651 q 242 601 250 610 q 233 526 233 593 q 240 453 233 458 q 246 407 246 449 z "},"\\":{"ha":513,"x_min":-11,"x_max":572,"o":"m 228 347 l 233 374 q 206 421 233 406 q 118 753 118 688 l 118 760 q 121 767 118 764 q 89 815 119 810 q 81 856 81 838 l 81 863 q 88 875 82 869 q 89 898 89 886 q 85 914 89 910 q 51 942 71 931 q 18 1060 47 974 q -11 1151 -11 1146 l -11 1153 q 42 1174 -7 1164 q 110 1185 92 1185 q 133 1183 128 1185 l 204 1147 q 226 1126 228 1133 q 247 1024 247 1068 l 244 988 q 260 937 244 960 q 275 911 275 914 q 329 701 308 733 q 334 684 335 693 q 324 664 333 675 q 314 647 315 653 l 314 646 q 357 599 314 633 q 400 404 383 529 q 416 360 404 372 q 451 266 428 347 q 474 163 474 185 l 474 158 q 547 -53 474 129 l 572 -115 q 531 -135 571 -125 q 476 -146 490 -146 l 475 -146 q 379 -110 429 -139 q 331 -75 329 -82 l 332 -64 q 315 9 332 -39 q 297 65 297 57 l 297 68 q 315 100 313 88 q 283 133 313 129 q 265 181 276 136 q 253 239 253 225 l 253 244 q 240 291 253 247 q 228 344 228 335 l 228 347 z "},"]":{"ha":328,"x_min":0,"x_max":300,"o":"m 83 649 l 89 822 l 89 831 q 124 885 124 860 q 103 902 124 899 q 82 907 82 906 q 83 994 83 932 q 72 1076 83 1057 q 45 1109 60 1094 q 22 1131 31 1124 q 14 1140 14 1139 q 44 1166 14 1149 q 92 1183 74 1183 q 206 1129 111 1183 q 300 1058 300 1075 l 286 922 q 283 882 283 915 l 288 735 q 276 700 288 700 l 256 704 q 240 674 240 704 l 240 672 q 265 640 240 665 q 271 597 271 635 l 264 438 q 269 408 264 408 q 275 374 275 408 l 269 203 l 274 121 l 272 96 q 281 49 272 88 q 289 -6 289 10 q 186 -77 289 -21 q 53 -133 83 -133 q 0 -106 0 -118 q 24 -79 10 -96 q 63 -12 39 -62 q 86 89 86 39 q 71 136 71 128 q 81 165 71 144 q 92 196 92 186 l 92 369 q 78 422 78 403 q 86 449 78 440 q 94 523 94 457 q 89 596 94 589 q 83 649 83 603 z "},"^":{"ha":493,"x_min":28,"x_max":465,"o":"m 119 471 l 114 499 q 149 539 139 539 l 178 539 q 222 535 219 539 q 250 514 247 514 q 285 535 253 514 q 319 542 289 542 q 353 538 349 542 q 381 498 358 533 q 403 457 403 463 q 399 428 399 442 q 428 414 399 414 q 465 362 465 367 q 463 354 465 357 q 456 349 460 351 q 444 338 451 346 q 420 323 436 331 q 388 313 404 315 q 356 318 356 313 l 303 381 q 279 392 279 385 q 267 430 279 410 q 246 450 254 450 q 208 411 239 450 l 197 397 q 189 369 197 375 q 141 342 167 369 q 114 314 115 314 q 70 324 92 314 q 38 344 49 335 q 28 357 28 354 l 56 400 q 82 450 82 443 q 119 471 119 458 z "},"_":{"ha":761,"x_min":7,"x_max":754,"o":"m 646 21 l 743 13 q 754 -40 754 -7 q 739 -78 754 -44 q 724 -131 724 -111 q 693 -136 704 -136 q 679 -133 682 -136 q 647 -123 672 -122 q 615 -131 622 -124 q 599 -139 608 -139 q 565 -133 589 -139 q 540 -126 542 -126 l 336 -122 q 296 -144 314 -144 l 279 -139 q 169 -126 269 -126 q 61 -131 69 -126 q 30 -135 53 -135 q 7 -129 7 -135 q 26 -10 7 -57 l 33 7 q 107 18 44 18 l 113 18 q 317 11 306 11 l 382 29 l 417 21 q 519 10 428 10 q 615 15 610 10 q 646 21 621 21 z "},"`":{"ha":644,"x_min":201,"x_max":475,"o":"m 276 932 l 257 931 l 256 931 q 228 960 256 932 q 201 990 201 988 q 244 1018 201 997 q 308 1039 286 1039 q 388 1021 385 1024 q 475 868 449 894 l 475 867 q 441 840 475 851 q 382 829 407 829 q 337 860 375 829 q 293 892 299 892 q 292 899 292 892 l 292 913 q 288 928 292 925 q 276 932 285 932 z "},"a":{"ha":644,"x_min":7,"x_max":624,"o":"m 360 293 l 364 363 q 361 372 364 372 q 299 350 343 372 q 256 311 256 328 q 267 283 267 293 q 263 268 267 272 q 246 247 246 261 q 265 213 246 232 q 296 194 283 194 q 339 219 308 194 q 369 254 369 243 l 368 257 q 360 293 360 265 m 588 353 l 594 247 q 592 235 594 235 q 546 169 546 207 q 567 150 546 158 l 588 142 l 599 68 l 624 22 q 611 11 624 19 q 556 -15 575 -15 q 483 -39 524 -15 l 471 -46 l 468 -46 q 379 -21 446 -46 l 357 -12 q 354 0 354 -10 l 358 65 l 358 71 l 340 76 q 325 61 336 76 q 238 -8 307 38 l 214 -24 q 134 1 174 -24 q 74 49 94 26 q 53 75 53 72 q 58 82 53 78 q 72 108 72 94 q 22 146 72 133 l 7 150 q 19 271 7 213 q 42 356 31 329 l 54 383 q 160 453 71 406 q 304 500 249 500 q 319 491 308 500 q 337 482 329 482 q 356 489 344 482 q 379 510 379 501 q 360 564 379 531 q 261 588 344 579 l 233 590 q 156 570 206 590 q 103 550 106 550 q 89 567 100 550 q 78 591 78 583 q 103 648 78 599 q 139 704 129 697 q 242 738 156 714 q 365 761 328 761 q 473 710 426 721 q 563 669 519 700 q 606 607 606 638 q 592 578 606 604 q 579 535 579 551 q 586 506 579 518 l 594 493 q 590 414 594 424 q 575 381 575 383 l 588 361 l 588 353 z "},"b":{"ha":626,"x_min":28,"x_max":604,"o":"m 286 213 l 281 154 q 283 146 281 146 q 357 183 321 146 q 372 267 369 196 l 372 292 q 358 332 358 304 l 360 344 q 374 355 360 346 q 389 381 389 364 q 361 417 389 397 q 363 431 363 419 l 358 504 l 358 508 l 368 539 l 368 540 l 363 547 q 325 533 343 547 q 290 501 301 518 q 279 442 279 483 l 283 343 q 282 332 283 343 q 289 283 289 292 q 276 264 289 275 q 264 247 264 253 q 275 228 264 240 q 286 213 286 215 m 599 443 l 596 326 q 600 281 596 285 q 604 258 604 276 q 583 189 604 239 q 549 139 561 139 q 539 128 543 139 q 499 63 522 86 q 422 6 476 40 q 356 -28 368 -28 q 274 11 326 -28 l 256 24 q 251 25 254 25 q 213 0 247 25 q 171 -25 178 -25 q 86 43 144 -25 q 28 126 28 111 q 32 136 28 128 q 64 214 47 168 q 69 314 69 231 l 65 499 q 57 519 65 506 q 49 540 49 533 l 68 563 q 75 613 75 569 l 67 778 q 69 794 67 794 q 92 811 79 794 q 106 843 106 828 q 67 869 106 858 l 54 1010 l 54 1015 q 104 1049 58 1022 q 164 1076 150 1076 q 267 1051 203 1076 q 332 1015 332 1026 q 300 785 300 890 q 306 742 306 760 q 300 718 306 724 q 244 651 243 682 q 254 621 244 621 q 276 638 258 621 q 353 695 293 656 q 440 735 414 735 q 522 663 467 735 q 578 556 578 590 q 540 489 540 524 q 563 476 540 476 l 593 479 l 594 479 q 599 443 599 472 z "},"c":{"ha":583,"x_min":7,"x_max":563,"o":"m 256 526 l 249 446 q 264 393 249 408 q 265 388 265 392 q 251 368 265 385 q 236 349 236 351 q 246 321 239 328 q 264 308 253 314 q 294 288 294 294 q 288 252 294 271 q 282 227 282 233 q 290 208 282 221 q 308 196 299 196 q 350 218 335 204 q 437 210 388 210 q 510 231 486 210 q 549 244 531 244 q 563 190 563 206 q 549 136 549 143 q 511 74 549 129 q 454 0 474 19 q 339 -15 443 -7 l 303 -18 l 265 -37 q 151 19 228 -37 q 74 89 74 75 l 88 100 q 101 121 101 111 q 96 139 101 131 q 87 147 90 147 q 80 144 83 147 q 65 140 76 140 l 32 149 q 19 248 32 176 q 7 374 7 319 q 30 463 7 386 q 65 551 53 539 q 67 553 67 551 l 54 585 q 110 649 54 593 q 186 704 167 704 l 199 704 q 222 708 218 704 q 347 754 321 754 q 449 735 374 754 q 525 707 525 717 q 521 612 521 646 q 524 569 521 578 q 563 512 563 517 q 536 487 563 507 q 474 447 510 467 q 418 428 439 428 q 329 472 329 460 q 368 590 332 567 q 344 615 353 615 q 288 592 292 596 q 251 542 251 554 l 256 526 z "},"d":{"ha":639,"x_min":7,"x_max":625,"o":"m 350 468 l 349 561 q 350 593 349 586 l 350 594 q 343 599 350 599 q 313 585 336 599 q 284 566 289 571 q 274 532 279 561 q 269 487 269 503 q 271 467 269 471 l 271 464 q 255 440 271 458 q 239 401 239 421 q 249 372 239 382 q 258 354 258 363 q 253 299 253 326 q 263 263 253 272 q 301 239 290 239 q 333 276 313 239 q 354 324 354 313 q 340 347 354 335 q 325 363 325 358 l 343 410 q 350 468 350 417 m 615 -11 q 609 -14 615 -11 q 590 -24 604 -17 q 567 -40 575 -32 q 503 -65 550 -57 l 486 -68 l 388 -49 q 340 17 361 -22 l 333 31 q 354 103 346 60 l 357 118 q 344 122 353 122 q 301 99 328 122 q 289 67 297 94 q 257 -14 265 -14 q 124 -1 157 -14 q 51 79 110 4 l 32 104 l 15 183 l 33 196 q 50 217 50 208 q 14 251 50 232 q 7 307 7 258 l 8 363 l 28 375 q 46 399 46 388 q 32 424 46 410 q 18 444 18 439 q 38 538 18 468 q 61 610 57 607 q 115 648 65 614 q 174 692 164 682 q 343 732 214 732 q 350 792 350 732 q 342 885 350 851 q 358 917 358 893 q 324 1024 324 1015 q 392 1072 324 1033 q 486 1110 461 1110 q 611 1097 611 1110 q 592 951 592 994 q 546 905 546 929 q 574 881 546 881 q 585 879 583 881 q 586 865 586 878 q 575 779 586 853 q 564 679 564 706 q 581 664 581 671 q 572 498 572 590 q 579 340 572 406 q 528 276 528 299 q 565 246 539 246 q 604 44 572 75 q 625 0 625 6 q 615 -11 625 -6 z "},"e":{"ha":607,"x_min":7,"x_max":586,"o":"m 339 540 q 336 559 336 543 q 349 607 336 575 q 329 618 349 618 l 307 615 q 263 556 283 604 q 267 503 267 529 q 260 471 267 478 q 265 454 261 464 q 288 428 268 444 q 338 411 307 411 q 349 429 347 411 q 351 471 350 447 q 359 501 353 494 q 365 513 365 507 q 339 540 365 525 m 575 214 l 586 106 q 583 89 586 97 q 552 50 579 81 q 522 8 525 19 q 473 -22 518 -4 q 413 -39 428 -39 q 397 -36 399 -39 q 389 -21 394 -33 q 365 11 378 11 q 331 -10 349 11 q 313 -31 314 -31 q 164 -3 232 -31 q 139 14 139 7 q 58 101 139 31 l 31 125 q 13 214 19 135 q 7 345 7 293 q 8 399 7 397 q 26 409 10 400 q 49 424 43 418 q 54 439 54 429 l 51 456 q 24 485 24 483 q 54 563 24 497 q 107 651 85 629 q 344 747 272 747 q 510 728 492 746 q 575 556 575 638 q 533 532 542 540 q 524 506 524 524 q 540 488 524 488 l 571 493 q 575 490 575 493 q 510 313 575 378 q 419 278 492 294 q 326 263 346 263 q 296 285 321 263 q 269 307 271 307 q 254 293 267 307 q 242 269 242 279 q 294 172 264 203 q 344 161 306 161 q 517 217 461 161 q 540 239 533 239 q 560 233 546 239 q 575 221 575 226 l 575 214 z "},"f":{"ha":546,"x_min":0,"x_max":546,"o":"m 419 539 l 368 542 q 331 524 331 542 q 326 312 326 438 q 342 153 326 186 l 342 151 q 318 127 342 147 q 294 97 294 107 q 319 72 294 78 q 343 64 343 65 l 343 40 q 356 -99 343 -75 l 356 -101 q 293 -160 356 -118 q 203 -203 231 -203 q 138 -196 176 -203 q 46 -169 46 -179 l 60 -129 q 97 -85 86 -129 q 65 -50 97 -68 q 77 19 65 -32 q 89 103 89 71 q 81 195 89 136 q 74 259 74 254 q 75 264 74 264 q 100 322 100 264 l 89 468 q 93 491 89 488 q 114 497 97 494 q 158 539 158 504 q 108 550 158 550 l 18 544 q 2 542 4 542 q 0 554 0 542 q 21 625 0 567 q 49 692 42 683 l 99 710 q 103 731 103 714 q 101 768 103 749 q 98 806 100 788 q 94 842 96 825 l 89 881 q 109 937 89 896 q 157 1005 129 978 q 231 1056 185 1032 q 289 1079 278 1079 l 333 1065 q 431 1085 411 1085 q 476 1076 450 1085 q 517 1058 503 1068 q 531 1044 531 1049 q 517 944 517 960 q 524 902 517 928 q 538 854 531 876 q 546 829 546 832 q 528 819 546 826 q 428 797 476 797 q 351 843 351 825 q 363 932 361 926 l 363 933 q 356 942 363 938 q 344 946 350 946 q 312 924 338 946 q 285 888 286 901 q 285 853 285 874 q 310 743 285 768 q 352 713 335 718 q 413 708 369 708 q 472 718 460 713 l 475 718 q 495 699 483 718 q 507 669 507 679 q 477 608 507 658 q 428 540 447 557 q 419 539 426 539 z "},"g":{"ha":639,"x_min":7,"x_max":632,"o":"m 240 372 l 235 342 q 245 327 235 338 q 254 317 256 317 q 253 267 253 294 q 257 232 253 239 q 290 210 281 210 q 323 230 299 210 q 347 253 347 250 l 339 278 q 329 329 329 301 q 343 343 329 332 q 357 358 357 354 q 346 396 357 374 l 346 397 q 350 431 350 410 l 346 518 l 346 524 q 354 553 354 544 q 338 574 354 563 q 292 551 318 574 q 262 526 267 529 q 257 485 257 522 l 263 413 q 260 393 263 396 q 240 372 244 378 m 590 90 l 589 51 l 589 47 q 572 29 589 46 q 554 -4 554 13 q 572 -22 554 -10 q 589 -36 589 -33 q 565 -208 589 -137 q 551 -236 557 -233 q 497 -283 539 -244 l 483 -297 q 394 -361 463 -329 l 371 -371 q 356 -352 368 -371 q 339 -333 344 -333 l 313 -343 q 292 -386 303 -353 q 232 -394 285 -393 q 156 -403 193 -397 q 106 -374 129 -403 q 78 -344 96 -357 q 47 -242 63 -329 l 43 -212 q 71 -164 43 -200 q 103 -124 99 -128 q 111 -121 108 -121 l 115 -122 q 180 -169 136 -146 q 244 -192 224 -192 q 309 -149 264 -192 q 354 -83 354 -106 l 343 29 q 363 59 343 38 q 382 88 382 81 q 365 113 382 96 q 307 69 346 111 q 258 3 268 26 q 192 -4 256 -4 l 171 -4 q 88 63 147 -4 q 29 161 29 129 q 46 192 46 176 q 26 226 46 207 q 13 270 19 233 q 7 324 7 307 q 22 450 7 364 l 26 478 q 29 479 26 479 l 33 479 q 57 488 49 479 l 76 517 q 61 540 76 524 q 46 560 46 556 q 110 639 46 572 q 193 706 175 706 q 283 724 226 706 q 372 742 340 742 q 389 712 376 742 q 421 682 401 682 q 441 703 428 682 q 458 725 454 725 q 513 743 467 725 q 574 761 558 761 q 610 749 589 761 q 632 729 632 736 l 632 728 q 591 628 608 692 q 574 524 574 564 q 594 497 594 506 l 594 496 q 581 362 589 471 q 574 219 574 253 q 575 185 574 186 q 590 90 590 169 z "},"h":{"ha":682,"x_min":28,"x_max":668,"o":"m 631 346 l 624 168 q 635 74 624 101 q 668 0 668 6 q 647 -15 668 -6 q 625 -38 625 -25 q 547 -51 625 -51 q 463 -42 468 -51 q 415 -3 458 -33 q 371 40 371 28 l 371 42 l 376 146 q 413 185 376 157 q 417 201 417 189 l 417 208 q 398 224 417 214 q 379 242 379 233 q 388 291 379 251 q 396 360 396 331 q 379 421 396 390 q 406 474 379 438 q 432 513 432 510 q 401 532 432 521 q 356 502 382 532 q 313 442 329 472 l 296 413 q 289 335 289 385 l 297 181 q 283 164 297 178 q 269 144 269 150 q 272 136 269 139 q 288 61 288 121 l 288 51 q 231 6 288 31 q 172 -22 175 -19 q 143 -25 169 -25 l 57 -21 q 28 -6 43 -21 q 49 75 28 11 l 56 97 q 58 136 58 108 l 54 317 q 56 353 54 350 q 72 364 58 356 q 99 392 99 379 l 90 414 q 57 435 86 424 l 65 608 l 47 757 l 63 776 q 64 788 64 778 l 60 860 l 63 888 q 50 960 63 906 q 38 1015 38 1014 q 92 1064 38 1026 q 168 1101 146 1101 q 248 1094 190 1101 q 306 1076 306 1086 l 292 944 l 292 936 q 264 904 264 911 q 269 892 264 897 q 282 882 275 886 q 300 869 300 871 q 283 794 292 847 q 275 729 275 742 l 275 621 q 294 611 288 611 q 349 703 322 611 q 453 733 424 733 q 547 712 528 721 q 603 660 567 703 q 640 599 640 618 l 640 567 q 644 454 640 471 l 644 453 q 628 446 644 450 q 608 439 611 442 q 586 397 586 407 q 626 381 586 383 q 631 346 631 376 z "},"i":{"ha":344,"x_min":29,"x_max":315,"o":"m 57 926 l 68 1003 q 65 1026 68 1010 l 65 1028 q 82 1052 65 1036 q 138 1084 99 1068 q 226 1100 178 1100 q 269 1082 269 1092 l 269 1081 q 263 1031 263 1053 q 267 1004 263 1008 q 283 996 271 1000 q 299 989 296 992 q 303 952 303 971 q 299 921 303 933 q 260 875 294 908 q 215 842 226 842 q 132 860 171 842 q 75 897 93 878 q 57 926 57 915 m 288 396 l 281 171 q 288 90 281 106 q 315 17 315 29 q 314 3 315 4 q 282 -8 313 1 q 172 -48 183 -43 q 142 -53 161 -53 q 76 -33 124 -53 q 29 -3 29 -14 l 49 165 q 67 179 49 169 q 85 199 85 189 q 66 222 85 208 q 47 239 47 236 l 47 240 q 56 329 56 272 l 46 494 q 56 508 46 497 q 65 540 65 519 q 49 603 65 561 q 33 657 33 646 q 96 704 33 665 q 183 743 158 743 q 313 724 313 738 q 297 628 313 697 q 281 535 281 560 q 283 489 281 511 q 246 435 246 465 q 285 419 263 419 q 288 396 288 419 z "},"j":{"ha":339,"x_min":-236,"x_max":318,"o":"m 318 1001 q 288 881 318 940 l 278 863 q 226 836 269 854 q 167 818 182 818 q 108 838 142 818 q 106 846 106 840 l 111 872 q 83 901 111 879 q 56 933 56 924 q 60 946 56 942 q 72 1025 72 960 l 72 1029 q 93 1054 72 1038 q 151 1087 114 1071 q 231 1102 188 1103 q 275 1094 275 1101 q 297 1022 275 1038 q 318 1001 318 1007 m 254 -247 l 221 -239 q 197 -267 197 -253 q 201 -294 197 -282 q 211 -310 206 -307 q 225 -322 225 -317 q 178 -387 225 -347 q 99 -428 132 -428 q -19 -449 69 -428 l -50 -456 q -122 -433 -78 -456 q -169 -399 -167 -410 q -201 -322 -178 -374 q -231 -265 -225 -271 q -236 -252 -236 -260 q -217 -210 -236 -244 q -187 -162 -199 -175 q -136 -140 -171 -143 q -94 -186 -122 -164 q -44 -208 -67 -208 q 17 -178 -22 -208 q 54 -137 56 -147 l 54 -126 l 60 51 q 51 105 60 99 q 43 114 43 111 l 43 115 l 47 189 q 62 202 47 197 q 82 213 76 207 q 88 228 88 218 q 83 243 88 239 q 69 253 79 247 q 44 272 44 265 q 50 367 50 307 l 50 439 q 49 461 50 449 q 56 468 49 463 q 63 476 63 474 q 39 617 63 536 l 32 644 q 73 686 32 657 q 124 715 114 715 q 193 724 175 718 l 196 724 q 262 711 215 724 q 308 692 308 699 q 294 597 308 685 q 279 424 279 510 q 301 371 301 393 q 288 355 301 367 q 275 333 275 343 q 286 314 275 324 q 297 293 297 304 q 283 254 283 282 l 283 229 q 297 -168 283 -136 l 297 -169 q 279 -214 297 -181 q 254 -247 261 -247 z "},"k":{"ha":681,"x_min":17,"x_max":681,"o":"m 560 238 l 594 243 l 599 242 q 617 156 601 239 q 638 68 632 74 q 681 10 681 18 q 670 -3 681 1 q 645 -15 660 -8 q 623 -28 631 -21 q 578 -47 615 -36 q 529 -57 542 -57 q 456 -37 517 -57 q 394 -10 394 -18 l 385 71 l 400 86 q 417 121 417 103 q 375 138 417 129 q 356 278 363 150 l 354 319 q 367 340 354 322 q 379 371 379 358 q 347 397 379 392 q 306 357 340 397 q 288 261 288 339 l 290 197 q 276 178 290 190 q 263 154 263 165 q 293 118 263 143 q 292 106 292 115 l 299 31 q 289 22 299 26 q 231 -14 257 6 q 171 -33 204 -33 q 126 -31 138 -33 q 89 -25 115 -28 q 17 -7 17 -18 l 43 67 l 56 249 q 75 260 56 253 q 94 278 94 268 q 46 319 94 297 q 43 356 43 322 l 49 513 l 57 522 q 60 553 60 525 l 50 774 q 51 788 50 786 q 83 811 83 803 l 83 813 l 85 821 q 68 835 85 835 q 54 858 57 835 q 49 928 51 882 q 39 1008 47 975 l 39 1010 q 103 1058 39 1022 q 185 1094 168 1094 q 311 1075 311 1094 q 289 901 289 958 q 267 879 289 897 q 246 854 246 861 q 252 841 246 847 q 268 831 258 835 q 283 825 278 826 q 289 821 289 824 q 276 560 276 739 q 303 538 293 538 q 368 606 318 538 q 418 708 418 675 q 481 735 418 715 q 558 754 544 754 q 653 744 653 751 q 646 685 653 690 q 596 656 601 661 q 451 507 451 525 q 511 480 451 504 q 571 433 571 456 l 571 432 q 568 394 568 418 l 575 322 q 554 279 575 299 q 547 247 547 269 q 560 238 547 238 z "},"l":{"ha":356,"x_min":29,"x_max":335,"o":"m 293 661 l 281 494 q 288 299 281 406 q 296 187 296 192 q 285 169 296 182 q 275 145 275 157 q 305 83 275 133 q 335 15 335 33 q 319 6 335 13 q 271 -22 276 -12 q 211 -50 260 -40 l 194 -54 q 99 -35 167 -54 q 31 -10 31 -17 l 40 83 q 47 94 40 85 q 65 142 65 124 q 53 164 65 143 q 40 195 40 185 q 42 208 40 206 q 56 216 44 211 q 71 224 68 221 q 82 254 82 246 q 33 286 82 267 q 38 343 38 303 l 35 418 q 51 438 35 424 q 53 476 53 439 l 47 733 q 65 753 47 739 q 83 788 83 768 q 63 804 83 797 q 43 814 43 811 q 36 946 43 894 q 29 1003 29 997 q 35 1016 29 1010 q 107 1054 42 1022 q 202 1086 172 1086 q 274 1080 232 1086 q 315 1065 315 1074 l 285 975 l 283 954 l 293 760 q 292 742 293 743 q 253 692 253 710 q 273 668 253 674 q 293 661 293 663 z "},"m":{"ha":1024,"x_min":21,"x_max":1003,"o":"m 975 472 l 976 433 q 959 408 976 425 q 942 386 942 392 q 945 363 942 367 q 956 357 949 360 q 972 349 972 350 q 967 213 972 297 q 963 117 963 129 q 983 60 963 106 l 1003 14 q 987 1 1003 10 q 958 -19 971 -7 q 915 -42 946 -32 q 861 -53 883 -51 l 838 -56 q 760 -27 813 -56 q 708 10 708 1 l 721 106 l 740 117 q 760 137 760 128 q 753 151 760 146 q 740 161 747 157 q 722 175 722 172 q 731 299 731 233 q 728 367 731 364 q 719 386 719 375 q 747 444 719 408 l 756 456 q 724 483 756 472 q 663 431 693 483 q 632 363 632 379 l 640 340 q 619 283 640 314 q 618 269 618 281 q 632 242 618 258 q 626 165 626 208 q 636 35 626 122 l 636 33 q 622 25 636 29 q 567 1 575 10 q 508 -22 550 -15 l 494 -24 q 423 -10 460 -24 q 386 13 386 3 l 386 14 q 396 188 396 56 l 396 203 q 383 235 396 222 q 402 263 383 249 q 421 287 421 276 q 403 314 421 297 q 385 333 385 331 q 403 413 385 367 q 422 463 422 458 q 416 474 422 468 q 397 481 410 481 q 344 461 375 481 q 306 386 333 449 q 278 303 278 324 q 296 250 278 271 q 297 244 297 249 l 286 215 q 282 179 282 211 l 293 8 q 232 -33 293 0 q 158 -65 171 -65 q 50 -40 111 -62 l 32 -33 l 44 56 l 61 61 q 76 79 76 65 q 58 110 76 93 q 39 129 39 126 l 43 146 q 56 254 56 196 l 47 510 q 49 528 47 526 q 60 536 57 533 q 67 563 67 540 q 57 616 67 586 q 34 659 47 646 q 21 715 21 672 q 65 745 21 724 q 122 767 108 767 q 258 725 232 751 q 274 665 274 674 q 263 626 274 656 q 251 588 251 596 q 263 567 251 579 q 286 556 274 556 q 325 633 315 624 q 401 677 335 643 q 485 711 468 711 q 538 690 501 711 q 589 654 574 669 q 617 597 617 610 q 628 593 624 593 q 637 597 633 593 q 658 640 640 600 q 678 682 676 681 q 756 724 693 697 q 843 750 818 750 q 915 719 906 729 q 988 597 988 613 l 988 596 q 975 503 975 585 l 975 472 z "},"n":{"ha":682,"x_min":21,"x_max":661,"o":"m 411 514 q 378 538 411 524 q 317 479 358 538 q 276 388 276 421 l 286 322 q 297 272 297 290 l 292 251 q 264 174 264 224 l 264 172 q 275 161 264 169 q 286 151 286 153 q 281 103 281 146 q 285 35 281 61 q 289 3 289 8 q 283 -1 289 -1 q 227 -26 278 -1 q 156 -50 176 -50 q 60 -31 110 -50 l 32 -24 q 38 41 32 1 q 50 88 44 81 q 57 113 57 94 q 50 199 57 131 q 43 317 43 268 l 69 338 q 76 357 76 344 l 75 369 q 58 381 72 372 q 44 393 44 389 l 47 411 q 54 510 54 456 q 29 669 54 599 l 21 693 q 88 738 21 704 q 174 771 156 771 q 229 756 192 771 q 267 735 267 740 q 254 600 254 635 q 272 592 268 592 q 276 594 276 592 q 353 713 332 692 q 492 742 426 742 q 566 693 511 742 q 619 632 621 644 q 611 468 611 590 q 572 442 582 453 q 568 417 568 426 q 572 408 568 408 q 614 396 614 404 q 607 285 607 317 q 610 251 607 254 q 625 210 625 228 q 606 167 606 189 q 619 101 606 146 q 647 22 633 56 q 661 -15 661 -11 q 635 -33 661 -18 q 570 -63 610 -49 q 508 -78 531 -78 q 444 -67 485 -78 q 397 -50 404 -57 q 385 36 389 -42 l 383 61 l 415 88 q 419 101 419 92 l 417 121 q 393 133 408 129 q 378 139 378 136 l 386 271 q 394 297 386 281 q 401 320 401 314 q 387 356 401 326 q 372 397 372 386 q 401 490 372 419 l 411 514 z "},"o":{"ha":638,"x_min":7,"x_max":617,"o":"m 81 569 l 71 592 q 135 660 71 601 q 217 726 200 719 q 360 749 322 749 q 397 733 364 749 q 438 716 431 718 q 464 690 444 714 q 483 660 483 665 q 471 621 476 621 q 354 600 383 617 q 299 548 340 593 q 247 478 258 503 q 235 324 235 454 q 275 283 275 306 q 260 209 260 218 q 271 176 260 200 q 293 142 282 153 q 327 131 314 131 q 344 135 340 131 q 378 249 378 168 q 375 286 378 267 q 350 339 350 310 q 363 355 350 343 q 375 381 375 367 q 364 411 375 394 q 342 437 353 428 q 331 449 331 446 q 374 515 331 467 q 436 564 418 564 l 456 564 q 574 549 574 564 q 567 506 567 511 q 592 453 567 500 q 617 363 617 406 q 581 320 581 333 q 594 294 581 307 q 608 281 608 282 q 597 224 608 268 q 586 157 586 181 q 519 67 586 133 q 435 6 456 6 l 433 6 q 411 11 426 11 l 396 10 q 365 -18 375 10 q 356 -35 361 -31 q 322 -40 351 -40 l 204 -31 q 126 17 169 -21 q 82 64 82 54 q 96 83 82 65 q 110 108 110 100 q 92 135 110 122 l 43 128 q 28 164 36 128 q 7 378 7 242 q 39 478 7 397 q 81 568 71 558 l 81 569 z "},"p":{"ha":656,"x_min":3,"x_max":649,"o":"m 362 526 q 359 526 362 526 q 327 491 356 526 q 292 444 299 456 q 286 358 286 432 l 286 326 q 299 308 286 319 q 313 292 313 297 q 285 249 313 276 q 279 186 279 243 q 285 129 279 129 q 325 141 304 129 q 358 165 346 153 l 369 178 q 385 212 376 185 q 393 249 393 239 l 378 314 q 388 341 378 319 q 399 377 399 363 q 386 402 399 392 q 374 421 374 413 l 394 506 q 381 519 394 513 q 362 526 368 526 m 82 389 q 44 431 82 410 q 47 501 47 454 q 24 674 47 624 l 24 675 q 66 720 24 685 q 126 763 108 756 q 206 771 144 771 q 267 760 267 771 l 267 758 q 253 610 253 713 q 272 594 265 594 q 400 731 374 731 q 488 722 435 731 q 561 692 542 713 q 560 663 561 672 q 649 471 649 531 q 621 264 621 371 q 594 251 621 258 q 567 236 567 244 q 583 201 567 218 q 599 181 599 185 q 586 156 599 176 q 496 36 547 88 q 383 -15 474 15 q 288 -49 292 -44 q 285 -90 285 -53 l 286 -137 q 249 -165 286 -142 q 238 -187 238 -176 q 242 -206 238 -199 q 249 -212 246 -212 q 286 -218 286 -212 q 299 -321 286 -289 q 258 -381 299 -333 l 246 -397 q 222 -410 240 -403 q 175 -437 175 -428 q 135 -442 175 -442 q 49 -437 96 -442 q 3 -424 3 -432 q 24 -347 3 -399 q 44 -292 44 -296 q 33 -279 44 -289 q 22 -264 22 -269 l 22 -261 q 46 -28 46 -207 l 46 38 q 47 65 46 64 q 65 110 65 72 q 54 215 65 118 q 43 351 43 313 q 63 365 43 353 q 82 389 82 378 z "},"q":{"ha":701,"x_min":7,"x_max":681,"o":"m 257 513 l 267 389 q 254 377 267 388 q 242 363 242 367 q 260 253 242 296 q 300 210 278 210 q 328 227 307 210 q 349 257 349 244 l 336 322 q 349 349 336 329 q 361 386 361 369 q 336 447 361 403 q 358 528 336 474 l 365 546 q 351 565 365 553 q 331 576 338 576 q 291 549 325 576 q 257 513 257 522 m 588 -85 q 587 -91 588 -85 q 583 -127 586 -97 q 581 -202 581 -157 q 599 -314 581 -247 q 548 -376 599 -328 q 486 -428 497 -424 q 408 -432 475 -432 q 336 -426 342 -432 q 326 -405 331 -421 q 321 -382 321 -389 q 322 -374 321 -375 q 344 -233 344 -351 l 342 -146 q 301 -101 342 -133 q 261 -67 261 -69 q 336 29 261 -49 l 363 56 q 335 76 363 68 q 233 8 290 76 q 207 -14 214 -14 q 103 8 142 -14 q 56 70 79 32 q 32 136 32 108 l 44 151 q 56 177 56 167 q 45 193 56 188 q 11 208 35 199 l 7 281 q 22 442 7 369 q 76 576 53 576 l 99 575 q 114 579 110 575 l 126 603 q 118 625 126 614 l 110 638 q 151 678 110 643 q 201 713 192 713 q 260 722 210 713 q 336 732 310 732 q 374 721 363 732 q 418 668 397 668 q 435 684 428 668 q 442 713 442 700 q 453 719 442 715 q 506 744 494 732 q 573 756 517 756 q 635 750 629 756 q 643 719 643 731 q 622 668 643 707 q 601 618 601 629 l 601 596 q 596 556 601 556 q 556 535 575 554 q 550 513 550 524 q 554 499 550 503 q 567 492 558 494 q 590 481 590 486 q 585 295 585 361 q 589 225 585 229 q 624 235 613 235 l 628 233 q 663 178 644 217 q 681 126 681 139 q 675 111 681 114 q 643 94 651 103 q 564 10 604 57 q 523 -47 524 -36 q 522 -73 522 -58 q 529 -87 522 -87 q 576 -64 561 -64 q 590 -71 590 -64 q 588 -85 590 -72 z "},"r":{"ha":551,"x_min":17,"x_max":544,"o":"m 183 788 l 225 783 q 250 788 238 783 q 274 747 274 758 q 260 631 260 697 q 282 606 264 606 q 410 751 381 751 q 526 699 479 747 q 544 586 544 643 q 529 483 538 490 q 496 476 506 476 l 493 476 q 411 510 443 510 q 321 457 379 510 q 263 383 263 404 q 278 347 264 347 q 300 351 289 351 q 311 343 311 351 q 304 195 304 249 q 308 132 304 142 q 299 100 299 108 q 312 63 299 92 q 325 25 325 33 q 259 -22 325 13 q 169 -57 193 -57 q 86 -52 144 -57 q 28 -36 28 -47 q 37 13 28 -33 q 46 97 46 58 l 61 107 q 76 134 76 117 q 39 172 76 151 q 53 346 46 201 l 54 392 l 33 485 q 43 495 33 486 q 53 522 53 504 q 35 603 53 540 q 17 682 17 665 q 21 701 17 699 q 38 710 25 704 q 58 722 50 717 q 84 741 67 728 q 114 764 101 754 q 183 788 150 788 z "},"s":{"ha":600,"x_min":14,"x_max":586,"o":"m 279 307 l 281 332 q 275 343 281 343 q 224 331 239 343 q 204 318 208 318 q 181 321 200 318 q 161 326 161 324 l 157 342 q 101 352 147 351 q 47 360 54 353 q 25 432 25 381 q 43 560 25 483 q 74 650 61 636 q 153 690 88 664 q 219 718 218 717 q 243 747 236 740 q 383 769 324 769 q 465 764 458 764 q 486 739 469 764 q 532 624 532 667 q 515 594 532 617 q 493 571 497 571 l 481 581 q 389 606 442 606 q 309 572 364 606 q 254 508 254 538 q 275 474 261 474 q 340 508 322 508 q 410 493 357 508 q 472 469 464 478 q 586 320 586 356 q 569 215 586 285 q 543 144 551 144 l 542 144 q 490 124 510 144 q 485 109 485 118 q 497 88 485 100 q 508 74 508 75 q 430 6 506 50 q 307 -37 354 -37 q 292 -26 301 -37 q 270 -15 283 -15 q 239 -28 257 -15 l 221 -39 q 113 -19 161 -39 q 53 17 65 1 q 26 57 38 31 q 14 97 14 83 l 28 114 q 71 204 71 163 q 89 218 71 208 q 110 228 107 228 q 128 213 114 228 q 214 165 168 165 q 241 172 226 165 q 267 178 256 178 q 324 197 299 178 q 353 263 347 221 q 325 289 353 276 q 281 301 297 301 q 279 307 279 301 z "},"t":{"ha":454,"x_min":3,"x_max":451,"o":"m 331 471 l 326 331 q 331 269 326 285 q 310 249 331 265 q 289 224 289 232 l 289 215 q 300 196 289 196 q 333 206 325 206 q 340 203 340 206 q 364 86 347 103 q 410 32 410 56 q 385 4 410 26 q 344 -26 360 -18 q 238 -53 314 -42 l 211 -56 q 176 -40 207 -56 q 134 -24 146 -24 q 98 3 122 -24 q 74 43 74 31 l 74 46 q 90 258 90 76 l 90 281 q 105 294 90 283 q 119 318 119 306 q 111 336 119 331 q 94 346 103 342 q 86 353 86 350 q 96 462 96 392 q 93 535 96 532 q 77 538 90 538 q 57 535 64 538 q 47 531 50 533 q 42 528 43 529 q 35 526 40 526 q 16 539 29 526 q 3 556 3 551 q 24 635 3 572 q 49 701 44 697 q 64 706 53 706 l 92 704 q 103 707 100 704 q 106 744 106 710 q 89 881 106 819 l 82 901 q 144 956 82 915 q 232 996 206 996 q 339 985 331 993 q 340 976 340 983 l 314 783 q 324 718 315 726 q 354 713 333 713 q 419 742 375 713 q 438 722 425 742 q 451 692 451 703 q 426 631 451 681 q 371 553 401 582 q 351 551 369 551 l 317 551 q 275 543 275 551 q 287 508 275 518 q 313 499 299 499 q 328 497 326 499 q 331 471 331 494 z "},"u":{"ha":676,"x_min":29,"x_max":656,"o":"m 622 517 l 618 411 q 625 340 618 364 l 625 339 q 605 321 625 336 q 585 291 585 306 q 602 267 585 276 q 619 253 619 258 l 619 210 q 626 85 619 108 q 656 -4 656 17 q 642 -12 656 -8 q 585 -37 594 -28 q 553 -58 575 -47 q 513 -68 532 -68 q 460 -51 493 -68 q 408 -17 426 -35 q 389 7 389 0 q 406 49 389 14 q 422 89 422 83 q 396 99 422 99 l 393 99 q 332 31 369 99 l 319 7 q 262 -17 315 -6 q 189 -28 208 -28 q 168 -26 169 -28 q 110 6 150 -3 l 96 8 q 69 38 90 8 q 36 90 49 68 q 31 224 31 101 q 47 239 31 225 q 64 265 64 253 q 47 288 64 276 q 29 303 29 299 l 29 306 q 42 399 42 331 l 36 499 l 54 524 q 31 653 31 633 q 88 697 31 661 q 165 733 144 733 q 293 710 293 726 q 276 519 276 568 q 278 463 276 471 q 258 442 278 460 q 238 415 238 425 l 236 404 q 239 396 236 399 l 257 390 q 275 372 275 385 l 275 367 q 274 335 274 358 l 274 294 q 260 228 274 240 q 292 196 276 196 q 344 236 308 196 q 379 297 379 276 l 379 314 l 381 388 q 375 432 381 426 q 360 459 360 449 q 372 487 360 469 q 385 513 385 504 l 385 551 q 381 693 385 669 l 381 694 q 403 713 381 703 q 435 733 425 722 q 478 759 444 743 q 528 775 511 775 q 636 731 636 760 q 631 717 636 729 q 618 666 625 706 q 611 588 611 626 q 617 544 611 550 q 622 517 622 539 z "},"v":{"ha":731,"x_min":7,"x_max":728,"o":"m 439 606 l 435 718 q 439 750 435 746 q 508 790 453 763 q 592 818 564 818 q 728 800 728 810 q 671 647 681 647 q 625 601 625 629 q 637 581 625 593 q 649 560 649 568 q 622 481 649 553 q 596 388 596 410 q 577 298 596 365 q 558 208 558 231 q 538 194 558 206 q 517 171 517 183 q 522 153 517 158 q 534 147 526 149 q 548 143 542 144 q 554 140 554 142 q 511 40 554 122 l 497 14 q 442 -16 485 1 q 361 -44 399 -33 l 324 -54 q 313 -47 321 -54 q 290 -39 304 -39 l 260 -50 q 224 -31 253 -43 q 146 13 146 6 l 118 185 q 101 238 118 206 q 85 280 85 271 q 95 301 85 289 q 106 324 106 313 q 82 348 106 336 q 58 367 58 360 l 72 410 q 53 508 72 431 l 46 533 q 26 599 46 563 q 7 638 7 635 q 12 654 7 642 q 32 683 17 667 q 64 706 47 700 q 103 728 81 713 q 135 743 125 743 l 147 743 q 238 731 211 743 q 281 717 261 717 q 276 594 276 621 q 278 553 276 568 q 251 525 251 538 l 251 517 q 274 492 251 494 q 300 479 300 486 l 300 478 q 297 442 297 468 l 303 343 l 297 317 q 307 251 297 285 q 318 215 317 218 q 349 201 332 201 q 367 204 367 201 q 380 274 367 228 q 393 344 393 321 q 379 404 379 371 q 388 417 379 408 q 401 433 397 425 q 426 589 426 549 q 439 606 439 600 z "},"w":{"ha":1114,"x_min":3,"x_max":1111,"o":"m 272 701 l 265 597 q 283 553 265 564 q 292 535 292 549 q 283 510 292 521 q 274 488 274 500 q 299 288 288 300 q 325 275 317 275 q 358 360 333 275 q 382 455 382 446 q 400 474 382 464 q 418 496 418 483 q 406 514 418 508 q 394 521 394 519 q 404 565 397 547 q 413 629 406 622 q 563 697 526 697 q 636 688 581 697 q 696 669 692 679 q 703 592 697 667 q 714 513 708 518 q 733 481 733 497 q 707 435 707 449 q 717 410 707 421 q 726 396 726 399 q 742 258 726 274 q 778 244 768 244 q 791 288 783 244 q 801 332 799 332 q 833 355 833 338 q 824 383 833 372 q 815 396 815 393 q 843 576 843 521 q 851 587 843 578 q 858 607 858 596 q 844 724 844 711 q 903 763 844 736 q 986 789 963 789 q 1040 779 1010 789 q 1090 758 1069 769 q 1111 743 1111 747 q 1057 574 1057 629 q 1033 556 1057 569 q 1010 528 1010 542 q 1024 510 1010 524 q 1038 487 1038 497 q 1027 465 1038 476 q 1006 425 1017 453 q 978 315 996 397 q 942 107 942 142 q 918 81 942 101 q 884 55 894 61 q 865 30 874 49 q 847 11 856 11 q 764 -19 829 11 l 740 -29 q 628 -10 690 -29 q 565 13 565 10 l 557 90 q 569 100 557 93 q 581 114 581 107 l 568 140 l 543 149 q 532 222 539 151 q 519 299 525 293 l 517 299 q 492 290 501 299 q 451 178 482 281 q 421 40 421 75 q 371 8 421 24 l 354 4 q 336 -12 349 1 q 319 -25 324 -25 q 222 -15 265 -25 q 160 6 178 -4 q 142 21 142 17 q 122 97 142 36 q 103 161 103 157 q 117 175 103 165 q 132 192 132 185 q 110 216 132 208 q 84 227 88 224 q 64 331 81 231 q 44 439 47 431 q 30 452 40 447 q 19 464 19 457 l 39 517 q 21 572 39 540 q 3 624 3 604 q 51 675 3 628 q 104 728 100 722 q 144 740 108 733 q 190 747 179 747 q 269 717 253 733 q 272 701 272 714 z "},"x":{"ha":736,"x_min":26,"x_max":743,"o":"m 644 646 q 603 629 603 646 q 615 603 603 613 q 628 591 628 593 q 567 507 628 589 q 506 414 506 425 q 543 322 506 403 q 610 197 581 240 q 640 178 621 178 q 703 121 703 124 q 659 35 703 96 q 599 -25 615 -25 q 537 -32 557 -32 q 514 -29 517 -32 q 439 10 475 10 q 424 40 436 10 q 377 145 383 139 q 371 156 371 151 q 392 208 371 169 l 399 222 q 369 239 399 233 q 335 213 354 239 q 306 158 317 186 l 293 132 l 297 49 q 292 44 297 47 q 269 34 272 38 q 252 -18 265 31 q 237 -68 239 -67 q 181 -69 235 -69 q 117 -60 126 -69 q 83 -36 107 -50 q 53 -17 58 -22 q 31 42 43 -7 l 26 58 q 57 110 26 68 q 88 163 88 151 l 83 171 q 150 278 83 186 l 218 368 q 197 412 218 381 q 175 449 175 443 q 197 479 175 454 q 190 496 197 489 q 174 503 182 503 l 147 497 q 109 556 140 497 q 72 619 78 614 l 72 621 q 121 683 72 633 q 186 733 169 733 l 296 746 q 313 711 301 746 q 371 576 349 599 q 385 574 379 574 q 394 576 392 574 q 428 642 396 578 q 466 719 461 707 q 530 758 471 732 q 622 783 589 783 q 735 758 724 768 q 743 728 743 740 q 661 647 675 664 q 644 646 660 646 z "},"y":{"ha":715,"x_min":3,"x_max":713,"o":"m 428 601 l 425 622 q 426 629 425 626 q 449 642 428 632 q 469 660 469 651 q 462 679 469 668 q 454 693 454 690 q 471 746 467 742 q 619 789 576 789 q 713 729 713 764 q 688 696 713 725 q 658 652 678 688 q 638 608 638 617 l 646 590 q 621 558 646 575 q 596 533 596 542 q 603 519 603 521 q 583 481 603 518 q 524 358 524 368 q 513 345 524 349 q 490 340 501 342 q 468 328 478 338 q 458 308 458 318 q 475 289 458 299 q 492 275 492 279 q 473 235 492 256 q 454 193 454 215 l 454 158 q 469 -11 454 29 l 469 -14 q 442 -31 469 -21 q 406 -50 414 -42 q 373 -67 399 -58 q 328 -79 347 -76 l 308 -82 q 241 -57 286 -82 q 196 -21 196 -32 l 196 -19 q 208 97 206 3 l 208 128 q 219 136 208 132 q 238 157 238 143 l 233 179 q 213 194 222 190 q 196 206 196 201 q 146 381 196 264 l 129 419 q 110 435 124 428 q 93 446 96 443 q 90 458 90 451 l 94 488 q 25 596 94 513 q 3 625 3 624 q 39 696 3 649 q 89 743 75 743 q 113 738 92 743 q 151 733 135 733 l 236 738 q 251 735 249 738 q 264 635 263 638 q 272 631 265 633 q 279 625 278 628 q 299 565 283 603 q 315 522 315 526 q 304 506 306 511 q 332 426 332 440 q 347 424 340 424 q 357 426 354 424 q 428 601 418 533 z "},"z":{"ha":661,"x_min":7,"x_max":640,"o":"m 308 578 l 304 576 l 304 578 l 307 578 q 308 578 308 578 m 472 447 l 474 421 q 456 389 474 389 q 413 370 433 389 q 393 336 393 351 q 401 329 393 335 q 408 318 408 324 q 336 174 336 207 q 351 149 343 149 q 412 147 371 147 q 472 161 453 147 q 514 206 492 175 q 548 257 536 236 q 563 278 560 278 q 619 263 607 275 q 640 139 640 218 q 636 136 640 138 q 619 122 622 126 q 575 -15 594 3 q 499 -22 568 -22 q 418 -10 431 -22 q 265 -6 413 -4 q 107 -18 118 -7 l 53 -44 q 14 -6 36 -44 l 7 7 q 32 124 7 61 l 40 144 q 59 148 43 147 q 79 153 75 149 q 88 174 88 161 l 88 178 q 76 197 88 186 q 65 213 65 208 q 154 356 65 219 l 183 400 q 200 436 188 404 q 246 525 239 525 q 307 533 299 525 q 329 568 319 546 q 310 576 329 574 l 310 578 l 307 578 l 274 581 q 182 566 219 581 q 131 533 144 551 q 106 501 117 515 q 92 486 96 486 q 50 506 72 486 q 28 541 28 526 q 65 651 28 556 q 131 746 103 746 q 199 732 176 732 q 291 740 221 732 q 386 747 361 747 q 415 744 411 747 q 425 731 418 740 q 454 710 436 710 q 486 723 472 710 q 504 736 500 736 q 579 738 526 738 q 632 726 632 738 q 624 673 632 704 q 601 642 617 642 q 533 549 593 642 q 472 447 472 457 z "},"{":{"ha":375,"x_min":14,"x_max":375,"o":"m 292 450 l 286 251 q 288 221 286 222 q 251 167 251 192 q 272 149 251 153 q 293 143 293 144 q 292 56 292 118 q 304 -24 292 -6 q 331 -58 317 -43 q 353 -80 344 -72 q 361 -90 361 -87 q 331 -116 361 -99 q 283 -133 301 -133 q 167 -79 264 -133 q 71 -6 71 -25 q 83 103 71 21 l 86 128 q 89 156 89 139 l 78 326 q 92 349 78 349 l 117 343 q 132 374 132 343 l 132 375 q 73 442 132 383 q 14 513 14 500 q 56 582 14 525 q 101 648 97 639 q 104 764 104 657 l 103 903 l 103 956 q 94 1003 103 964 q 86 1057 86 1042 q 189 1128 86 1072 q 322 1183 292 1183 q 375 1157 375 1168 q 351 1131 365 1147 q 313 1063 336 1114 q 289 963 289 1013 q 304 914 304 922 q 294 886 304 906 q 283 856 283 867 l 283 682 q 297 615 297 642 q 259 574 297 613 q 221 528 221 536 q 256 481 221 508 q 292 450 292 453 z "},"|":{"ha":340,"x_min":35,"x_max":306,"o":"m 278 646 l 274 392 q 285 278 274 299 q 297 236 297 257 q 277 211 297 231 q 257 180 257 192 q 271 159 257 168 q 285 147 285 150 q 299 -43 286 -8 l 299 -46 q 283 -62 299 -53 q 253 -75 268 -71 l 238 -81 q 164 -100 218 -100 l 121 -97 q 53 -67 96 -72 q 40 -60 40 -65 l 61 57 q 64 97 64 64 l 58 261 q 60 279 58 278 q 67 283 61 281 q 82 305 82 288 q 58 340 82 322 q 35 364 35 357 l 51 404 q 61 500 61 422 l 56 722 q 60 763 56 758 q 74 828 74 775 l 65 925 l 72 949 q 76 967 76 953 q 66 1032 76 981 q 56 1096 56 1083 q 101 1124 56 1100 q 169 1149 146 1149 q 249 1141 192 1149 q 306 1119 306 1133 q 289 972 289 1025 q 254 915 254 943 q 274 894 254 904 q 294 875 294 885 q 283 791 294 853 q 271 721 271 729 q 278 646 278 700 z "},"}":{"ha":375,"x_min":0,"x_max":361,"o":"m 83 601 l 89 800 q 88 831 89 829 q 124 885 124 860 q 103 902 124 899 q 82 907 82 906 q 83 994 83 932 q 71 1076 83 1057 q 44 1109 58 1094 q 22 1131 31 1124 q 14 1140 14 1139 q 44 1166 14 1149 q 92 1183 74 1183 q 208 1129 111 1183 q 304 1058 304 1075 q 293 947 304 1011 l 289 922 q 286 893 286 911 l 296 728 q 292 706 296 710 q 283 703 289 703 l 258 707 q 243 676 243 707 l 243 675 q 302 609 243 668 q 361 538 361 550 q 319 469 361 526 q 274 403 278 413 q 271 288 271 394 l 272 149 l 272 96 q 281 49 272 88 q 289 -6 289 10 q 186 -77 289 -21 q 53 -133 83 -133 q 0 -106 0 -118 q 24 -79 10 -96 q 63 -12 39 -62 q 86 89 86 39 q 71 136 71 128 q 81 165 71 144 q 90 196 90 186 l 90 369 q 76 436 76 410 q 115 477 76 439 q 154 524 154 515 q 119 570 154 542 q 83 601 83 599 z "},"~":{"ha":419,"x_min":28,"x_max":392,"o":"m 50 488 l 157 458 q 219 483 171 458 q 282 508 268 508 q 344 478 296 508 q 392 439 392 447 q 382 394 392 417 q 368 372 372 372 q 328 388 364 372 q 285 403 293 403 l 131 356 q 50 406 118 356 l 28 421 q 37 461 28 435 q 50 488 46 488 z "},"":{"ha":324,"x_min":7,"x_max":317,"o":"m 139 725 l 136 750 q 139 756 136 756 l 156 756 q 293 718 254 756 q 308 672 299 713 q 317 608 317 632 q 313 579 317 583 q 295 560 308 575 q 271 535 282 544 q 244 513 260 525 q 165 488 211 488 q 128 511 164 488 q 69 535 93 535 q 51 613 60 535 l 49 639 q 60 678 49 651 q 78 704 72 704 l 100 703 q 136 715 124 703 q 139 725 139 721 m 315 -265 q 254 -305 315 -281 q 167 -329 193 -329 l 72 -304 q 47 -300 65 -303 q 7 -289 7 -293 q 23 -153 7 -228 q 57 -61 39 -79 q 63 -49 63 -56 q 50 -31 63 -43 q 38 -16 38 -18 q 44 17 38 -14 q 67 175 67 106 q 58 190 67 176 q 49 210 49 204 q 51 219 49 217 l 81 260 q 86 294 86 265 l 81 368 q 201 425 142 425 q 235 410 210 425 q 260 385 260 394 q 267 192 260 214 q 285 143 285 154 q 283 131 285 132 q 258 87 258 100 q 281 56 258 74 q 304 38 304 39 q 292 6 304 28 q 279 -19 279 -15 q 297 -142 279 -47 q 315 -265 315 -236 z "},"":{"ha":585,"x_min":14,"x_max":571,"o":"m 264 529 l 256 446 q 271 394 256 410 q 272 390 272 393 q 258 369 272 386 q 243 350 243 353 q 253 323 246 329 q 272 311 260 317 q 301 289 301 296 q 295 253 301 272 q 289 227 289 233 q 298 209 289 221 q 315 197 307 197 q 357 219 343 204 q 444 211 396 211 q 517 232 492 211 q 557 244 538 244 q 571 192 571 207 q 556 137 556 144 q 518 75 556 129 q 461 1 481 21 q 385 -11 457 -3 l 385 -17 q 394 -75 385 -65 l 394 -78 l 390 -93 q 315 -118 333 -118 q 271 -111 296 -118 q 246 -99 246 -104 l 246 -97 l 254 -28 q 149 24 217 -28 q 81 89 81 75 q 94 101 81 90 q 108 122 108 113 q 103 140 108 132 q 94 149 97 149 q 87 145 90 149 q 72 142 83 142 l 39 150 q 26 249 39 176 q 14 375 14 321 q 37 463 14 386 q 67 546 60 539 q 74 554 74 553 l 61 586 q 118 650 61 594 q 194 706 175 706 l 207 706 q 229 710 225 706 q 250 725 229 717 l 250 756 q 248 791 250 789 q 246 796 246 793 l 258 822 q 344 835 328 835 q 394 815 394 825 l 394 814 q 385 788 385 790 l 386 749 q 483 727 432 742 q 533 704 533 713 q 528 610 528 640 q 531 571 528 579 q 571 513 571 517 q 544 488 571 508 q 482 449 518 468 q 425 429 446 429 q 336 474 336 461 q 375 592 339 568 q 351 615 360 615 q 294 592 300 597 q 260 542 260 554 l 264 529 z "},"":{"ha":796,"x_min":7,"x_max":796,"o":"m 161 847 l 136 969 q 163 999 136 975 q 225 1045 189 1022 q 295 1068 261 1068 q 392 1058 329 1068 q 454 1039 454 1047 q 444 950 454 1021 q 426 875 435 879 q 393 840 393 858 q 415 801 393 821 q 436 776 436 782 l 436 775 q 428 679 428 701 q 430 655 428 657 q 473 653 432 653 q 522 660 514 653 q 585 668 529 668 q 650 660 642 668 q 661 606 661 639 q 647 564 661 601 q 632 507 632 526 q 601 501 613 501 q 586 504 589 501 q 556 523 581 524 q 524 515 531 522 q 506 507 517 507 q 472 513 496 507 q 447 519 449 519 l 424 519 l 422 479 l 422 474 q 435 457 424 469 q 447 438 447 444 q 433 408 447 431 q 418 368 418 386 q 428 313 428 328 q 425 294 428 297 q 376 210 376 244 q 383 191 376 204 q 395 178 390 178 q 427 199 400 178 q 468 219 454 219 l 471 219 q 559 208 518 208 q 614 222 600 208 q 682 315 664 272 q 690 325 686 325 q 763 292 729 325 q 796 238 796 258 q 783 201 796 217 q 769 176 769 185 l 774 149 q 751 77 774 129 q 724 21 728 25 q 653 7 710 7 q 461 18 547 7 l 428 22 q 390 6 407 22 q 340 -10 372 -10 l 213 -1 q 142 14 142 -1 l 142 17 q 151 131 151 57 l 149 210 l 149 211 q 174 238 149 217 q 200 273 200 258 q 188 301 200 288 q 149 322 175 314 q 146 339 146 331 l 154 396 q 157 442 157 408 q 156 494 157 476 q 83 513 156 513 q 58 508 65 513 q 29 504 51 504 q 7 510 7 504 q 25 635 7 581 l 32 653 q 149 664 40 661 q 172 679 167 674 q 176 694 176 685 l 171 722 q 149 738 161 732 q 128 751 128 744 q 144 797 128 758 q 161 847 161 836 z "},"":{"ha":825,"x_min":56,"x_max":797,"o":"m 478 403 q 500 412 483 403 q 517 425 517 421 l 517 432 q 532 436 517 436 q 557 485 557 471 q 553 497 553 492 l 561 513 l 561 515 q 536 590 561 575 q 531 596 531 593 q 532 603 532 599 q 529 608 532 608 q 517 622 526 613 q 503 631 507 631 q 501 635 501 631 q 489 640 501 640 q 428 653 464 653 l 389 643 q 367 634 383 643 q 351 619 351 625 q 335 608 351 608 q 331 602 331 604 q 332 599 332 600 q 305 556 310 574 q 300 514 300 539 l 300 494 q 307 486 307 488 l 300 471 q 304 463 300 463 l 307 463 q 311 461 311 463 q 326 426 311 447 q 346 406 340 406 l 347 406 l 349 407 q 439 393 388 393 l 478 403 m 160 911 l 171 913 l 174 913 q 260 897 256 908 q 303 825 290 860 q 307 811 307 817 q 331 768 307 788 q 381 782 369 782 q 397 778 393 782 q 408 774 401 774 q 420 781 414 774 q 428 788 426 788 q 529 772 475 788 l 526 786 l 526 789 q 554 826 528 794 q 589 876 581 857 q 590 885 589 883 q 623 895 590 890 q 683 900 656 900 q 717 899 710 900 l 718 899 q 755 877 728 896 q 782 850 782 858 l 782 849 q 646 690 683 739 q 675 642 675 656 q 686 618 675 628 q 697 606 697 608 l 690 582 q 703 533 703 569 q 701 494 703 496 q 695 465 699 492 q 692 431 692 438 q 646 356 692 411 l 647 354 l 647 351 q 761 214 656 332 l 797 174 l 797 172 q 771 145 797 164 q 735 124 744 126 l 733 124 q 699 122 726 122 q 638 127 671 122 q 606 138 606 132 q 604 146 604 139 q 569 197 596 165 q 542 233 543 228 l 542 236 q 546 264 546 254 q 536 275 543 269 q 490 263 501 263 q 474 267 478 263 q 463 271 469 271 q 450 264 457 271 q 401 253 440 253 l 329 258 q 318 260 319 258 l 318 263 q 288 217 288 240 q 240 129 288 193 q 176 115 238 119 l 156 114 l 153 114 l 142 115 q 77 152 100 132 q 56 175 54 172 l 56 176 q 102 238 57 182 q 160 317 147 294 q 193 329 181 319 q 201 339 196 329 l 201 340 q 185 354 190 354 q 172 371 181 354 q 151 482 151 418 q 168 503 168 496 q 162 513 168 511 q 156 517 156 515 q 166 581 156 546 q 176 619 176 617 l 176 629 q 197 647 183 647 q 206 657 206 651 q 204 669 204 663 q 219 688 204 675 q 211 697 214 697 q 178 710 201 707 q 121 789 167 732 q 74 850 75 846 l 74 851 q 86 867 72 854 q 160 911 118 894 z "},"":{"ha":868,"x_min":3,"x_max":865,"o":"m 696 303 l 574 311 q 517 299 529 311 q 507 122 507 193 q 526 14 526 40 q 500 -1 526 6 q 390 -42 407 -25 q 364 -43 389 -43 q 270 -28 339 -43 q 201 1 201 -12 l 224 131 l 218 238 q 254 264 218 242 q 242 292 254 278 q 189 306 231 306 q 57 297 119 306 l 36 294 l 33 293 q 13 342 21 293 q 27 397 13 358 q 42 447 42 436 q 71 453 42 453 l 88 453 q 167 446 115 446 q 219 457 219 446 q 186 556 219 478 l 176 581 q 143 585 172 585 l 17 576 l 15 576 q 3 604 6 576 q 17 678 3 639 q 35 722 31 717 q 53 726 40 726 l 99 725 q 136 732 128 725 l 136 735 q 94 835 136 749 l 82 863 q 89 882 81 871 q 97 899 97 893 q 82 925 97 925 q 48 930 53 925 q 25 970 43 935 q 7 1010 7 1006 q 88 1048 7 1018 q 168 1081 168 1078 q 199 1083 168 1083 q 280 1076 229 1083 q 342 1057 331 1068 q 382 913 372 929 q 358 866 358 878 q 372 849 358 854 q 396 844 386 844 q 406 817 399 844 q 435 722 428 729 q 458 714 453 714 q 485 770 464 714 q 506 837 507 826 q 506 858 506 847 q 507 871 506 869 q 535 918 529 901 q 564 939 564 925 q 561 968 561 954 q 565 986 561 982 q 577 1017 569 990 q 590 1048 585 1043 q 663 1070 596 1053 q 747 1088 729 1088 q 815 1069 765 1088 q 865 1042 865 1051 q 822 983 865 1040 q 778 897 778 925 q 768 869 778 869 q 717 840 738 861 q 658 729 658 742 q 701 722 658 722 q 771 728 743 722 q 778 669 778 715 q 742 578 757 578 l 740 578 q 652 589 707 589 q 593 583 597 589 q 547 460 550 496 q 619 450 547 450 q 726 463 692 450 q 744 383 744 435 q 728 345 744 374 q 713 308 713 317 q 696 303 713 303 z "},"":{"ha":340,"x_min":40,"x_max":306,"o":"m 76 276 l 56 408 q 100 418 56 413 q 156 424 144 424 q 216 431 168 424 q 285 439 264 439 q 306 432 306 439 q 289 285 289 338 q 254 228 254 256 q 274 207 254 217 q 294 188 294 197 q 285 115 294 164 q 299 -40 289 -14 l 299 -43 q 283 -59 299 -50 q 253 -72 268 -68 l 238 -78 q 164 -97 218 -97 l 121 -94 q 53 -64 96 -69 q 40 -57 40 -62 q 56 35 40 -32 q 60 75 56 71 l 64 79 q 74 140 74 113 l 65 238 l 72 261 q 76 276 76 265 m 60 594 l 53 693 q 56 722 53 708 q 60 763 56 758 l 64 767 q 74 828 74 800 l 65 925 l 72 949 q 76 967 76 953 q 66 1032 76 981 q 56 1096 56 1083 q 101 1124 56 1100 q 169 1149 146 1149 q 249 1141 192 1149 q 306 1119 306 1133 q 289 972 289 1025 q 254 915 254 943 q 274 894 254 904 q 294 875 294 885 q 285 803 294 851 q 299 647 289 674 l 299 644 q 279 619 299 625 q 219 613 260 613 l 179 613 q 108 601 147 613 q 65 589 69 589 q 60 594 60 589 z "},"":{"ha":826,"x_min":7,"x_max":819,"o":"m 421 460 q 513 501 443 460 q 582 569 582 543 q 565 603 582 588 q 531 625 547 618 l 514 631 q 501 628 511 628 q 458 642 490 628 q 417 656 426 656 q 372 631 408 656 q 304 581 335 606 l 274 556 q 281 528 278 529 q 300 521 283 526 q 349 499 349 506 q 367 478 349 488 q 403 464 385 468 l 421 460 m 546 921 l 515 929 q 447 910 496 929 q 399 878 399 892 q 397 865 397 874 q 403 857 397 857 q 508 824 428 854 q 611 794 589 794 l 653 794 q 667 784 658 794 q 675 761 675 774 q 810 678 776 713 q 819 578 819 668 q 794 527 819 567 q 757 488 769 488 q 716 497 724 497 q 705 485 708 497 q 699 459 701 474 q 693 440 697 444 q 618 388 661 408 q 575 361 575 367 q 625 321 575 356 q 675 271 675 286 q 653 143 675 193 l 644 126 q 556 74 625 107 l 533 63 l 514 32 q 496 25 508 25 l 438 36 q 428 33 431 36 q 199 -11 385 -11 l 175 -11 q 122 38 154 -11 q 89 106 89 88 q 97 125 89 125 q 233 140 165 125 q 336 171 301 156 l 369 186 q 399 236 386 203 q 359 265 399 246 q 281 297 319 283 l 242 310 l 178 317 q 160 337 161 317 q 131 372 158 357 q 75 393 103 386 l 46 400 q 7 447 32 406 q 23 530 7 479 q 49 590 39 581 q 145 651 58 599 q 246 703 232 703 q 253 721 253 703 l 253 724 q 173 756 253 738 q 88 781 93 775 q 82 826 82 786 q 92 875 82 865 q 136 946 117 925 q 297 1029 254 1029 q 317 1015 303 1029 q 346 1000 331 1000 q 367 1026 354 1000 q 390 1051 381 1051 q 490 1075 468 1053 q 571 1081 531 1081 q 622 1069 611 1081 q 671 956 671 1011 q 647 939 656 939 q 635 942 638 939 l 624 942 q 557 925 574 942 q 546 921 553 921 z "},"":{"ha":644,"x_min":85,"x_max":590,"o":"m 282 943 q 274 894 282 915 q 253 858 267 872 q 214 841 242 850 q 160 832 186 832 q 124 843 135 832 q 122 858 122 844 q 107 879 122 879 l 99 879 q 89 883 93 879 q 85 920 85 886 q 87 958 85 954 q 103 976 89 961 q 133 1000 118 992 q 207 1018 193 1018 q 241 1012 221 1018 q 261 1000 261 1006 q 256 974 256 986 q 282 943 282 951 m 590 925 q 576 871 589 883 q 557 858 564 858 q 529 840 550 858 q 506 821 508 821 l 446 829 q 386 871 426 836 q 382 896 382 875 q 387 942 382 917 q 397 967 392 967 q 472 1013 415 967 q 497 1018 486 1018 q 568 981 568 1001 q 560 960 560 968 q 575 943 560 953 q 590 925 590 933 z "},"":{"ha":957,"x_min":19,"x_max":938,"o":"m 305 320 q 305 319 305 320 q 313 309 304 318 q 322 290 322 300 q 303 263 322 279 q 315 219 303 253 q 341 163 326 186 q 394 117 356 140 q 451 93 432 93 q 492 99 469 93 q 531 113 515 106 q 551 119 546 119 q 561 113 556 119 q 568 107 567 107 q 618 149 581 107 q 656 217 656 190 q 632 257 656 222 q 601 278 622 267 q 575 290 579 290 l 572 290 q 565 289 565 290 q 552 246 565 268 q 526 211 539 224 q 507 199 513 199 q 461 228 475 199 q 447 290 447 258 l 447 324 q 451 358 447 350 q 435 378 435 372 q 445 394 435 385 q 456 413 456 404 q 447 429 456 421 q 439 448 439 438 q 443 481 439 458 q 447 506 447 503 l 447 515 q 465 550 447 532 q 499 568 482 568 q 517 536 517 568 q 522 522 517 531 q 528 486 528 514 q 517 446 528 458 l 526 432 q 596 443 560 432 q 619 462 603 444 q 642 490 635 479 q 649 528 649 501 l 649 540 q 637 550 649 542 q 625 566 625 558 q 632 583 625 574 q 639 595 639 593 q 630 610 639 597 q 605 638 621 624 q 576 651 589 651 q 457 640 497 651 l 442 636 q 360 579 411 625 q 310 515 310 533 q 317 489 317 499 q 309 448 317 479 q 301 400 301 417 l 306 332 q 305 320 306 322 m 268 -33 l 247 -50 q 188 -25 229 -50 q 133 15 147 0 q 75 96 100 96 q 56 123 68 96 q 31 202 43 150 q 19 307 19 254 q 33 319 19 308 q 46 343 46 331 q 35 360 46 356 q 25 367 25 364 q 42 473 25 415 q 60 536 60 531 l 60 554 q 96 583 72 583 q 110 600 110 590 q 107 620 107 610 q 171 688 107 631 q 251 746 235 746 q 260 764 258 761 q 419 808 368 808 q 429 801 422 808 q 446 794 436 794 q 467 806 456 794 q 479 818 478 818 q 599 805 536 818 q 699 776 661 792 q 736 750 736 760 q 735 735 735 743 q 742 719 735 728 q 763 711 750 711 l 788 708 q 856 640 819 685 q 892 573 892 594 q 910 535 892 551 q 928 514 928 519 l 918 475 q 932 424 926 467 q 938 357 938 382 q 934 328 938 332 q 925 280 931 325 q 919 222 919 235 q 857 117 919 201 l 836 88 q 815 85 835 85 l 801 85 q 783 69 790 85 q 775 36 776 53 l 774 21 q 725 -11 726 -10 q 565 -58 617 -58 q 556 -51 564 -58 q 538 -44 547 -44 q 517 -56 528 -44 l 506 -68 q 435 -75 464 -75 l 315 -65 q 297 -62 300 -65 q 290 -35 294 -39 q 274 -32 279 -32 q 268 -33 269 -32 m 749 153 q 815 278 815 240 q 803 304 803 293 q 813 330 803 315 q 824 350 824 344 l 824 356 q 757 551 824 514 q 746 567 744 558 q 747 587 747 575 q 742 603 747 599 q 672 656 689 656 l 665 668 q 636 681 658 681 q 481 713 572 713 q 431 701 460 713 q 383 689 401 689 q 322 666 364 689 q 279 629 279 643 q 270 605 279 613 q 235 597 261 597 q 225 583 225 589 q 228 575 225 578 q 164 483 169 507 q 156 444 164 478 q 143 345 143 385 q 146 303 143 306 q 156 292 149 301 q 163 278 163 283 q 154 259 163 272 q 146 243 146 246 l 146 242 q 153 218 146 218 q 165 219 158 219 q 172 215 172 219 q 210 126 172 181 q 264 72 249 72 q 286 64 267 72 q 504 39 349 42 q 554 51 525 39 q 602 64 583 64 q 663 86 621 64 q 706 122 706 108 q 714 146 706 139 q 749 153 722 153 z "},"":{"ha":553,"x_min":14,"x_max":539,"o":"m 322 586 q 314 619 314 603 q 318 678 314 619 q 315 686 318 686 q 263 667 300 686 q 225 635 225 649 q 235 610 235 619 q 232 599 235 601 q 217 579 217 592 q 233 551 217 567 q 260 536 250 536 q 296 557 269 536 q 322 586 322 578 m 508 671 l 514 581 q 511 569 514 569 q 472 514 472 546 q 490 497 472 504 l 508 490 l 517 428 l 539 389 q 528 381 539 388 q 475 357 497 357 q 408 332 453 357 l 406 332 q 331 353 389 332 l 311 360 q 310 371 310 367 q 313 426 310 371 l 313 431 l 297 435 l 281 417 q 210 364 271 404 l 190 350 q 123 371 157 350 q 71 412 89 392 q 53 435 53 432 q 69 464 69 454 q 28 494 69 483 l 14 497 q 24 601 14 551 q 44 672 33 650 l 54 696 q 144 756 69 715 q 267 796 219 796 q 279 788 271 796 q 294 781 288 781 q 311 786 300 781 q 331 804 331 794 q 314 850 331 822 q 231 869 300 864 l 207 872 q 138 855 176 872 q 96 838 99 838 q 84 852 93 838 q 75 873 75 867 q 97 922 75 879 q 126 969 118 964 q 214 997 140 978 q 319 1017 288 1017 q 410 974 371 983 q 487 938 450 965 q 524 886 524 911 q 512 861 524 883 q 500 825 500 839 q 514 789 500 811 q 510 722 514 731 q 497 694 497 699 q 503 685 497 690 q 508 678 508 681 l 508 671 z "},"":{"ha":1032,"x_min":7,"x_max":1018,"o":"m 653 214 q 626 254 632 214 q 592 293 626 267 q 525 339 558 319 l 492 360 q 458 411 482 360 l 451 429 q 490 499 474 482 q 646 601 636 588 q 676 638 661 638 q 728 654 728 639 q 740 682 735 682 q 862 760 753 682 q 977 843 971 838 q 983 849 983 849 q 985 850 983 850 q 1004 822 993 850 q 1015 776 1015 794 q 1006 730 1015 758 q 997 690 997 701 q 953 650 965 650 l 946 650 q 924 643 931 650 q 876 593 903 593 q 869 594 874 594 q 843 572 850 594 q 664 435 664 457 q 783 325 664 407 l 824 296 q 849 269 831 269 l 860 269 q 888 264 883 269 q 910 231 910 242 q 933 204 910 219 q 983 173 957 189 q 1014 153 1010 157 q 1018 121 1018 149 q 1004 47 1018 93 q 974 0 990 0 q 938 31 968 0 q 900 63 907 63 q 893 60 894 60 q 819 115 881 60 q 744 171 758 171 q 726 176 731 171 q 719 190 722 181 q 707 207 715 199 q 672 215 699 215 l 653 214 m 208 214 q 183 254 189 214 q 150 293 183 267 q 83 339 117 319 l 49 360 q 14 411 38 360 l 7 429 q 47 499 29 482 q 203 601 192 588 q 232 638 218 638 q 283 654 283 639 q 296 682 292 682 q 418 760 310 682 q 533 843 526 838 q 539 849 539 849 q 540 850 539 850 q 560 822 549 850 q 571 776 571 794 q 562 730 571 758 q 553 690 553 701 q 510 650 522 650 l 503 650 q 479 643 486 650 q 432 593 458 593 q 425 594 429 594 q 399 572 407 594 q 221 435 221 457 q 339 325 221 407 l 381 296 q 406 269 388 269 l 417 269 q 443 264 439 269 q 467 226 467 243 q 517 188 467 218 q 571 153 567 157 q 575 121 575 149 q 560 47 575 93 q 529 0 546 0 q 493 31 524 0 q 456 63 463 63 q 449 60 450 60 q 376 115 436 60 q 301 171 315 171 q 282 176 286 171 q 274 190 278 181 q 263 207 271 199 q 228 215 254 215 l 208 214 z "},"":{"ha":761,"x_min":7,"x_max":754,"o":"m 754 536 l 753 483 l 746 467 q 738 374 738 458 q 742 283 738 290 q 746 255 746 275 q 740 229 746 235 q 679 224 735 224 q 601 246 624 224 q 593 306 593 254 l 593 333 q 599 438 596 390 q 565 444 588 438 q 540 450 542 450 l 336 454 q 296 432 314 432 l 279 438 q 169 450 269 450 q 61 446 69 450 q 30 442 53 442 q 7 447 7 442 q 26 567 7 519 l 33 583 q 107 594 44 594 l 113 594 q 317 588 306 588 l 382 606 l 417 597 q 519 586 428 586 q 615 592 610 586 q 646 597 621 597 l 743 589 q 754 536 754 569 z "},"":{"ha":957,"x_min":19,"x_max":938,"o":"m 522 499 q 497 571 522 549 q 469 559 488 571 q 451 543 451 547 l 451 542 q 465 490 465 528 q 460 483 465 489 q 453 478 454 478 q 457 426 457 444 l 457 415 q 468 408 461 408 q 496 425 475 408 q 517 447 517 442 l 507 474 l 522 499 m 650 549 q 658 502 658 544 q 647 449 658 460 q 568 390 614 414 q 565 381 565 383 q 567 378 565 378 q 619 359 590 378 q 647 329 647 340 l 647 303 q 692 165 647 208 l 692 164 q 665 134 692 157 q 632 111 639 111 q 536 129 553 111 q 534 161 535 149 q 533 176 533 174 q 541 188 532 179 q 550 203 550 196 q 537 212 550 210 q 524 215 524 214 l 515 300 q 488 335 513 315 q 449 314 475 335 l 465 288 q 457 210 457 244 l 457 203 q 463 199 458 203 q 468 192 468 194 l 472 133 l 472 128 q 431 113 457 128 q 392 97 406 97 q 353 103 364 103 q 306 132 335 103 q 317 203 315 149 l 318 221 q 340 244 340 235 q 330 254 340 250 q 319 261 319 258 q 326 331 319 297 q 332 366 332 364 q 329 374 332 368 q 325 404 325 376 q 315 522 322 499 q 322 527 315 524 q 329 539 329 531 q 322 565 329 547 q 308 594 315 582 q 301 608 301 606 q 319 622 301 611 q 414 654 374 654 q 426 635 419 654 q 434 610 433 617 q 442 604 435 604 q 463 623 449 604 q 485 644 478 642 q 556 649 518 649 q 603 640 594 649 q 636 578 636 606 q 621 556 621 565 q 635 546 621 546 l 650 549 m 268 -33 l 247 -50 q 188 -25 229 -50 q 133 15 147 0 q 75 96 100 96 q 56 123 68 96 q 31 202 43 150 q 19 307 19 254 q 33 319 19 308 q 46 343 46 331 q 35 360 46 356 q 25 367 25 364 q 42 473 25 415 q 60 536 60 531 l 60 554 q 96 583 72 583 q 110 600 110 590 q 107 620 107 610 q 171 688 107 631 q 251 746 235 746 q 260 764 258 761 q 419 808 368 808 q 429 801 422 808 q 446 794 436 794 q 467 806 456 794 q 479 818 478 818 q 599 805 536 818 q 699 776 661 792 q 736 750 736 760 q 735 735 735 743 q 742 719 735 728 q 758 711 750 711 q 775 717 767 711 q 840 658 788 717 q 892 565 892 600 q 910 535 892 551 q 928 514 928 519 l 918 475 q 932 424 926 467 q 938 357 938 382 q 934 328 938 332 q 925 280 931 325 q 919 222 919 235 q 857 117 919 201 l 836 88 q 815 85 835 85 l 801 85 q 783 69 790 85 q 775 36 776 53 l 774 21 q 725 -11 726 -10 q 565 -58 617 -58 q 556 -51 564 -58 q 538 -44 547 -44 q 517 -56 528 -44 l 506 -68 q 435 -75 464 -75 l 315 -65 q 297 -62 300 -65 q 290 -35 294 -39 q 274 -32 279 -32 q 268 -33 269 -32 m 749 153 q 815 278 815 240 q 803 304 803 293 q 813 330 803 315 q 824 350 824 344 l 824 356 q 757 551 824 514 q 746 567 744 558 q 747 587 747 575 q 742 603 747 599 q 672 656 689 656 l 665 668 q 636 681 658 681 q 481 713 572 713 q 431 701 460 713 q 383 689 401 689 q 322 666 364 689 q 279 629 279 643 q 270 605 279 613 q 235 597 261 597 q 225 583 225 589 q 228 575 225 578 q 164 483 169 507 q 156 444 164 478 q 143 345 143 385 q 146 303 143 306 q 156 292 149 301 q 163 278 163 283 q 154 259 163 272 q 146 243 146 246 l 146 242 q 153 218 146 218 q 165 219 158 219 q 172 215 172 219 q 210 126 172 181 q 264 72 249 72 l 267 72 q 270 74 268 74 q 297 64 272 74 q 504 39 365 39 q 554 51 525 39 q 602 64 583 64 q 663 86 621 64 q 706 122 706 108 q 714 146 706 139 q 749 153 722 153 z "},"":{"ha":644,"x_min":108,"x_max":524,"o":"m 439 825 l 404 833 l 290 838 q 269 821 279 821 l 260 825 q 197 833 251 833 q 138 831 142 833 q 122 828 135 828 q 108 832 108 828 q 121 931 108 888 q 163 940 131 940 l 168 940 q 281 935 275 935 l 317 947 l 336 940 q 394 933 346 933 q 447 936 442 933 q 464 940 450 940 l 518 935 q 524 908 524 921 q 516 869 524 894 q 508 831 508 844 q 489 828 497 828 l 483 828 q 465 837 478 838 q 447 831 451 836 q 439 825 443 825 z "},"":{"ha":243,"x_min":0,"x_max":243,"o":"m 153 833 q 163 853 163 840 q 158 867 163 867 q 149 885 154 867 q 132 904 143 904 q 101 896 101 904 q 90 883 101 894 q 78 863 78 871 q 89 831 83 838 q 127 821 111 819 q 153 833 143 822 m 222 911 l 243 867 q 214 783 243 813 q 190 768 210 779 q 153 746 169 757 q 132 744 150 744 l 67 747 q 29 797 57 750 q 25 799 28 799 l 15 797 q 5 830 10 797 q 0 881 0 863 q 38 931 0 888 q 86 975 75 974 l 100 975 l 144 971 l 147 972 q 169 981 156 981 q 202 958 182 981 q 222 911 222 936 z "},"":{"ha":761,"x_min":7,"x_max":754,"o":"m 446 601 l 449 494 q 453 422 449 429 q 457 394 457 414 q 451 368 457 374 q 390 363 446 363 q 313 385 335 363 q 304 444 304 393 l 304 472 q 313 581 313 572 q 296 604 313 593 q 174 615 285 615 q 58 612 64 615 q 30 608 53 608 q 7 614 7 608 q 26 733 7 686 l 33 750 q 106 761 44 761 l 111 761 q 300 756 250 756 l 310 769 l 313 807 q 307 865 313 858 q 301 894 301 871 l 310 992 q 363 1003 331 1003 q 401 988 368 1003 q 453 974 433 974 q 460 943 460 954 q 456 928 460 932 q 447 897 446 922 q 454 865 447 872 q 461 849 461 858 q 458 827 461 840 q 452 802 456 814 q 449 789 449 790 l 449 769 q 460 757 449 763 q 556 753 503 753 q 615 758 610 753 q 644 764 619 764 l 743 756 q 754 703 754 736 q 739 665 754 699 q 724 613 724 632 q 692 607 704 607 q 678 610 681 607 q 647 620 672 621 q 615 612 622 619 q 600 604 608 604 q 578 607 592 604 q 553 614 565 610 q 539 618 542 618 l 461 618 q 446 601 449 611 m 646 306 l 743 297 q 754 244 754 278 q 739 207 754 240 q 724 154 724 174 q 693 149 704 149 q 679 151 682 149 q 647 162 672 163 q 615 153 622 161 q 599 146 608 146 q 565 152 589 146 q 540 158 542 158 l 336 163 q 296 140 314 140 l 279 146 q 169 158 269 158 q 61 154 69 158 q 30 150 53 150 q 7 156 7 150 q 26 275 7 228 l 33 292 q 107 303 44 303 l 113 303 q 317 296 306 296 l 382 314 l 417 306 q 519 294 428 294 q 615 300 610 294 q 646 306 621 306 z "},"":{"ha":481,"x_min":28,"x_max":438,"o":"m 417 543 q 392 518 392 526 q 408 499 392 510 q 405 476 408 492 q 399 460 401 460 l 325 465 l 300 476 l 256 467 q 197 457 213 457 q 187 467 194 457 q 174 478 179 478 q 160 469 168 478 q 96 460 151 460 l 32 464 l 28 506 q 44 551 35 510 q 54 594 53 593 q 64 599 56 596 q 86 617 86 606 q 74 643 86 631 q 140 769 74 657 l 163 807 q 182 813 176 807 l 192 826 l 179 849 q 213 892 179 850 q 247 939 247 933 q 228 994 247 994 q 169 985 182 994 q 153 972 156 976 q 119 914 140 958 l 111 897 q 68 923 92 897 q 44 959 44 949 q 59 1015 44 969 q 81 1069 74 1061 q 139 1090 89 1076 q 201 1104 189 1104 l 281 1101 q 300 1103 296 1101 l 301 1103 q 354 1082 311 1103 q 413 1046 397 1061 q 424 978 424 999 q 417 951 424 957 q 411 936 411 944 l 413 919 q 411 914 413 915 q 340 782 357 838 q 297 750 297 761 l 303 719 q 286 703 303 713 q 253 648 279 696 q 226 586 226 600 q 278 574 235 574 l 282 574 q 368 671 332 574 q 400 674 375 674 q 438 647 438 657 q 417 543 425 550 z "},"":{"ha":471,"x_min":33,"x_max":415,"o":"m 100 726 q 83 747 94 726 q 108 836 83 797 l 118 849 q 143 851 121 851 l 192 849 q 232 879 207 849 q 257 920 257 910 q 253 944 257 931 q 233 972 250 957 q 197 988 217 988 q 126 969 168 988 l 85 921 q 53 942 72 921 q 33 969 33 963 q 62 1029 33 976 q 99 1082 90 1082 q 201 1095 189 1089 q 233 1101 214 1101 q 305 1085 251 1101 q 376 1051 358 1069 q 391 1007 383 1043 q 399 961 399 971 q 411 944 411 949 q 381 876 411 925 q 342 826 350 826 l 340 826 q 314 829 328 829 q 293 822 300 829 q 288 807 288 811 q 289 803 288 803 q 352 785 324 803 q 392 752 381 768 q 403 732 403 736 q 381 706 381 714 q 396 689 388 689 q 415 685 415 689 q 410 599 415 644 q 397 542 404 553 q 358 503 389 532 q 322 472 326 474 q 303 469 318 471 q 242 447 260 465 q 219 440 232 440 l 140 451 q 75 460 114 460 l 65 460 q 44 503 54 460 q 33 558 33 546 q 56 594 33 571 q 83 617 79 617 l 100 603 q 182 561 147 561 l 211 567 l 211 582 q 261 664 261 607 q 232 714 261 676 l 181 724 q 175 732 179 724 q 168 740 171 740 q 101 726 143 740 l 100 726 z "},"":{"ha":644,"x_min":288,"x_max":554,"o":"m 454 914 l 457 893 q 444 885 457 889 q 400 853 432 881 q 362 819 368 826 q 349 813 356 813 q 315 835 342 813 q 288 869 288 857 q 322 924 288 881 q 357 971 357 967 q 358 989 358 988 q 394 1033 392 1031 q 424 1038 396 1035 q 469 1042 453 1042 q 520 1018 486 1042 q 554 982 554 994 q 543 969 554 978 q 488 926 500 940 q 470 925 486 925 q 454 914 454 925 z "},"":{"ha":676,"x_min":-150,"x_max":656,"o":"m 192 -262 q 188 -324 192 -297 q 156 -389 188 -350 q 93 -428 125 -428 q -25 -449 64 -428 l -56 -456 q -133 -361 -104 -435 q -147 -331 -144 -333 q -150 -320 -150 -328 q -131 -278 -150 -312 q -101 -231 -112 -243 q -56 -210 -85 -211 q 11 -178 -28 -208 q 49 -137 50 -147 l 49 -126 l 54 51 l 54 60 q 38 86 46 71 q 31 224 31 101 q 47 239 31 225 q 64 265 64 253 q 47 288 64 276 q 29 303 29 299 l 29 306 q 42 399 42 331 l 36 499 l 54 524 q 31 653 31 633 q 88 697 31 661 q 165 733 144 733 q 293 710 293 726 q 276 519 276 568 q 278 463 276 471 q 258 442 278 460 q 238 415 238 425 l 236 404 q 239 396 236 399 l 257 390 q 275 372 275 385 l 275 367 q 274 335 274 358 l 274 294 q 260 228 274 240 q 292 196 276 196 q 344 236 308 196 q 379 297 379 276 l 379 314 l 381 388 q 375 432 381 426 q 360 459 360 449 q 372 487 360 469 q 385 513 385 504 l 385 551 q 381 693 385 669 l 381 694 q 403 713 381 703 q 435 733 425 722 q 478 759 444 743 q 528 775 511 775 q 636 731 636 760 q 631 717 636 729 q 618 666 625 706 q 611 588 611 626 q 617 544 611 550 q 622 517 622 539 l 618 411 q 625 340 618 364 l 625 339 q 605 321 625 336 q 585 291 585 306 q 602 267 585 276 q 619 253 619 258 l 619 210 q 626 85 619 108 q 656 -4 656 17 q 642 -12 656 -8 q 585 -37 594 -28 q 553 -58 575 -47 q 513 -68 532 -68 q 460 -51 493 -68 q 408 -17 426 -35 q 389 7 389 0 q 406 49 389 14 q 422 89 422 83 q 396 99 422 99 l 393 99 q 332 31 369 99 l 319 7 q 279 -12 315 -3 q 292 -168 285 -150 l 292 -169 q 274 -214 292 -181 q 249 -247 256 -247 l 215 -239 q 192 -262 192 -253 z "},"":{"ha":729,"x_min":7,"x_max":708,"o":"m 236 -110 l 207 -111 q 194 -96 194 -111 q 215 -83 194 -94 q 239 -71 235 -71 q 253 -79 249 -76 q 278 -89 278 -85 q 266 -104 278 -93 q 251 -115 254 -115 q 246 -112 249 -115 q 236 -110 243 -110 m 189 -47 q 163 -39 165 -39 l 121 -47 q 114 -41 117 -47 q 111 -33 111 -35 q 122 -22 111 -31 q 164 0 153 0 q 193 -10 190 -10 l 215 -7 l 217 -7 q 189 -47 210 -47 m 490 -87 q 468 -94 479 -87 q 449 -81 464 -94 q 435 -64 435 -67 q 465 -49 435 -57 l 483 -39 q 514 -53 489 -39 q 539 -69 539 -68 q 535 -85 539 -81 q 521 -89 532 -89 l 490 -87 m 672 260 q 683 40 672 124 q 633 4 683 26 q 569 -18 583 -18 q 544 -13 556 -18 q 532 -3 532 -8 l 532 -1 q 546 115 546 26 q 542 206 546 203 q 538 233 538 210 l 547 367 q 543 389 547 385 q 524 421 524 408 q 539 465 524 433 q 554 526 554 497 q 543 597 554 556 q 532 642 532 639 q 533 646 532 644 q 540 817 540 653 l 540 847 l 556 933 q 529 947 556 939 q 475 917 519 947 l 461 906 q 443 811 443 888 l 446 725 q 444 710 446 711 q 431 678 431 696 q 448 621 432 661 q 464 574 464 581 q 448 534 464 567 q 432 489 432 501 l 450 458 q 443 408 443 451 l 447 279 q 444 247 447 250 q 442 240 442 244 q 448 218 442 236 q 454 192 454 200 q 450 179 454 183 q 428 132 428 157 l 428 129 l 444 107 q 450 59 450 103 q 442 15 450 15 q 392 -18 422 15 q 354 -25 385 -25 l 338 -25 q 292 -31 306 -25 l 290 -31 q 281 -3 283 -31 q 301 129 301 18 l 300 231 q 306 240 300 232 q 314 250 311 249 q 315 256 315 251 q 299 280 315 260 q 283 306 283 300 q 286 315 283 313 q 303 407 303 332 l 297 501 l 268 508 q 254 476 267 508 q 235 443 242 443 q 126 463 193 443 q 42 500 60 483 q 18 619 29 514 q 7 753 7 725 q 89 890 7 781 q 211 999 171 999 q 253 978 231 978 q 285 990 276 978 q 299 1015 294 1001 q 305 1032 303 1029 q 398 1053 307 1035 q 510 1071 489 1071 q 611 1062 532 1071 q 700 1053 690 1053 l 706 1054 q 708 1010 708 1035 q 685 915 708 939 q 675 843 675 854 q 689 818 675 832 q 703 803 703 804 q 682 749 701 767 q 674 622 678 740 q 671 427 671 504 q 678 343 671 350 q 700 292 700 321 q 672 260 672 274 z "},"":{"ha":276,"x_min":14,"x_max":263,"o":"m 263 354 q 244 289 260 304 q 221 274 229 274 q 190 251 213 274 q 163 228 167 228 l 90 238 q 32 278 71 244 l 19 288 q 14 320 14 293 q 22 383 14 347 q 39 418 31 418 q 114 468 64 418 q 144 474 132 474 q 226 425 226 450 q 219 400 219 413 q 241 380 219 396 q 263 354 263 364 z "},"":{"ha":583,"x_min":226,"x_max":379,"o":"m 264 -21 q 292 -12 275 -12 q 321 -17 308 -12 q 306 -44 306 -36 q 310 -54 306 -53 q 379 -99 379 -79 l 379 -106 q 369 -158 379 -146 q 331 -191 351 -179 q 299 -203 311 -203 q 228 -187 276 -203 q 226 -182 226 -186 q 231 -167 226 -178 q 242 -150 236 -157 q 250 -143 249 -143 q 281 -149 265 -149 l 307 -143 q 315 -111 315 -137 l 315 -107 q 280 -96 313 -104 q 240 -87 247 -87 q 233 -81 233 -87 q 264 -21 233 -74 z "},"":{"ha":374,"x_min":11,"x_max":318,"o":"m 297 818 l 289 597 q 296 566 289 574 q 303 557 303 558 q 307 486 307 506 l 307 478 q 249 446 283 478 q 229 442 246 442 l 226 442 q 144 455 171 442 q 118 471 118 468 l 124 497 q 129 539 129 524 l 129 546 q 151 571 149 557 q 140 586 150 576 q 129 600 129 596 l 129 601 q 136 738 136 657 q 133 828 136 819 l 133 829 q 138 835 133 831 q 143 843 143 839 q 122 885 122 869 l 157 919 q 136 938 157 938 q 85 909 121 938 q 49 881 50 881 q 30 901 49 882 q 11 926 11 919 q 15 951 11 932 q 26 979 19 971 q 86 1027 33 988 q 144 1075 139 1067 l 169 1071 q 175 1072 174 1071 q 194 1093 193 1093 l 288 1099 q 318 1092 318 1096 q 307 1036 318 1067 q 294 1004 296 1006 l 296 981 l 294 903 q 296 878 294 882 l 296 876 q 286 865 296 874 q 272 846 272 853 q 275 833 272 839 q 297 818 297 824 z "},"":{"ha":532,"x_min":7,"x_max":525,"o":"m 69 842 l 61 860 q 116 918 61 868 q 185 975 171 968 q 307 993 275 993 q 338 981 310 993 q 372 966 365 968 q 395 943 379 964 q 411 918 411 922 q 401 885 406 885 q 308 871 326 882 q 254 822 289 860 q 210 763 219 785 q 200 632 200 742 q 235 599 235 617 q 222 535 222 543 q 232 507 222 528 q 250 478 242 486 q 279 468 268 468 q 293 472 290 468 q 322 568 322 500 q 319 600 322 583 q 299 646 299 621 q 309 660 299 650 q 319 681 319 669 q 310 707 319 693 q 291 729 300 721 q 282 739 282 738 q 319 795 282 754 q 372 836 356 836 l 388 836 q 489 824 489 836 q 482 788 482 792 q 503 743 482 783 q 525 665 525 703 q 494 629 494 640 q 506 607 494 618 l 518 596 q 508 548 518 585 q 499 490 499 511 q 443 414 499 469 q 371 363 386 363 l 369 363 q 350 367 361 367 l 338 365 q 314 347 321 365 q 304 326 307 329 q 275 324 301 324 l 175 332 q 108 372 146 340 q 71 411 71 403 q 83 427 71 413 q 94 449 94 442 q 79 472 94 460 l 38 465 q 15 546 22 465 q 7 678 7 626 q 34 763 7 694 q 69 840 61 832 l 69 842 z "},"":{"ha":1032,"x_min":14,"x_max":1025,"o":"m 379 636 q 406 596 400 636 q 439 557 406 583 q 506 511 472 531 l 540 490 q 574 439 553 490 l 581 421 q 542 351 560 368 q 386 249 397 263 q 356 213 371 213 q 304 196 304 211 q 293 168 297 168 q 174 93 279 168 q 60 9 69 18 q 49 0 50 0 q 29 28 42 0 q 17 74 17 56 q 26 120 17 92 q 35 160 35 149 q 79 200 67 200 l 86 200 q 110 207 101 200 q 157 257 129 257 q 164 256 160 256 q 190 278 182 256 q 368 415 368 393 q 250 525 368 443 l 208 554 q 183 581 201 581 l 172 581 q 144 586 150 581 q 122 619 122 608 q 99 646 122 631 q 49 677 75 661 q 18 697 22 693 q 14 729 14 701 q 28 803 14 757 q 58 850 42 850 q 95 819 65 850 q 132 788 125 788 q 139 790 138 790 q 213 735 151 790 q 288 679 274 679 q 307 674 303 679 q 315 660 311 669 q 326 643 318 651 q 361 635 335 635 l 379 636 m 824 636 q 849 596 843 636 q 883 557 849 583 q 950 511 917 531 l 985 490 q 1018 439 997 490 l 1025 421 q 985 351 1003 368 q 829 249 840 263 q 800 213 815 213 q 749 196 749 211 q 736 168 740 168 q 615 90 724 168 q 494 1 506 13 l 492 0 q 472 28 483 0 q 461 74 461 56 q 470 120 461 92 q 479 160 479 149 q 524 200 510 200 l 531 200 q 553 207 546 200 q 600 257 574 257 q 607 256 603 256 q 633 278 626 256 q 811 415 811 393 q 692 525 811 443 l 651 554 q 628 581 646 581 l 617 581 q 589 586 593 581 q 567 624 567 606 q 517 664 567 635 q 463 697 467 693 q 458 729 458 701 q 472 803 458 757 q 503 850 486 850 q 539 819 508 850 q 576 788 569 788 q 583 790 582 790 q 657 735 596 790 q 732 679 718 679 q 750 674 746 679 q 758 660 754 669 q 769 643 761 651 q 804 635 778 635 l 824 636 z "},"":{"ha":1014,"x_min":11,"x_max":958,"o":"m 732 356 l 738 440 l 733 449 l 711 443 l 686 393 l 694 372 q 675 353 694 364 q 651 295 663 331 q 640 256 640 260 q 659 249 640 253 q 700 244 678 244 q 728 251 722 244 q 733 274 733 257 l 733 282 q 719 299 719 293 q 728 314 719 306 q 736 335 736 322 l 732 353 l 732 356 m 861 271 q 894 268 861 268 q 942 283 926 268 q 953 276 947 283 q 958 263 958 268 q 947 234 958 257 q 928 165 936 211 q 878 146 925 157 q 875 107 875 144 l 875 71 q 885 37 875 60 q 894 13 894 14 q 845 -11 894 1 q 783 -24 796 -24 q 737 -9 769 -24 q 692 7 704 6 l 690 8 q 697 45 690 10 q 703 101 703 81 q 722 106 703 103 q 742 113 742 108 q 696 143 742 143 q 540 129 619 143 l 517 125 l 515 125 q 496 138 506 125 q 499 165 499 151 q 494 181 499 178 l 494 183 l 508 249 q 539 264 539 254 q 540 276 540 268 q 533 292 540 285 q 585 410 581 406 q 595 417 589 414 q 603 425 601 419 q 665 553 650 553 q 690 565 690 556 q 718 613 704 613 q 775 626 738 613 q 824 639 813 639 q 869 627 836 639 q 901 608 901 615 q 890 479 890 563 l 890 438 q 899 419 899 425 q 887 403 899 413 q 875 382 875 393 q 885 367 875 371 q 894 363 894 364 l 894 340 q 890 307 894 310 q 861 271 861 297 m 297 818 l 289 597 q 296 566 289 574 q 303 557 303 558 q 307 486 307 506 l 307 478 q 249 446 283 478 q 229 442 246 442 l 226 442 q 144 455 171 442 q 118 471 118 468 l 124 497 q 129 539 129 524 l 129 546 q 151 571 149 557 q 140 586 150 576 q 129 600 129 596 l 129 601 q 136 738 136 657 q 133 828 136 819 l 133 829 q 138 835 133 831 q 143 843 143 839 q 122 885 122 869 l 157 919 q 136 938 157 938 q 85 909 121 938 q 49 881 50 881 q 30 901 49 882 q 11 926 11 919 q 15 951 11 932 q 26 979 19 971 q 86 1027 33 988 q 144 1075 139 1067 l 169 1071 q 175 1072 174 1071 q 194 1093 193 1093 l 288 1099 q 318 1092 318 1096 q 307 1036 318 1067 q 294 1004 296 1006 l 296 981 l 294 903 q 296 878 294 882 l 296 876 q 286 865 296 874 q 272 846 272 853 q 275 833 272 839 q 297 818 297 824 m 318 117 q 407 286 393 272 q 438 338 421 300 q 469 407 454 376 q 495 438 483 438 q 585 583 507 438 q 668 729 663 729 q 699 774 674 729 q 752 872 724 819 q 788 932 781 925 l 804 949 q 826 981 826 971 l 829 1021 l 850 1031 q 874 1076 860 1033 q 806 1089 874 1089 q 729 1079 739 1089 q 688 1013 688 1033 l 688 1010 q 662 951 689 1008 q 601 838 635 894 q 554 782 567 782 q 533 735 553 782 q 449 592 475 592 q 397 519 442 592 q 353 430 353 446 q 297 319 353 414 q 231 215 240 225 q 187 167 189 171 q 180 140 185 163 q 172 114 175 118 l 140 53 q 97 -21 97 -7 q 163 -39 97 -39 q 235 -33 229 -39 q 257 1 257 -11 q 277 41 257 13 q 307 71 297 69 q 321 89 321 75 q 318 117 321 103 z "},"":{"ha":1047,"x_min":11,"x_max":1010,"o":"m 872 17 l 897 6 q 971 0 942 0 q 977 16 974 0 q 981 39 981 32 q 964 56 964 50 q 989 83 964 67 q 1006 164 996 88 l 1010 188 q 972 214 1010 197 l 940 211 q 854 114 904 114 l 850 114 q 799 126 811 114 q 825 188 799 140 q 858 243 851 236 q 875 260 875 253 l 869 290 q 913 322 869 299 q 969 433 925 367 l 983 454 q 985 460 985 456 l 983 476 q 990 491 983 485 q 996 510 996 497 l 985 586 q 926 622 969 601 q 874 643 883 643 l 872 643 q 853 642 868 642 l 774 644 q 711 631 761 644 q 653 609 661 617 q 631 556 646 601 q 617 499 617 510 q 640 463 617 489 q 683 438 664 438 q 733 521 717 510 q 800 535 756 535 q 819 479 819 535 q 785 432 819 472 q 751 389 751 392 l 764 367 q 735 347 757 347 q 646 183 646 200 q 658 160 658 169 q 651 147 658 151 q 636 139 644 142 q 626 135 628 136 q 616 92 625 133 q 600 46 607 50 q 604 4 600 8 q 679 0 635 0 q 732 9 724 0 q 746 18 740 18 q 759 8 751 18 q 769 -3 767 -3 q 828 7 785 -3 l 872 17 m 297 818 l 289 597 q 296 566 289 574 q 303 557 303 558 q 307 486 307 506 l 307 478 q 249 446 283 478 q 229 442 246 442 l 226 442 q 144 455 171 442 q 118 471 118 468 l 124 497 q 129 539 129 524 l 129 546 q 151 571 149 557 q 140 586 150 576 q 129 600 129 596 l 129 601 q 136 738 136 657 q 133 828 136 819 l 133 829 q 138 835 133 831 q 143 843 143 839 q 122 885 122 869 l 157 919 q 136 938 157 938 q 85 909 121 938 q 49 881 50 881 q 30 901 49 882 q 11 926 11 919 q 15 951 11 932 q 26 979 19 971 q 86 1027 33 988 q 144 1075 139 1067 l 169 1071 q 175 1072 174 1071 q 194 1093 193 1093 l 288 1099 q 318 1092 318 1096 q 307 1036 318 1067 q 294 1004 296 1006 l 296 981 l 294 903 q 296 878 294 882 l 296 876 q 286 865 296 874 q 272 846 272 853 q 275 833 272 839 q 297 818 297 824 m 318 117 q 407 286 393 272 q 438 338 421 300 q 469 407 454 376 q 495 438 483 438 q 585 583 507 438 q 668 729 663 729 q 699 774 674 729 q 752 872 724 819 q 788 932 781 925 l 804 949 q 826 981 826 971 l 829 1021 l 850 1031 q 874 1076 860 1033 q 806 1089 874 1089 q 729 1079 739 1089 q 688 1013 688 1033 l 688 1010 q 662 951 689 1008 q 601 838 635 894 q 554 782 567 782 q 533 735 553 782 q 449 592 475 592 q 397 519 442 592 q 353 430 353 446 q 297 319 353 414 q 231 215 240 225 q 187 167 189 171 q 180 140 185 163 q 172 114 175 118 l 140 53 q 97 -21 97 -7 q 163 -39 97 -39 q 235 -33 229 -39 q 257 1 257 -11 q 277 41 257 13 q 307 71 297 69 q 321 89 321 75 q 318 117 321 103 z "},"":{"ha":1051,"x_min":33,"x_max":996,"o":"m 100 726 q 83 747 94 726 q 108 836 83 797 l 118 849 q 143 851 121 851 l 192 849 q 232 879 207 849 q 257 920 257 910 q 253 944 257 931 q 233 972 250 957 q 197 988 217 988 q 126 969 168 988 l 85 921 q 53 942 72 921 q 33 969 33 963 q 62 1029 33 976 q 99 1082 90 1082 q 201 1095 189 1089 q 233 1101 214 1101 q 305 1085 251 1101 q 376 1051 358 1069 q 391 1007 383 1043 q 399 961 399 971 q 411 944 411 949 q 381 876 411 925 q 342 826 350 826 l 340 826 q 314 829 328 829 q 293 822 300 829 q 288 807 288 811 q 289 803 288 803 q 352 785 324 803 q 392 752 381 768 q 403 732 403 736 q 381 706 381 714 q 396 689 388 689 q 415 685 415 689 q 410 599 415 644 q 397 542 404 553 q 358 503 389 532 q 322 472 326 474 q 303 469 318 471 q 242 447 260 465 q 219 440 232 440 l 140 451 q 75 460 114 460 l 65 460 q 44 503 54 460 q 33 558 33 546 q 56 594 33 571 q 83 617 79 617 l 100 603 q 182 561 147 561 l 211 567 l 211 582 q 261 664 261 607 q 232 714 261 676 l 181 724 q 175 732 179 724 q 168 740 171 740 q 101 726 143 740 l 100 726 m 769 356 l 775 440 l 771 449 l 749 443 l 724 393 l 732 372 q 713 353 732 364 q 689 295 700 331 q 678 256 678 260 q 697 249 678 253 q 738 244 715 244 q 765 251 760 244 q 771 274 771 257 l 771 282 q 757 299 757 293 q 765 314 757 306 q 774 335 774 322 l 769 353 l 769 356 m 899 271 q 931 268 899 268 q 979 283 964 268 q 990 276 985 283 q 996 263 996 268 q 985 234 996 257 q 965 165 974 211 q 915 146 963 157 q 913 107 913 144 l 913 71 q 922 37 913 60 q 932 13 932 14 q 883 -11 932 1 q 820 -24 833 -24 q 774 -9 807 -24 q 729 7 742 6 l 728 8 q 734 45 728 10 q 740 101 740 81 q 760 106 740 103 q 779 113 779 108 q 733 143 779 143 q 578 129 657 143 l 554 125 l 553 125 q 533 138 543 125 q 536 165 536 151 q 532 181 536 178 l 532 183 l 546 249 q 576 264 576 254 q 578 276 578 268 q 571 292 578 285 q 622 410 618 406 q 633 417 626 414 q 640 425 639 419 q 703 553 688 553 q 728 565 728 556 q 756 613 742 613 q 813 626 775 613 q 862 639 850 639 q 906 627 874 639 q 939 608 939 615 q 928 479 928 563 l 928 438 q 936 419 936 425 q 924 403 936 413 q 913 382 913 393 q 922 367 913 371 q 932 363 932 364 l 932 340 q 928 307 932 310 q 899 271 899 297 m 513 407 q 506 392 513 407 q 482 338 499 376 q 456 292 465 300 q 382 156 440 275 l 363 117 q 365 94 365 103 q 351 71 365 76 q 322 41 342 69 q 301 1 301 13 q 279 -33 301 -11 q 208 -39 274 -39 q 142 -21 142 -39 q 175 38 142 -10 l 185 53 q 216 112 213 106 q 224 140 219 118 q 231 165 229 163 l 275 215 q 341 319 285 225 q 397 430 397 414 q 442 519 397 446 q 493 592 486 592 q 578 735 519 592 q 599 782 597 782 q 645 838 611 782 q 706 951 679 894 q 732 1010 733 1008 l 732 1013 q 774 1079 732 1033 q 851 1089 783 1089 q 918 1076 918 1089 q 894 1031 904 1033 q 874 1021 878 1026 q 871 983 871 993 q 865 966 871 974 q 849 949 858 958 l 838 938 q 797 872 825 925 q 743 774 768 819 q 713 729 718 729 q 629 583 707 729 q 540 438 551 438 q 513 407 528 438 z "},"":{"ha":538,"x_min":0,"x_max":639,"o":"m 492 708 l 515 710 q 524 706 521 710 q 528 675 528 703 q 471 528 528 564 q 425 511 460 521 q 347 501 390 501 q 326 532 335 501 q 310 563 317 563 l 292 563 q 276 566 279 563 q 267 598 272 569 q 263 638 263 626 q 285 685 263 649 q 326 740 308 722 q 416 757 385 757 q 454 750 447 757 q 476 715 469 721 q 492 708 482 708 m 494 357 l 503 238 q 493 200 503 210 q 318 40 354 40 l 314 40 q 272 32 281 40 q 269 -52 269 0 q 282 -117 269 -104 q 378 -165 344 -165 q 438 -140 393 -165 q 514 -92 483 -114 q 532 -69 522 -85 q 544 -51 542 -53 q 550 -49 546 -49 q 605 -75 571 -49 q 639 -128 639 -101 q 596 -260 613 -244 q 469 -312 579 -276 q 316 -347 358 -347 q 168 -297 274 -347 q 42 -226 63 -247 q 31 -108 36 -221 l 28 -71 q 14 -61 28 -69 q 0 -49 0 -53 q 32 65 0 -11 q 76 150 64 140 q 110 158 85 158 l 118 158 q 201 199 139 158 q 272 249 263 239 q 282 275 282 260 l 281 292 q 254 304 264 292 q 242 348 242 315 q 244 381 242 381 q 325 407 275 381 q 376 433 375 433 q 447 417 396 433 q 496 389 497 400 q 494 357 494 378 z "},"":{"ha":850,"x_min":0,"x_max":847,"o":"m 363 1224 l 343 1222 l 342 1222 q 315 1251 342 1224 q 288 1282 288 1279 q 330 1310 288 1289 q 394 1331 372 1331 q 474 1313 471 1315 q 561 1160 535 1186 l 561 1158 q 527 1132 561 1143 q 468 1121 493 1121 q 423 1152 461 1121 q 379 1183 385 1183 q 378 1190 378 1183 l 378 1204 q 374 1220 378 1217 q 363 1224 371 1224 m 478 553 q 476 557 476 556 q 458 735 458 614 l 458 740 q 446 769 458 769 q 390 738 390 769 l 396 674 q 378 621 396 665 q 360 550 360 576 q 367 524 360 524 q 404 533 379 524 q 453 542 429 542 q 478 553 478 542 m 214 847 l 196 928 q 302 998 196 940 q 428 1060 408 1056 q 499 1064 447 1064 q 594 1054 550 1064 q 689 1014 689 1033 q 682 978 689 1013 q 660 806 660 869 q 674 795 660 799 q 688 790 688 792 q 715 522 688 746 q 761 239 742 297 l 761 238 q 740 219 761 235 q 718 186 718 204 q 740 161 718 168 q 782 151 761 154 q 803 136 803 147 q 801 126 801 133 q 806 101 801 119 q 839 28 810 74 l 847 14 q 769 -37 847 -10 q 652 -64 690 -64 q 577 -49 614 -64 q 517 -18 540 -35 q 494 6 494 -1 q 497 21 494 7 q 504 96 504 56 l 474 286 q 499 296 474 292 q 524 314 524 300 q 503 344 524 332 q 452 357 482 357 q 381 342 422 357 q 334 313 340 326 q 314 190 328 300 q 300 25 300 79 q 226 -6 300 14 q 104 -25 153 -25 q 22 11 79 -25 l 4 22 q 0 35 0 26 l 0 38 q 50 150 21 64 l 61 181 q 103 202 79 181 q 128 233 128 224 q 113 262 128 242 q 97 286 97 282 l 97 288 l 149 415 q 181 631 149 446 q 214 847 214 815 z "},"":{"ha":850,"x_min":0,"x_max":847,"o":"m 494 1206 l 497 1185 q 485 1176 497 1181 q 440 1145 472 1172 q 402 1111 408 1118 q 389 1104 396 1104 q 355 1126 382 1104 q 328 1160 328 1149 q 363 1216 328 1172 q 397 1263 397 1260 q 399 1281 399 1279 q 434 1324 432 1322 q 465 1330 436 1326 q 510 1333 493 1333 q 560 1310 526 1333 q 594 1274 594 1286 q 583 1261 594 1269 q 528 1218 540 1232 q 511 1217 528 1217 q 494 1206 494 1217 m 478 553 q 476 557 476 556 q 458 735 458 614 l 458 740 q 446 769 458 769 q 390 738 390 769 l 396 674 q 378 621 396 665 q 360 550 360 576 q 367 524 360 524 q 404 533 379 524 q 453 542 429 542 q 478 553 478 542 m 214 847 l 196 928 q 302 998 196 940 q 428 1060 408 1056 q 499 1064 447 1064 q 594 1054 550 1064 q 689 1014 689 1033 q 682 978 689 1013 q 660 806 660 869 q 674 795 660 799 q 688 790 688 792 q 715 522 688 746 q 761 239 742 297 l 761 238 q 740 219 761 235 q 718 186 718 204 q 740 161 718 168 q 782 151 761 154 q 803 136 803 147 q 801 126 801 133 q 806 101 801 119 q 839 28 810 74 l 847 14 q 769 -37 847 -10 q 652 -64 690 -64 q 577 -49 614 -64 q 517 -18 540 -35 q 494 6 494 -1 q 497 21 494 7 q 504 96 504 56 l 474 286 q 499 296 474 292 q 524 314 524 300 q 503 344 524 332 q 452 357 482 357 q 381 342 422 357 q 334 313 340 326 q 314 190 328 300 q 300 25 300 79 q 226 -6 300 14 q 104 -25 153 -25 q 22 11 79 -25 l 4 22 q 0 35 0 26 l 0 38 q 50 150 21 64 l 61 181 q 103 202 79 181 q 128 233 128 224 q 113 262 128 242 q 97 286 97 282 l 97 288 l 149 415 q 181 631 149 446 q 214 847 214 815 z "},"":{"ha":850,"x_min":0,"x_max":847,"o":"m 318 1268 l 313 1296 q 347 1336 338 1336 l 376 1336 q 421 1332 418 1336 q 449 1311 446 1311 q 483 1332 453 1311 q 517 1339 486 1339 q 552 1335 547 1339 q 579 1295 557 1331 q 601 1254 601 1260 q 597 1225 597 1239 q 626 1211 597 1211 q 664 1159 664 1164 q 661 1151 664 1154 q 654 1146 658 1149 q 642 1135 650 1143 q 619 1120 635 1128 q 586 1110 603 1113 q 554 1115 554 1110 l 501 1178 q 478 1189 478 1182 q 465 1227 478 1207 q 444 1247 453 1247 q 406 1208 438 1247 l 396 1194 q 388 1167 396 1172 q 340 1139 365 1167 q 313 1111 314 1111 q 269 1122 290 1111 q 237 1142 247 1132 q 226 1154 226 1151 l 253 1197 q 281 1247 281 1240 q 318 1268 318 1256 m 478 553 q 476 557 476 556 q 458 735 458 614 l 458 740 q 446 769 458 769 q 390 738 390 769 l 396 674 q 378 621 396 665 q 360 550 360 576 q 367 524 360 524 q 404 533 379 524 q 453 542 429 542 q 478 553 478 542 m 214 847 l 196 928 q 302 998 196 940 q 428 1060 408 1056 q 499 1064 447 1064 q 594 1054 550 1064 q 689 1014 689 1033 q 682 978 689 1013 q 660 806 660 869 q 674 795 660 799 q 688 790 688 792 q 715 522 688 746 q 761 239 742 297 l 761 238 q 740 219 761 235 q 718 186 718 204 q 740 161 718 168 q 782 151 761 154 q 803 136 803 147 q 801 126 801 133 q 806 101 801 119 q 839 28 810 74 l 847 14 q 769 -37 847 -10 q 652 -64 690 -64 q 577 -49 614 -64 q 517 -18 540 -35 q 494 6 494 -1 q 497 21 494 7 q 504 96 504 56 l 474 286 q 499 296 474 292 q 524 314 524 300 q 503 344 524 332 q 452 357 482 357 q 381 342 422 357 q 334 313 340 326 q 314 190 328 300 q 300 25 300 79 q 226 -6 300 14 q 104 -25 153 -25 q 22 11 79 -25 l 4 22 q 0 35 0 26 l 0 38 q 50 150 21 64 l 61 181 q 103 202 79 181 q 128 233 128 224 q 113 262 128 242 q 97 286 97 282 l 97 288 l 149 415 q 181 631 149 446 q 214 847 214 815 z "},"":{"ha":850,"x_min":0,"x_max":847,"o":"m 478 553 q 476 557 476 556 q 458 735 458 614 l 458 740 q 446 769 458 769 q 390 738 390 769 l 396 674 q 378 621 396 665 q 360 550 360 576 q 367 524 360 524 q 404 533 379 524 q 453 542 429 542 q 478 553 478 542 m 214 847 l 196 928 q 302 998 196 940 q 428 1060 408 1056 q 499 1064 447 1064 q 594 1054 550 1064 q 689 1014 689 1033 q 682 978 689 1013 q 660 806 660 869 q 674 795 660 799 q 688 790 688 792 q 715 522 688 746 q 761 239 742 297 l 761 238 q 740 219 761 235 q 718 186 718 204 q 740 161 718 168 q 782 151 761 154 q 803 136 803 147 q 801 126 801 133 q 806 101 801 119 q 839 28 810 74 l 847 14 q 769 -37 847 -10 q 652 -64 690 -64 q 577 -49 614 -64 q 517 -18 540 -35 q 494 6 494 -1 q 497 21 494 7 q 504 96 504 56 l 474 286 q 499 296 474 292 q 524 314 524 300 q 503 344 524 332 q 452 357 482 357 q 381 342 422 357 q 334 313 340 326 q 314 190 328 300 q 300 25 300 79 q 226 -6 300 14 q 104 -25 153 -25 q 22 11 79 -25 l 4 22 q 0 35 0 26 l 0 38 q 50 150 21 64 l 61 181 q 103 202 79 181 q 128 233 128 224 q 113 262 128 242 q 97 286 97 282 l 97 288 l 149 415 q 181 631 149 446 q 214 847 214 815 m 651 1171 q 603 1131 651 1161 q 542 1101 556 1101 q 480 1126 528 1101 q 421 1151 432 1151 q 361 1136 410 1151 q 309 1121 313 1121 q 297 1148 306 1121 q 288 1189 288 1175 q 395 1253 378 1253 q 476 1230 413 1253 q 547 1207 540 1207 q 588 1222 553 1207 q 628 1238 624 1238 q 642 1215 632 1238 q 651 1171 651 1193 z "},"":{"ha":850,"x_min":0,"x_max":847,"o":"m 390 1235 q 383 1185 390 1207 q 361 1150 375 1164 q 322 1133 350 1142 q 269 1124 294 1124 q 232 1135 243 1124 q 231 1150 231 1136 q 215 1171 231 1171 l 207 1171 q 197 1174 201 1171 q 193 1212 193 1178 q 195 1249 193 1246 q 212 1268 197 1253 q 242 1292 226 1283 q 315 1310 301 1310 q 349 1303 329 1310 q 369 1292 369 1297 q 364 1265 364 1278 q 390 1235 390 1243 m 699 1217 q 685 1163 697 1175 q 665 1150 672 1150 q 638 1131 658 1150 q 614 1113 617 1113 l 554 1121 q 494 1163 535 1128 q 490 1188 490 1167 q 495 1233 490 1208 q 506 1258 500 1258 q 581 1304 524 1258 q 606 1310 594 1310 q 676 1272 676 1293 q 668 1252 668 1260 q 683 1235 668 1244 q 699 1217 699 1225 m 478 553 q 476 557 476 556 q 458 735 458 614 l 458 740 q 446 769 458 769 q 390 738 390 769 l 396 674 q 378 621 396 665 q 360 550 360 576 q 367 524 360 524 q 404 533 379 524 q 453 542 429 542 q 478 553 478 542 m 214 847 l 196 928 q 302 998 196 940 q 428 1060 408 1056 q 499 1064 447 1064 q 594 1054 550 1064 q 689 1014 689 1033 q 682 978 689 1013 q 660 806 660 869 q 674 795 660 799 q 688 790 688 792 q 715 522 688 746 q 761 239 742 297 l 761 238 q 740 219 761 235 q 718 186 718 204 q 740 161 718 168 q 782 151 761 154 q 803 136 803 147 q 801 126 801 133 q 806 101 801 119 q 839 28 810 74 l 847 14 q 769 -37 847 -10 q 652 -64 690 -64 q 577 -49 614 -64 q 517 -18 540 -35 q 494 6 494 -1 q 497 21 494 7 q 504 96 504 56 l 474 286 q 499 296 474 292 q 524 314 524 300 q 503 344 524 332 q 452 357 482 357 q 381 342 422 357 q 334 313 340 326 q 314 190 328 300 q 300 25 300 79 q 226 -6 300 14 q 104 -25 153 -25 q 22 11 79 -25 l 4 22 q 0 35 0 26 l 0 38 q 50 150 21 64 l 61 181 q 103 202 79 181 q 128 233 128 224 q 113 262 128 242 q 97 286 97 282 l 97 288 l 149 415 q 181 631 149 446 q 214 847 214 815 z "},"":{"ha":850,"x_min":0,"x_max":847,"o":"m 469 1194 q 479 1215 479 1201 q 475 1228 479 1228 q 465 1247 471 1228 q 449 1265 460 1265 q 418 1257 418 1265 q 406 1244 418 1256 q 394 1224 394 1232 q 406 1192 400 1199 q 444 1182 428 1181 q 469 1194 460 1183 m 539 1272 l 560 1228 q 531 1144 560 1174 q 506 1129 526 1140 q 469 1107 486 1118 q 449 1106 467 1106 l 383 1108 q 346 1158 371 1111 q 342 1160 344 1160 l 332 1158 q 322 1191 326 1158 q 317 1242 317 1224 q 354 1292 317 1249 q 403 1336 392 1335 l 417 1336 l 461 1332 l 464 1333 q 485 1342 472 1342 q 519 1319 499 1342 q 539 1272 539 1297 m 478 553 q 476 557 476 556 q 458 735 458 614 l 458 740 q 446 769 458 769 q 390 738 390 769 l 396 674 q 378 621 396 665 q 360 550 360 576 q 367 524 360 524 q 404 533 379 524 q 453 542 429 542 q 478 553 478 542 m 214 847 l 196 928 q 302 998 196 940 q 428 1060 408 1056 q 499 1064 447 1064 q 594 1054 550 1064 q 689 1014 689 1033 q 682 978 689 1013 q 660 806 660 869 q 674 795 660 799 q 688 790 688 792 q 715 522 688 746 q 761 239 742 297 l 761 238 q 740 219 761 235 q 718 186 718 204 q 740 161 718 168 q 782 151 761 154 q 803 136 803 147 q 801 126 801 133 q 806 101 801 119 q 839 28 810 74 l 847 14 q 769 -37 847 -10 q 652 -64 690 -64 q 577 -49 614 -64 q 517 -18 540 -35 q 494 6 494 -1 q 497 21 494 7 q 504 96 504 56 l 474 286 q 499 296 474 292 q 524 314 524 300 q 503 344 524 332 q 452 357 482 357 q 381 342 422 357 q 334 313 340 326 q 314 190 328 300 q 300 25 300 79 q 226 -6 300 14 q 104 -25 153 -25 q 22 11 79 -25 l 4 22 q 0 35 0 26 l 0 38 q 50 150 21 64 l 61 181 q 103 202 79 181 q 128 233 128 224 q 113 262 128 242 q 97 286 97 282 l 97 288 l 149 415 q 181 631 149 446 q 214 847 214 815 z "},"":{"ha":1169,"x_min":0,"x_max":1163,"o":"m 389 740 l 394 675 q 377 623 394 668 q 360 552 360 578 q 365 526 360 526 q 403 535 379 526 q 453 544 428 544 q 478 554 478 544 q 478 556 478 556 q 458 728 458 613 l 458 743 q 444 772 458 772 q 389 740 389 772 m 213 849 l 196 931 q 301 1001 196 943 q 428 1063 407 1058 q 502 1067 449 1067 q 607 1047 556 1067 q 778 1069 683 1069 q 808 1055 796 1069 q 828 1040 819 1040 q 911 1053 838 1040 q 1056 1067 985 1067 q 1126 1044 1126 1067 q 1110 937 1126 1004 q 1082 857 1094 869 q 1017 844 1069 844 q 1002 865 1011 844 q 969 905 993 885 q 915 925 944 925 q 851 913 885 925 q 810 894 818 901 q 803 824 803 886 q 810 731 803 761 l 810 728 q 789 711 810 717 q 753 654 753 701 q 799 646 753 646 l 1021 658 q 1056 657 1049 658 q 1064 647 1064 656 q 1032 536 1064 610 q 982 463 1000 463 l 958 475 q 908 488 935 488 q 797 478 807 488 q 792 347 792 469 q 813 202 792 224 q 905 181 835 181 q 994 199 975 181 q 1034 250 1014 218 q 1066 305 1054 282 q 1079 328 1078 328 q 1127 293 1092 328 q 1163 242 1163 258 q 1133 128 1163 226 q 1090 17 1103 29 q 1081 14 1088 14 l 1001 22 q 926 19 950 22 q 901 17 903 17 l 826 28 q 839 -12 826 15 q 769 -48 839 -35 q 656 -61 700 -61 q 576 -47 613 -61 q 516 -17 539 -33 q 493 7 493 0 q 494 22 493 8 q 503 99 503 74 l 472 289 q 497 297 472 293 q 522 315 522 301 q 501 346 522 333 q 451 358 481 358 q 381 343 422 358 q 333 315 339 328 q 313 191 326 301 q 299 26 299 81 q 264 8 299 21 q 103 -22 175 -22 q 22 14 79 -22 l 4 25 q 0 36 0 29 l 0 39 q 50 153 19 64 l 61 183 q 102 205 78 183 q 126 235 126 226 q 112 265 126 244 q 97 289 97 285 l 97 290 l 149 418 q 181 633 149 450 q 213 849 213 817 z "},"":{"ha":742,"x_min":19,"x_max":719,"o":"m 310 429 l 311 350 q 308 299 311 326 l 308 296 q 346 222 308 268 q 425 175 383 175 q 492 236 444 175 q 540 353 540 297 q 557 360 540 360 l 561 360 q 613 335 571 358 q 668 299 656 311 q 700 252 681 286 q 719 213 719 218 q 646 79 719 161 q 549 -3 572 -3 q 533 9 544 -3 q 513 21 522 21 q 489 13 504 21 q 388 -26 432 -18 q 368 -60 368 -49 q 372 -72 368 -71 q 386 -76 375 -72 q 405 -83 397 -81 q 424 -92 413 -86 q 443 -103 436 -97 q 461 -128 461 -117 l 461 -135 q 443 -207 461 -186 q 385 -253 428 -226 q 358 -258 375 -258 q 286 -244 325 -258 l 272 -239 q 269 -229 269 -236 q 281 -203 269 -222 q 299 -183 292 -183 l 300 -183 q 338 -189 318 -189 l 369 -183 q 382 -144 382 -175 l 381 -137 q 338 -124 378 -135 q 288 -114 297 -114 q 279 -108 279 -114 q 292 -71 279 -97 q 317 -29 306 -44 q 198 24 274 -17 q 106 93 122 65 q 44 219 68 153 q 21 303 21 285 l 42 322 q 63 359 63 342 q 44 394 63 376 q 26 417 25 413 q 26 442 26 422 l 19 574 q 35 671 19 608 q 50 748 50 733 q 42 784 50 763 q 35 807 35 806 q 136 931 35 842 q 296 1042 238 1021 q 564 1072 401 1072 q 645 1024 601 1072 q 689 960 689 975 q 675 939 689 958 q 661 905 661 919 q 684 874 661 890 q 707 853 707 858 l 707 833 q 690 747 707 775 q 647 699 679 732 q 601 661 614 665 q 467 640 543 640 q 453 650 461 640 q 444 667 444 660 l 444 669 q 468 788 468 692 q 456 815 468 803 q 444 833 444 828 l 444 836 l 446 846 q 438 889 446 868 q 411 910 429 910 q 342 874 378 910 q 307 806 307 838 l 311 786 q 301 736 311 781 q 292 656 292 692 q 308 633 292 650 q 325 601 325 617 q 303 565 325 585 q 281 536 281 546 q 290 517 281 526 q 307 501 299 507 q 315 493 315 496 q 310 429 310 472 z "},"":{"ha":706,"x_min":28,"x_max":699,"o":"m 290 1224 l 271 1222 l 269 1222 q 242 1251 269 1224 q 215 1282 215 1279 q 258 1310 215 1289 q 322 1331 300 1331 q 401 1313 399 1315 q 489 1160 463 1186 l 489 1158 q 455 1132 489 1143 q 396 1121 421 1121 q 351 1152 389 1121 q 307 1183 313 1183 q 306 1190 306 1183 l 306 1204 q 302 1220 306 1217 q 290 1224 299 1224 m 331 644 l 557 657 q 600 644 600 657 q 568 527 600 607 q 518 447 536 447 l 494 461 q 444 474 471 474 q 336 465 344 474 q 328 340 328 457 q 350 200 328 222 q 442 178 372 178 q 530 197 511 178 q 569 247 549 215 q 601 302 589 279 q 615 325 614 325 q 663 290 628 325 q 699 240 699 256 q 669 126 699 224 q 626 15 639 28 q 615 13 625 13 l 536 21 q 453 17 486 21 q 415 14 419 14 q 392 22 410 14 q 367 31 375 31 q 355 26 360 31 q 346 15 350 22 q 321 -1 336 -1 l 263 6 q 176 -4 222 6 q 108 -14 129 -14 q 58 -6 88 -14 q 28 11 28 1 q 35 39 28 14 q 57 148 57 117 q 54 189 57 179 q 72 202 54 190 q 89 233 89 214 q 64 269 89 253 q 39 286 39 285 l 51 344 q 64 424 64 403 q 60 456 64 444 q 57 468 57 467 l 57 471 q 68 588 68 524 q 63 709 68 653 q 58 767 58 765 q 72 779 58 768 q 86 805 86 790 q 72 846 86 819 q 33 1029 33 925 q 129 1056 33 1044 q 313 1068 225 1068 q 343 1053 331 1068 q 365 1038 356 1038 q 447 1051 374 1038 q 561 1065 519 1065 q 663 1042 663 1065 q 646 934 663 1001 q 621 858 629 867 q 551 842 607 842 q 537 862 546 842 q 503 902 528 882 q 450 922 479 922 q 388 910 421 922 q 346 890 354 899 q 338 820 338 882 q 344 728 338 758 l 344 724 q 317 706 344 714 q 289 651 289 697 q 331 644 289 644 z "},"":{"ha":706,"x_min":28,"x_max":699,"o":"m 386 1206 l 389 1185 q 376 1176 389 1181 q 332 1145 364 1172 q 294 1111 300 1118 q 281 1104 288 1104 q 247 1126 274 1104 q 219 1160 219 1149 q 254 1216 219 1172 q 289 1263 289 1260 q 290 1281 290 1279 q 326 1324 324 1322 q 356 1330 328 1326 q 401 1333 385 1333 q 452 1310 418 1333 q 486 1274 486 1286 q 475 1261 486 1269 q 419 1218 432 1232 q 403 1217 419 1217 q 386 1206 386 1217 m 331 644 l 557 657 q 600 644 600 657 q 568 527 600 607 q 518 447 536 447 l 494 461 q 444 474 471 474 q 336 465 344 474 q 328 340 328 457 q 350 200 328 222 q 442 178 372 178 q 530 197 511 178 q 569 247 549 215 q 601 302 589 279 q 615 325 614 325 q 663 290 628 325 q 699 240 699 256 q 669 126 699 224 q 626 15 639 28 q 615 13 625 13 l 536 21 q 453 17 486 21 q 415 14 419 14 q 392 22 410 14 q 367 31 375 31 q 355 26 360 31 q 346 15 350 22 q 321 -1 336 -1 l 263 6 q 176 -4 222 6 q 108 -14 129 -14 q 58 -6 88 -14 q 28 11 28 1 q 35 39 28 14 q 57 148 57 117 q 54 189 57 179 q 72 202 54 190 q 89 233 89 214 q 64 269 89 253 q 39 286 39 285 l 51 344 q 64 424 64 403 q 60 456 64 444 q 57 468 57 467 l 57 471 q 68 588 68 524 q 63 709 68 653 q 58 767 58 765 q 72 779 58 768 q 86 805 86 790 q 72 846 86 819 q 33 1029 33 925 q 129 1056 33 1044 q 313 1068 225 1068 q 343 1053 331 1068 q 365 1038 356 1038 q 447 1051 374 1038 q 561 1065 519 1065 q 663 1042 663 1065 q 646 934 663 1001 q 621 858 629 867 q 551 842 607 842 q 537 862 546 842 q 503 902 528 882 q 450 922 479 922 q 388 910 421 922 q 346 890 354 899 q 338 820 338 882 q 344 728 338 758 l 344 724 q 317 706 344 714 q 289 651 289 697 q 331 644 289 644 z "},"":{"ha":706,"x_min":28,"x_max":699,"o":"m 231 1268 l 225 1296 q 260 1336 250 1336 l 289 1336 q 333 1332 331 1336 q 361 1311 358 1311 q 396 1332 364 1311 q 430 1339 400 1339 q 465 1335 460 1339 q 492 1295 469 1331 q 514 1254 514 1260 q 510 1225 510 1239 q 539 1211 510 1211 q 576 1159 576 1164 q 574 1151 576 1154 q 567 1146 571 1149 q 555 1135 563 1143 q 531 1120 547 1128 q 499 1110 515 1113 q 467 1115 467 1110 l 414 1178 q 390 1189 390 1182 q 378 1227 390 1207 q 357 1247 365 1247 q 319 1208 350 1247 l 308 1194 q 300 1167 308 1172 q 252 1139 278 1167 q 225 1111 226 1111 q 181 1122 203 1111 q 149 1142 160 1132 q 139 1154 139 1151 l 167 1197 q 193 1247 193 1240 q 231 1268 231 1256 m 331 644 l 557 657 q 600 644 600 657 q 568 527 600 607 q 518 447 536 447 l 494 461 q 444 474 471 474 q 336 465 344 474 q 328 340 328 457 q 350 200 328 222 q 442 178 372 178 q 530 197 511 178 q 569 247 549 215 q 601 302 589 279 q 615 325 614 325 q 663 290 628 325 q 699 240 699 256 q 669 126 699 224 q 626 15 639 28 q 615 13 625 13 l 536 21 q 453 17 486 21 q 415 14 419 14 q 392 22 410 14 q 367 31 375 31 q 355 26 360 31 q 346 15 350 22 q 321 -1 336 -1 l 263 6 q 176 -4 222 6 q 108 -14 129 -14 q 58 -6 88 -14 q 28 11 28 1 q 35 39 28 14 q 57 148 57 117 q 54 189 57 179 q 72 202 54 190 q 89 233 89 214 q 64 269 89 253 q 39 286 39 285 l 51 344 q 64 424 64 403 q 60 456 64 444 q 57 468 57 467 l 57 471 q 68 588 68 524 q 63 709 68 653 q 58 767 58 765 q 72 779 58 768 q 86 805 86 790 q 72 846 86 819 q 33 1029 33 925 q 129 1056 33 1044 q 313 1068 225 1068 q 343 1053 331 1068 q 365 1038 356 1038 q 447 1051 374 1038 q 561 1065 519 1065 q 663 1042 663 1065 q 646 934 663 1001 q 621 858 629 867 q 551 842 607 842 q 537 862 546 842 q 503 902 528 882 q 450 922 479 922 q 388 910 421 922 q 346 890 354 899 q 338 820 338 882 q 344 728 338 758 l 344 724 q 317 706 344 714 q 289 651 289 697 q 331 644 289 644 z "},"":{"ha":706,"x_min":28,"x_max":699,"o":"m 297 1235 q 290 1185 297 1207 q 270 1153 283 1164 q 229 1133 257 1142 q 176 1124 201 1124 q 139 1135 150 1124 q 138 1150 138 1136 q 122 1171 138 1171 l 114 1171 q 104 1174 108 1171 q 100 1212 100 1178 q 102 1249 100 1246 q 119 1268 104 1253 q 149 1292 133 1283 q 222 1310 208 1310 q 256 1303 236 1310 q 276 1292 276 1297 q 271 1265 271 1278 q 297 1235 297 1243 m 606 1217 q 592 1163 604 1175 q 572 1150 579 1150 q 544 1131 564 1150 q 521 1113 525 1113 l 461 1121 q 401 1163 442 1128 q 397 1188 397 1167 q 402 1233 397 1208 q 413 1258 407 1258 q 488 1304 431 1258 q 513 1310 501 1310 q 583 1272 583 1293 q 575 1252 575 1260 q 590 1235 575 1244 q 606 1217 606 1225 m 331 644 l 557 657 q 600 644 600 657 q 568 527 600 607 q 518 447 536 447 l 494 461 q 444 474 471 474 q 336 465 344 474 q 328 340 328 457 q 350 200 328 222 q 442 178 372 178 q 530 197 511 178 q 569 247 549 215 q 601 302 589 279 q 615 325 614 325 q 663 290 628 325 q 699 240 699 256 q 669 126 699 224 q 626 15 639 28 q 615 13 625 13 l 536 21 q 453 17 486 21 q 415 14 419 14 q 392 22 410 14 q 367 31 375 31 q 355 26 360 31 q 346 15 350 22 q 321 -1 336 -1 l 263 6 q 176 -4 222 6 q 108 -14 129 -14 q 58 -6 88 -14 q 28 11 28 1 q 35 39 28 14 q 57 148 57 117 q 54 189 57 179 q 72 202 54 190 q 89 233 89 214 q 64 269 89 253 q 39 286 39 285 l 51 344 q 64 424 64 403 q 60 456 64 444 q 57 468 57 467 l 57 471 q 68 588 68 524 q 63 709 68 653 q 58 767 58 765 q 72 779 58 768 q 86 805 86 790 q 72 846 86 819 q 33 1029 33 925 q 129 1056 33 1044 q 313 1068 225 1068 q 343 1053 331 1068 q 365 1038 356 1038 q 447 1051 374 1038 q 561 1065 519 1065 q 663 1042 663 1065 q 646 934 663 1001 q 621 858 629 867 q 551 842 607 842 q 537 862 546 842 q 503 902 528 882 q 450 922 479 922 q 388 910 421 922 q 346 890 354 899 q 338 820 338 882 q 344 728 338 758 l 344 724 q 317 706 344 714 q 289 651 289 697 q 331 644 289 644 z "},"":{"ha":386,"x_min":28,"x_max":358,"o":"m 132 1236 l 113 1235 l 111 1235 q 84 1264 111 1236 q 57 1294 57 1292 q 99 1322 57 1301 q 164 1343 142 1343 q 243 1325 240 1328 q 331 1172 304 1199 l 331 1171 q 297 1144 331 1156 q 238 1133 263 1133 q 192 1165 231 1133 q 149 1196 154 1196 q 147 1203 147 1196 l 147 1217 q 144 1233 147 1229 q 132 1236 140 1236 m 324 282 q 321 190 321 256 q 358 50 321 125 q 342 32 358 43 q 319 16 326 21 q 301 1 313 11 q 282 -14 289 -8 q 254 -29 263 -29 q 122 -14 214 -29 q 29 17 29 1 q 36 86 29 25 q 44 154 43 147 l 54 174 q 67 354 67 311 q 63 461 67 397 q 56 562 60 525 q 53 601 53 599 q 64 610 53 603 q 94 654 94 631 q 72 690 94 678 q 49 706 49 701 q 56 770 49 719 q 63 849 63 821 q 45 926 63 876 q 28 983 28 976 q 92 1034 28 994 q 184 1074 157 1074 q 274 1056 211 1074 q 336 1018 336 1039 q 321 942 336 1003 q 306 872 306 881 q 315 858 306 864 q 324 843 324 851 q 308 630 308 685 q 310 566 308 575 q 318 546 311 557 q 325 524 325 535 q 303 504 325 522 q 282 472 282 486 q 306 439 282 458 q 329 399 329 419 q 324 369 325 371 q 303 352 324 367 q 282 332 282 338 l 282 322 q 310 294 282 304 q 324 282 324 289 z "},"":{"ha":386,"x_min":28,"x_max":358,"o":"m 226 1206 l 229 1185 q 217 1176 229 1181 q 172 1145 204 1172 q 134 1111 140 1118 q 121 1104 128 1104 q 87 1126 114 1104 q 60 1160 60 1149 q 94 1216 60 1172 q 129 1263 129 1260 q 131 1281 131 1279 q 166 1324 164 1322 q 197 1330 168 1326 q 242 1333 225 1333 q 292 1310 258 1333 q 326 1274 326 1286 q 315 1261 326 1269 q 260 1218 272 1232 q 242 1217 258 1217 q 226 1206 226 1217 m 324 282 q 321 190 321 256 q 358 50 321 125 q 342 32 358 43 q 319 16 326 21 q 301 1 313 11 q 282 -14 289 -8 q 254 -29 263 -29 q 122 -14 214 -29 q 29 17 29 1 q 36 86 29 25 q 44 154 43 147 l 54 174 q 67 354 67 311 q 63 461 67 397 q 56 562 60 525 q 53 601 53 599 q 64 610 53 603 q 94 654 94 631 q 72 690 94 678 q 49 706 49 701 q 56 770 49 719 q 63 849 63 821 q 45 926 63 876 q 28 983 28 976 q 92 1034 28 994 q 184 1074 157 1074 q 274 1056 211 1074 q 336 1018 336 1039 q 321 942 336 1003 q 306 872 306 881 q 315 858 306 864 q 324 843 324 851 q 308 630 308 685 q 310 566 308 575 q 318 546 311 557 q 325 524 325 535 q 303 504 325 522 q 282 472 282 486 q 306 439 282 458 q 329 399 329 419 q 324 369 325 371 q 303 352 324 367 q 282 332 282 338 l 282 322 q 310 294 282 304 q 324 282 324 289 z "},"":{"ha":386,"x_min":-25,"x_max":413,"o":"m 67 1268 l 61 1296 q 96 1336 86 1336 l 125 1336 q 169 1332 167 1336 q 197 1311 194 1311 q 232 1332 200 1311 q 266 1339 236 1339 q 301 1335 296 1339 q 328 1295 306 1331 q 350 1254 350 1260 q 346 1225 346 1239 q 375 1211 346 1211 q 413 1159 413 1164 q 410 1151 413 1154 q 403 1146 407 1149 q 391 1135 399 1143 q 367 1120 383 1128 q 335 1110 351 1113 q 303 1115 303 1110 l 250 1178 q 226 1189 226 1182 q 214 1227 226 1207 q 193 1247 201 1247 q 156 1208 186 1247 l 144 1194 q 136 1167 144 1172 q 88 1139 114 1167 q 61 1111 63 1111 q 17 1122 39 1111 q -15 1142 -4 1132 q -25 1154 -25 1151 l 3 1197 q 29 1247 29 1240 q 67 1268 67 1256 m 324 282 q 321 190 321 256 q 358 50 321 125 q 342 32 358 43 q 319 16 326 21 q 301 1 313 11 q 282 -14 289 -8 q 254 -29 263 -29 q 122 -14 214 -29 q 29 17 29 1 q 36 86 29 25 q 44 154 43 147 l 54 174 q 67 354 67 311 q 63 461 67 397 q 56 562 60 525 q 53 601 53 599 q 64 610 53 603 q 94 654 94 631 q 72 690 94 678 q 49 706 49 701 q 56 770 49 719 q 63 849 63 821 q 45 926 63 876 q 28 983 28 976 q 92 1034 28 994 q 184 1074 157 1074 q 274 1056 211 1074 q 336 1018 336 1039 q 321 942 336 1003 q 306 872 306 881 q 315 858 306 864 q 324 843 324 851 q 308 630 308 685 q 310 566 308 575 q 318 546 311 557 q 325 524 325 535 q 303 504 325 522 q 282 472 282 486 q 306 439 282 458 q 329 399 329 419 q 324 369 325 371 q 303 352 324 367 q 282 332 282 338 l 282 322 q 310 294 282 304 q 324 282 324 289 z "},"":{"ha":386,"x_min":-60,"x_max":446,"o":"m 138 1235 q 130 1185 138 1207 q 108 1150 122 1164 q 69 1133 97 1142 q 16 1124 42 1124 q -21 1135 -10 1124 q -22 1150 -22 1136 q -37 1171 -22 1171 l -46 1171 q -56 1174 -51 1171 q -60 1212 -60 1178 q -58 1249 -60 1246 q -41 1268 -56 1253 q -11 1292 -26 1283 q 63 1310 49 1310 q 97 1303 76 1310 q 117 1292 117 1297 q 111 1265 111 1278 q 138 1235 138 1243 m 446 1217 q 432 1163 444 1175 q 413 1150 419 1150 q 385 1131 406 1150 q 361 1113 364 1113 l 301 1121 q 242 1163 282 1128 q 238 1188 238 1167 q 242 1233 238 1208 q 253 1258 247 1258 q 328 1304 271 1258 q 353 1310 342 1310 q 424 1272 424 1293 q 415 1252 415 1260 q 431 1235 415 1244 q 446 1217 446 1225 m 324 282 q 321 190 321 256 q 358 50 321 125 q 342 32 358 43 q 319 16 326 21 q 301 1 313 11 q 282 -14 289 -8 q 254 -29 263 -29 q 122 -14 214 -29 q 29 17 29 1 q 36 86 29 25 q 44 154 43 147 l 54 174 q 67 354 67 311 q 63 461 67 397 q 56 562 60 525 q 53 601 53 599 q 64 610 53 603 q 94 654 94 631 q 72 690 94 678 q 49 706 49 701 q 56 770 49 719 q 63 849 63 821 q 45 926 63 876 q 28 983 28 976 q 92 1034 28 994 q 184 1074 157 1074 q 274 1056 211 1074 q 336 1018 336 1039 q 321 942 336 1003 q 306 872 306 881 q 315 858 306 864 q 324 843 324 851 q 308 630 308 685 q 310 566 308 575 q 318 546 311 557 q 325 524 325 535 q 303 504 325 522 q 282 472 282 486 q 306 439 282 458 q 329 399 329 419 q 324 369 325 371 q 303 352 324 367 q 282 332 282 338 l 282 322 q 310 294 282 304 q 324 282 324 289 z "},"":{"ha":785,"x_min":-21,"x_max":764,"o":"m 338 454 q 333 363 333 421 q 344 239 333 306 q 314 186 344 213 q 304 173 304 178 q 314 158 304 168 q 342 147 324 147 q 388 162 360 147 q 432 190 417 176 l 447 204 q 475 297 475 232 l 469 357 q 490 372 469 361 q 510 396 510 383 q 481 439 510 418 q 456 468 464 444 q 465 497 456 471 q 494 598 494 576 q 492 628 494 619 q 471 743 476 654 q 453 855 465 832 q 419 894 440 878 q 382 917 397 911 l 367 922 q 346 915 357 922 q 336 900 335 908 q 338 838 338 892 q 331 731 338 783 l 331 729 q 347 705 331 722 q 363 676 363 688 q 342 642 363 665 q 322 613 322 619 q 328 597 322 606 l 425 589 q 438 536 438 569 q 422 499 438 532 q 407 446 407 465 q 376 440 388 440 q 361 443 364 440 q 338 454 357 451 m 760 500 l 764 439 q 760 426 764 428 q 739 354 739 408 q 715 260 726 265 q 658 217 658 250 q 672 191 658 203 q 685 174 685 179 q 648 126 685 168 q 572 57 611 83 q 476 2 533 31 q 392 -26 419 -26 q 383 -18 389 -26 q 368 -10 376 -10 l 235 -21 q 85 -1 163 -21 l 57 6 q 43 19 50 8 q 36 36 36 31 l 38 39 q 61 186 61 75 l 61 189 q 83 203 61 192 q 104 235 104 215 q 79 274 104 254 q 54 297 54 293 l 54 299 q 67 449 64 340 l 39 447 l 35 447 q 1 442 24 442 q -21 447 -21 442 q -3 567 -21 517 l 4 583 q 68 594 15 594 l 68 613 q 54 681 68 650 l 54 683 l 68 719 q 71 751 71 728 l 65 869 q 36 947 58 913 q 14 983 14 981 q 17 992 14 985 q 42 1024 26 1015 q 159 1057 57 1033 q 297 1081 261 1081 q 426 1064 332 1081 q 553 1031 519 1047 q 650 952 586 1014 q 714 875 714 890 q 701 849 714 871 q 689 818 689 828 q 715 792 689 808 q 744 763 742 776 q 761 647 758 686 l 763 614 q 761 544 763 589 l 760 500 z "},"":{"ha":853,"x_min":28,"x_max":825,"o":"m 651 1171 q 603 1131 651 1161 q 542 1101 556 1101 q 480 1126 528 1101 q 421 1151 432 1151 q 361 1136 410 1151 q 309 1121 313 1121 q 297 1148 306 1121 q 288 1189 288 1175 q 395 1253 378 1253 q 476 1230 413 1253 q 547 1207 540 1207 q 588 1222 553 1207 q 628 1238 624 1238 q 642 1215 632 1238 q 651 1171 651 1193 m 282 260 l 279 471 q 285 563 279 557 q 319 551 311 560 q 378 311 378 360 q 392 303 381 308 q 422 276 422 289 q 417 251 422 263 q 406 234 411 240 q 401 226 401 228 l 410 211 q 435 121 422 181 q 447 22 447 61 q 527 -1 447 13 q 632 -15 607 -15 q 706 3 657 -15 q 789 43 756 22 q 822 71 822 64 l 822 72 q 790 219 790 138 q 798 241 790 232 q 806 256 806 250 q 769 294 806 269 l 758 303 q 793 363 758 328 q 789 467 789 386 l 793 685 l 785 722 q 803 744 785 725 q 822 774 822 764 q 794 817 822 783 q 817 1042 794 886 l 825 1094 q 758 1110 825 1106 l 735 1111 q 606 1061 686 1111 q 578 1042 578 1044 l 593 979 q 583 953 593 974 q 572 926 572 933 q 579 913 572 919 q 610 860 599 893 q 596 834 610 853 q 582 810 582 815 q 604 578 604 785 l 604 565 q 597 558 604 558 l 578 565 q 534 674 571 572 q 497 793 497 775 l 503 842 q 470 865 503 857 q 438 879 438 874 q 465 936 438 911 l 465 939 l 440 1047 q 272 1071 417 1071 l 225 1069 q 133 1058 210 1058 l 126 1058 q 71 1031 114 1058 q 28 998 28 1004 q 54 909 28 992 q 81 815 81 826 q 69 790 81 804 q 58 775 58 776 q 71 690 71 710 q 64 619 64 640 q 67 596 64 599 l 79 585 q 107 548 107 560 q 99 525 107 536 q 82 508 90 514 q 74 501 74 503 q 72 451 72 479 q 76 418 72 422 q 81 374 81 414 l 75 201 q 76 188 75 189 q 43 13 43 93 q 96 -13 43 6 q 162 -32 149 -32 q 176 -31 175 -32 q 296 26 267 18 q 318 50 318 36 q 308 100 318 54 q 299 168 299 146 q 256 188 256 168 q 263 211 256 193 q 281 239 271 229 q 282 260 282 247 z "},"":{"ha":819,"x_min":14,"x_max":806,"o":"m 347 1224 l 328 1222 l 326 1222 q 299 1251 326 1224 q 272 1282 272 1279 q 315 1310 272 1289 q 379 1331 357 1331 q 458 1313 456 1315 q 546 1160 519 1186 l 546 1158 q 512 1132 546 1143 q 453 1121 478 1121 q 408 1152 446 1121 q 364 1183 369 1183 q 363 1190 363 1183 l 363 1204 q 359 1220 363 1217 q 347 1224 356 1224 m 344 813 l 367 749 q 346 721 367 746 q 325 684 325 696 q 344 657 325 672 q 363 633 363 642 q 331 408 331 478 q 364 360 331 393 q 367 349 367 357 q 353 312 367 342 q 340 276 340 282 q 374 200 340 239 q 436 161 407 161 q 467 176 454 161 q 492 204 481 190 l 504 218 q 506 222 506 219 q 490 251 506 225 q 474 286 474 276 q 488 340 474 296 q 503 403 503 383 l 481 425 q 479 433 479 426 l 479 436 q 469 469 479 460 l 468 474 q 501 524 471 488 q 508 581 508 531 l 501 715 q 480 744 501 728 q 458 765 458 761 q 478 847 458 801 l 485 863 q 447 900 485 879 l 435 907 q 378 873 411 907 q 344 813 344 839 m 739 315 q 767 263 739 288 q 746 185 767 232 q 702 107 725 139 q 672 75 679 75 q 598 57 640 75 q 529 21 556 39 l 503 3 q 375 -22 489 -10 l 338 -26 q 217 23 279 -26 q 122 118 154 72 q 89 169 89 164 q 95 193 89 175 q 101 228 101 211 q 58 261 101 261 l 47 260 q 19 408 36 260 l 14 457 l 31 646 q 47 674 31 650 q 64 703 64 697 l 61 822 q 65 882 61 876 q 181 979 83 907 q 326 1051 278 1051 q 347 1075 336 1075 q 509 1079 417 1079 q 617 1064 601 1079 q 649 1035 618 1063 q 700 986 679 1007 q 741 935 721 965 q 761 883 761 904 l 733 849 q 777 715 749 817 q 806 568 806 613 q 785 351 800 351 q 739 315 739 333 z "},"":{"ha":819,"x_min":14,"x_max":806,"o":"m 457 1206 l 460 1185 q 447 1176 460 1181 q 403 1145 435 1172 q 365 1111 371 1118 q 351 1104 358 1104 q 317 1126 344 1104 q 290 1160 290 1149 q 325 1216 290 1172 q 360 1263 360 1260 q 361 1281 361 1279 q 397 1324 394 1322 q 427 1330 399 1326 q 472 1333 456 1333 q 523 1310 489 1333 q 557 1274 557 1286 q 546 1261 557 1269 q 490 1218 503 1232 q 473 1217 489 1217 q 457 1206 457 1217 m 344 813 l 367 749 q 346 721 367 746 q 325 684 325 696 q 344 657 325 672 q 363 633 363 642 q 331 408 331 478 q 364 360 331 393 q 367 349 367 357 q 353 312 367 342 q 340 276 340 282 q 374 200 340 239 q 436 161 407 161 q 467 176 454 161 q 492 204 481 190 l 504 218 q 506 222 506 219 q 490 251 506 225 q 474 286 474 276 q 488 340 474 296 q 503 403 503 383 l 481 425 q 479 433 479 426 l 479 436 q 469 469 479 460 l 468 474 q 501 524 471 488 q 508 581 508 531 l 501 715 q 480 744 501 728 q 458 765 458 761 q 478 847 458 801 l 485 863 q 447 900 485 879 l 435 907 q 378 873 411 907 q 344 813 344 839 m 739 315 q 767 263 739 288 q 746 185 767 232 q 702 107 725 139 q 672 75 679 75 q 598 57 640 75 q 529 21 556 39 l 503 3 q 375 -22 489 -10 l 338 -26 q 217 23 279 -26 q 122 118 154 72 q 89 169 89 164 q 95 193 89 175 q 101 228 101 211 q 58 261 101 261 l 47 260 q 19 408 36 260 l 14 457 l 31 646 q 47 674 31 650 q 64 703 64 697 l 61 822 q 65 882 61 876 q 181 979 83 907 q 326 1051 278 1051 q 347 1075 336 1075 q 509 1079 417 1079 q 617 1064 601 1079 q 649 1035 618 1063 q 700 986 679 1007 q 741 935 721 965 q 761 883 761 904 l 733 849 q 777 715 749 817 q 806 568 806 613 q 785 351 800 351 q 739 315 739 333 z "},"":{"ha":819,"x_min":14,"x_max":806,"o":"m 296 1268 l 290 1296 q 325 1336 315 1336 l 354 1336 q 399 1332 396 1336 q 427 1311 424 1311 q 461 1332 431 1311 q 494 1339 464 1339 q 530 1335 525 1339 q 557 1295 535 1331 q 579 1254 579 1260 q 575 1225 575 1239 q 604 1211 575 1211 q 642 1159 642 1164 q 639 1151 642 1154 q 632 1146 636 1149 q 620 1135 628 1143 q 597 1120 613 1128 q 564 1110 581 1113 q 532 1115 532 1110 l 479 1178 q 456 1189 456 1182 q 443 1227 456 1207 q 422 1247 431 1247 q 383 1208 415 1247 l 374 1194 q 365 1167 374 1172 q 317 1139 343 1167 q 290 1111 292 1111 q 247 1122 268 1111 q 215 1142 225 1132 q 204 1154 204 1151 l 231 1197 q 258 1247 258 1240 q 296 1268 296 1256 m 344 813 l 367 749 q 346 721 367 746 q 325 684 325 696 q 344 657 325 672 q 363 633 363 642 q 331 408 331 478 q 364 360 331 393 q 367 349 367 357 q 353 312 367 342 q 340 276 340 282 q 374 200 340 239 q 436 161 407 161 q 467 176 454 161 q 492 204 481 190 l 504 218 q 506 222 506 219 q 490 251 506 225 q 474 286 474 276 q 488 340 474 296 q 503 403 503 383 l 481 425 q 479 433 479 426 l 479 436 q 469 469 479 460 l 468 474 q 501 524 471 488 q 508 581 508 531 l 501 715 q 480 744 501 728 q 458 765 458 761 q 478 847 458 801 l 485 863 q 447 900 485 879 l 435 907 q 378 873 411 907 q 344 813 344 839 m 739 315 q 767 263 739 288 q 746 185 767 232 q 702 107 725 139 q 672 75 679 75 q 598 57 640 75 q 529 21 556 39 l 503 3 q 375 -22 489 -10 l 338 -26 q 217 23 279 -26 q 122 118 154 72 q 89 169 89 164 q 95 193 89 175 q 101 228 101 211 q 58 261 101 261 l 47 260 q 19 408 36 260 l 14 457 l 31 646 q 47 674 31 650 q 64 703 64 697 l 61 822 q 65 882 61 876 q 181 979 83 907 q 326 1051 278 1051 q 347 1075 336 1075 q 509 1079 417 1079 q 617 1064 601 1079 q 649 1035 618 1063 q 700 986 679 1007 q 741 935 721 965 q 761 883 761 904 l 733 849 q 777 715 749 817 q 806 568 806 613 q 785 351 800 351 q 739 315 739 333 z "},"":{"ha":819,"x_min":14,"x_max":806,"o":"m 344 813 l 367 749 q 346 721 367 746 q 325 684 325 696 q 344 657 325 672 q 363 633 363 642 q 331 408 331 478 q 364 360 331 393 q 367 349 367 357 q 353 312 367 342 q 340 276 340 282 q 374 200 340 239 q 436 161 407 161 q 467 176 454 161 q 492 204 481 190 l 504 218 q 506 222 506 219 q 490 251 506 225 q 474 286 474 276 q 488 340 474 296 q 503 403 503 383 l 481 425 q 479 433 479 426 l 479 436 q 469 469 479 460 l 468 474 q 501 524 471 488 q 508 581 508 531 l 501 715 q 480 744 501 728 q 458 765 458 761 q 478 847 458 801 l 485 863 q 447 900 485 879 l 435 907 q 378 873 411 907 q 344 813 344 839 m 739 315 q 767 263 739 288 q 746 185 767 232 q 702 107 725 139 q 672 75 679 75 q 598 57 640 75 q 529 21 556 39 l 503 3 q 375 -22 489 -10 l 338 -26 q 217 23 279 -26 q 122 118 154 72 q 89 169 89 164 q 95 193 89 175 q 101 228 101 211 q 58 261 101 261 l 47 260 q 19 408 36 260 l 14 457 l 31 646 q 47 674 31 650 q 64 703 64 697 l 61 822 q 65 882 61 876 q 181 979 83 907 q 326 1051 278 1051 q 347 1075 336 1075 q 509 1079 417 1079 q 617 1064 601 1079 q 649 1035 618 1063 q 700 986 679 1007 q 741 935 721 965 q 761 883 761 904 l 733 849 q 777 715 749 817 q 806 568 806 613 q 785 351 800 351 q 739 315 739 333 m 638 1171 q 590 1131 638 1161 q 528 1101 542 1101 q 466 1126 514 1101 q 407 1151 418 1151 q 347 1136 396 1151 q 295 1121 299 1121 q 283 1148 292 1121 q 274 1189 274 1175 q 381 1253 364 1253 q 463 1230 399 1253 q 533 1207 526 1207 q 574 1222 539 1207 q 614 1238 610 1238 q 628 1215 618 1238 q 638 1171 638 1193 z "},"":{"ha":819,"x_min":14,"x_max":806,"o":"m 368 1235 q 360 1185 368 1207 q 339 1150 353 1164 q 300 1133 328 1142 q 247 1124 272 1124 q 210 1135 221 1124 q 208 1150 208 1136 q 193 1171 208 1171 l 185 1171 q 175 1174 179 1171 q 171 1212 171 1178 q 173 1249 171 1246 q 190 1268 175 1253 q 219 1292 204 1283 q 293 1310 279 1310 q 327 1303 307 1310 q 347 1292 347 1297 q 342 1265 342 1278 q 368 1235 368 1243 m 676 1217 q 663 1163 675 1175 q 643 1150 650 1150 q 615 1131 636 1150 q 592 1113 594 1113 l 532 1121 q 472 1163 513 1128 q 468 1188 468 1167 q 473 1233 468 1208 q 483 1258 478 1258 q 558 1304 501 1258 q 583 1310 572 1310 q 654 1272 654 1293 q 646 1252 646 1260 q 661 1235 646 1244 q 676 1217 676 1225 m 344 813 l 367 749 q 346 721 367 746 q 325 684 325 696 q 344 657 325 672 q 363 633 363 642 q 331 408 331 478 q 364 360 331 393 q 367 349 367 357 q 353 312 367 342 q 340 276 340 282 q 374 200 340 239 q 436 161 407 161 q 467 176 454 161 q 492 204 481 190 l 504 218 q 506 222 506 219 q 490 251 506 225 q 474 286 474 276 q 488 340 474 296 q 503 403 503 383 l 481 425 q 479 433 479 426 l 479 436 q 469 469 479 460 l 468 474 q 501 524 471 488 q 508 581 508 531 l 501 715 q 480 744 501 728 q 458 765 458 761 q 478 847 458 801 l 485 863 q 447 900 485 879 l 435 907 q 378 873 411 907 q 344 813 344 839 m 739 315 q 767 263 739 288 q 746 185 767 232 q 702 107 725 139 q 672 75 679 75 q 598 57 640 75 q 529 21 556 39 l 503 3 q 375 -22 489 -10 l 338 -26 q 217 23 279 -26 q 122 118 154 72 q 89 169 89 164 q 95 193 89 175 q 101 228 101 211 q 58 261 101 261 l 47 260 q 19 408 36 260 l 14 457 l 31 646 q 47 674 31 650 q 64 703 64 697 l 61 822 q 65 882 61 876 q 181 979 83 907 q 326 1051 278 1051 q 347 1075 336 1075 q 509 1079 417 1079 q 617 1064 601 1079 q 649 1035 618 1063 q 700 986 679 1007 q 741 935 721 965 q 761 883 761 904 l 733 849 q 777 715 749 817 q 806 568 806 613 q 785 351 800 351 q 739 315 739 333 z "},"":{"ha":656,"x_min":0,"x_max":649,"o":"m 339 650 q 424 763 424 746 q 436 792 424 779 q 470 824 449 804 q 504 864 492 843 q 535 881 518 881 q 552 872 540 881 q 569 856 564 863 q 599 828 574 850 q 639 789 625 807 q 593 721 606 721 q 588 722 590 722 q 558 701 572 722 q 543 667 543 681 q 535 644 543 654 q 519 626 528 633 q 501 610 511 618 q 490 601 492 603 q 431 526 431 533 q 469 480 431 518 q 508 431 508 442 q 554 363 508 419 q 613 306 600 306 q 635 280 621 306 q 649 246 649 254 l 649 244 q 594 189 624 213 q 547 157 564 165 l 529 149 q 491 188 521 149 q 454 228 461 228 q 390 308 435 226 q 333 390 346 390 q 290 345 321 390 q 251 300 258 300 q 200 238 243 300 q 154 164 157 176 q 137 135 151 151 q 115 118 122 118 q 47 168 94 118 q 0 233 0 218 q 24 282 0 247 q 64 318 47 317 q 100 360 68 318 q 225 506 194 488 q 228 513 228 507 l 226 524 q 159 617 197 568 q 114 665 121 665 q 97 674 107 665 q 76 697 88 682 q 53 724 64 711 q 31 753 43 738 q 15 775 19 769 q 53 842 19 842 q 95 867 60 842 q 138 892 131 892 q 157 878 144 892 q 169 853 169 864 l 169 851 q 186 815 169 835 q 214 794 203 794 q 233 785 225 794 q 248 767 242 776 q 260 745 254 757 q 268 732 267 733 l 324 651 q 334 649 331 649 q 339 650 338 649 z "},"":{"ha":819,"x_min":14,"x_max":832,"o":"m 394 350 l 397 342 q 344 251 397 335 q 383 189 354 217 q 428 161 413 161 q 456 169 444 161 q 492 204 469 178 l 504 218 q 506 222 506 219 q 490 251 506 225 q 474 286 474 276 q 488 340 474 296 q 503 403 503 383 l 481 425 q 479 433 479 426 l 479 436 q 469 469 479 460 q 394 350 394 376 m 344 813 l 367 749 q 346 721 367 746 q 325 684 325 696 q 344 657 325 672 q 363 633 363 642 q 333 456 342 532 q 364 499 363 499 l 365 499 q 392 547 374 511 q 424 603 411 582 q 443 624 438 624 q 456 636 449 624 q 473 668 464 649 q 488 696 482 688 l 500 721 q 478 745 497 731 q 458 765 458 760 q 478 847 458 801 l 485 863 q 447 900 485 879 l 435 907 q 378 873 411 907 q 344 813 344 839 m 739 315 q 767 263 739 288 q 746 185 767 232 q 702 107 725 139 q 672 75 679 75 q 598 57 640 75 q 529 21 556 39 l 503 3 q 375 -22 489 -10 l 338 -26 q 208 28 275 -26 q 186 -7 186 -6 q 164 -44 186 -22 q 118 -51 157 -51 q 33 -31 33 -51 q 67 28 33 -18 l 78 43 q 111 102 107 96 q 118 124 115 108 q 89 171 89 167 q 95 193 89 175 q 101 228 101 211 q 58 261 101 261 l 47 260 q 19 408 36 260 l 14 457 l 31 646 q 47 674 31 650 q 64 703 64 697 l 61 822 q 65 882 61 876 q 181 979 83 907 q 326 1051 278 1051 q 347 1075 336 1075 q 509 1079 417 1079 q 617 1064 601 1079 q 626 1054 619 1060 q 661 1024 647 1038 q 696 1071 669 1047 q 768 1079 704 1079 q 832 1064 832 1079 q 807 1018 817 1021 q 786 1008 790 1014 l 786 999 q 788 979 786 985 l 788 978 q 769 953 788 971 l 753 933 l 747 925 q 761 883 761 901 l 733 849 q 777 715 749 817 q 806 568 806 613 q 785 351 800 351 q 739 315 739 333 z "},"":{"ha":794,"x_min":21,"x_max":767,"o":"m 335 1236 l 315 1235 l 314 1235 q 287 1264 314 1236 q 260 1294 260 1292 q 302 1322 260 1301 q 367 1343 344 1343 q 446 1325 443 1328 q 533 1172 507 1199 l 533 1171 q 499 1144 533 1156 q 440 1133 465 1133 q 395 1165 433 1133 q 351 1196 357 1196 q 350 1203 350 1196 l 350 1217 q 347 1233 350 1229 q 335 1236 343 1236 m 365 374 l 350 246 q 374 187 354 213 q 422 161 394 161 q 454 185 436 161 q 472 239 472 210 q 469 281 469 261 q 474 304 469 300 q 496 342 496 324 q 467 386 467 376 l 490 442 l 490 518 q 488 604 490 597 q 503 644 503 614 q 486 667 503 656 q 469 692 469 679 q 488 774 474 738 q 490 849 490 779 q 485 925 490 919 q 469 1004 469 940 q 471 1011 469 1007 q 542 1048 478 1018 q 610 1078 607 1078 q 629 1069 614 1078 q 653 1061 644 1061 q 667 1067 661 1061 q 680 1072 672 1072 q 690 1071 688 1072 q 767 1028 767 1039 q 752 957 767 1021 q 738 847 738 893 q 751 828 738 840 q 765 808 765 815 q 754 781 765 800 q 743 760 743 761 q 740 586 740 678 q 747 476 740 494 l 747 475 q 728 450 747 469 q 710 422 710 431 q 716 406 710 414 q 729 397 722 399 q 747 388 747 392 q 743 328 743 371 q 744 211 743 267 l 746 192 q 693 97 746 169 l 675 74 q 569 44 589 54 q 490 -21 539 32 l 475 -37 q 279 -24 358 -37 q 179 1 200 -11 l 158 14 l 83 106 l 61 113 q 42 135 56 114 q 29 160 29 156 q 33 169 29 165 q 57 240 47 183 q 67 326 67 297 q 61 360 67 354 q 56 425 56 365 l 58 503 q 39 560 58 540 q 47 593 39 583 q 62 613 54 603 q 74 628 69 624 l 81 661 q 60 684 81 663 q 39 710 39 706 q 44 729 39 714 q 64 799 64 775 q 42 916 64 822 q 21 1011 21 1010 q 102 1057 21 1018 q 201 1096 183 1096 q 251 1082 232 1082 l 282 1088 q 332 1076 304 1088 q 374 1050 360 1064 q 340 786 340 817 q 357 767 357 774 l 356 736 q 349 596 349 644 q 354 523 349 547 q 360 474 360 499 q 325 421 325 435 q 331 399 325 407 q 343 388 336 390 q 364 379 353 383 q 365 374 365 376 z "},"":{"ha":794,"x_min":21,"x_max":767,"o":"m 475 1217 l 478 1196 q 465 1188 478 1192 q 421 1156 453 1183 q 383 1122 389 1129 q 369 1115 376 1115 q 335 1138 363 1115 q 308 1172 308 1160 q 343 1226 308 1183 q 378 1274 378 1269 q 379 1292 379 1290 q 415 1335 413 1333 q 445 1341 417 1338 q 490 1344 474 1344 q 541 1321 507 1344 q 575 1285 575 1297 q 564 1272 575 1281 q 508 1229 521 1243 q 491 1228 507 1228 q 475 1217 475 1228 m 365 374 l 350 246 q 374 187 354 213 q 422 161 394 161 q 454 185 436 161 q 472 239 472 210 q 469 281 469 261 q 474 304 469 300 q 496 342 496 324 q 467 386 467 376 l 490 442 l 490 518 q 488 604 490 597 q 503 644 503 614 q 486 667 503 656 q 469 692 469 679 q 488 774 474 738 q 490 849 490 779 q 485 925 490 919 q 469 1004 469 940 q 471 1011 469 1007 q 542 1048 478 1018 q 610 1078 607 1078 q 629 1069 614 1078 q 653 1061 644 1061 q 667 1067 661 1061 q 680 1072 672 1072 q 690 1071 688 1072 q 767 1028 767 1039 q 752 957 767 1021 q 738 847 738 893 q 751 828 738 840 q 765 808 765 815 q 754 781 765 800 q 743 760 743 761 q 740 586 740 678 q 747 476 740 494 l 747 475 q 728 450 747 469 q 710 422 710 431 q 716 406 710 414 q 729 397 722 399 q 747 388 747 392 q 743 328 743 371 q 744 211 743 267 l 746 192 q 693 97 746 169 l 675 74 q 569 44 589 54 q 490 -21 539 32 l 475 -37 q 279 -24 358 -37 q 179 1 200 -11 l 158 14 l 83 106 l 61 113 q 42 135 56 114 q 29 160 29 156 q 33 169 29 165 q 57 240 47 183 q 67 326 67 297 q 61 360 67 354 q 56 425 56 365 l 58 503 q 39 560 58 540 q 47 593 39 583 q 62 613 54 603 q 74 628 69 624 l 81 661 q 60 684 81 663 q 39 710 39 706 q 44 729 39 714 q 64 799 64 775 q 42 916 64 822 q 21 1011 21 1010 q 102 1057 21 1018 q 201 1096 183 1096 q 251 1082 232 1082 l 282 1088 q 332 1076 304 1088 q 374 1050 360 1064 q 340 786 340 817 q 357 767 357 774 l 356 736 q 349 596 349 644 q 354 523 349 547 q 360 474 360 499 q 325 421 325 435 q 331 399 325 407 q 343 388 336 390 q 364 379 353 383 q 365 374 365 376 z "},"":{"ha":794,"x_min":21,"x_max":767,"o":"m 274 1281 l 268 1308 q 303 1349 293 1349 l 332 1349 q 376 1344 374 1349 q 405 1324 401 1324 q 439 1344 408 1324 q 472 1351 442 1351 q 508 1347 503 1351 q 535 1308 513 1343 q 557 1267 557 1272 q 553 1238 553 1251 q 582 1224 553 1224 q 619 1172 619 1176 q 617 1164 619 1167 q 610 1158 614 1161 q 598 1148 606 1156 q 574 1133 590 1140 q 542 1122 558 1125 q 510 1128 510 1122 l 457 1190 q 433 1201 433 1194 q 421 1240 433 1219 q 400 1260 408 1260 q 361 1219 393 1260 l 351 1207 q 343 1179 351 1185 q 295 1151 321 1179 q 268 1124 269 1124 q 224 1134 246 1124 q 192 1154 203 1144 q 182 1167 182 1164 l 208 1210 q 236 1260 236 1253 q 274 1281 274 1268 m 365 374 l 350 246 q 374 187 354 213 q 422 161 394 161 q 454 185 436 161 q 472 239 472 210 q 469 281 469 261 q 474 304 469 300 q 496 342 496 324 q 467 386 467 376 l 490 442 l 490 518 q 488 604 490 597 q 503 644 503 614 q 486 667 503 656 q 469 692 469 679 q 488 774 474 738 q 490 849 490 779 q 485 925 490 919 q 469 1004 469 940 q 471 1011 469 1007 q 542 1048 478 1018 q 610 1078 607 1078 q 629 1069 614 1078 q 653 1061 644 1061 q 667 1067 661 1061 q 680 1072 672 1072 q 690 1071 688 1072 q 767 1028 767 1039 q 752 957 767 1021 q 738 847 738 893 q 751 828 738 840 q 765 808 765 815 q 754 781 765 800 q 743 760 743 761 q 740 586 740 678 q 747 476 740 494 l 747 475 q 728 450 747 469 q 710 422 710 431 q 716 406 710 414 q 729 397 722 399 q 747 388 747 392 q 743 328 743 371 q 744 211 743 267 l 746 192 q 693 97 746 169 l 675 74 q 569 44 589 54 q 490 -21 539 32 l 475 -37 q 279 -24 358 -37 q 179 1 200 -11 l 158 14 l 83 106 l 61 113 q 42 135 56 114 q 29 160 29 156 q 33 169 29 165 q 57 240 47 183 q 67 326 67 297 q 61 360 67 354 q 56 425 56 365 l 58 503 q 39 560 58 540 q 47 593 39 583 q 62 613 54 603 q 74 628 69 624 l 81 661 q 60 684 81 663 q 39 710 39 706 q 44 729 39 714 q 64 799 64 775 q 42 916 64 822 q 21 1011 21 1010 q 102 1057 21 1018 q 201 1096 183 1096 q 251 1082 232 1082 l 282 1088 q 332 1076 304 1088 q 374 1050 360 1064 q 340 786 340 817 q 357 767 357 774 l 356 736 q 349 596 349 644 q 354 523 349 547 q 360 474 360 499 q 325 421 325 435 q 331 399 325 407 q 343 388 336 390 q 364 379 353 383 q 365 374 365 376 z "},"":{"ha":794,"x_min":21,"x_max":767,"o":"m 356 1238 q 349 1188 356 1210 q 328 1156 342 1167 q 288 1135 315 1144 q 234 1126 260 1126 q 197 1138 208 1126 q 196 1153 196 1139 q 181 1174 196 1174 l 172 1174 q 163 1177 167 1174 q 158 1215 158 1181 q 160 1252 158 1249 q 177 1271 163 1256 q 207 1294 192 1286 q 281 1313 267 1313 q 315 1306 294 1313 q 335 1294 335 1300 q 329 1268 329 1281 q 356 1238 356 1246 m 664 1219 q 650 1165 663 1178 q 631 1153 638 1153 q 603 1134 624 1153 q 579 1115 583 1115 l 519 1124 q 460 1165 500 1131 q 456 1190 456 1169 q 460 1236 456 1211 q 471 1261 465 1261 q 546 1307 489 1261 q 571 1313 560 1313 q 642 1275 642 1296 q 633 1255 633 1263 q 649 1238 633 1247 q 664 1219 664 1228 m 365 374 l 350 246 q 374 187 354 213 q 422 161 394 161 q 454 185 436 161 q 472 239 472 210 q 469 281 469 261 q 474 304 469 300 q 496 342 496 324 q 467 386 467 376 l 490 442 l 490 518 q 488 604 490 597 q 503 644 503 614 q 486 667 503 656 q 469 692 469 679 q 488 774 474 738 q 490 849 490 779 q 485 925 490 919 q 469 1004 469 940 q 471 1011 469 1007 q 542 1048 478 1018 q 610 1078 607 1078 q 629 1069 614 1078 q 653 1061 644 1061 q 667 1067 661 1061 q 680 1072 672 1072 q 690 1071 688 1072 q 767 1028 767 1039 q 752 957 767 1021 q 738 847 738 893 q 751 828 738 840 q 765 808 765 815 q 754 781 765 800 q 743 760 743 761 q 740 586 740 678 q 747 476 740 494 l 747 475 q 728 450 747 469 q 710 422 710 431 q 716 406 710 414 q 729 397 722 399 q 747 388 747 392 q 743 328 743 371 q 744 211 743 267 l 746 192 q 693 97 746 169 l 675 74 q 569 44 589 54 q 490 -21 539 32 l 475 -37 q 279 -24 358 -37 q 179 1 200 -11 l 158 14 l 83 106 l 61 113 q 42 135 56 114 q 29 160 29 156 q 33 169 29 165 q 57 240 47 183 q 67 326 67 297 q 61 360 67 354 q 56 425 56 365 l 58 503 q 39 560 58 540 q 47 593 39 583 q 62 613 54 603 q 74 628 69 624 l 81 661 q 60 684 81 663 q 39 710 39 706 q 44 729 39 714 q 64 799 64 775 q 42 916 64 822 q 21 1011 21 1010 q 102 1057 21 1018 q 201 1096 183 1096 q 251 1082 232 1082 l 282 1088 q 332 1076 304 1088 q 374 1050 360 1064 q 340 786 340 817 q 357 767 357 774 l 356 736 q 349 596 349 644 q 354 523 349 547 q 360 474 360 499 q 325 421 325 435 q 331 399 325 407 q 343 388 336 390 q 364 379 353 383 q 365 374 365 376 z "},"":{"ha":813,"x_min":3,"x_max":810,"o":"m 454 1206 l 457 1185 q 444 1176 457 1181 q 400 1145 432 1172 q 362 1111 368 1118 q 349 1104 356 1104 q 315 1126 342 1104 q 288 1160 288 1149 q 322 1216 288 1172 q 357 1263 357 1260 q 358 1281 358 1279 q 394 1324 392 1322 q 424 1330 396 1326 q 469 1333 453 1333 q 520 1310 486 1333 q 554 1274 554 1286 q 543 1261 554 1269 q 488 1218 500 1232 q 470 1217 486 1217 q 454 1206 454 1217 m 90 1021 l 107 1018 q 175 1038 133 1018 q 336 1015 335 1024 q 354 868 354 890 q 353 844 354 846 q 324 814 326 821 l 324 811 q 343 786 324 788 q 361 782 361 783 q 399 650 379 650 q 428 665 425 656 q 479 828 475 792 q 501 842 496 835 q 520 890 506 850 q 535 947 535 929 l 535 960 q 540 1011 535 1008 q 690 1047 657 1047 q 810 999 810 1018 q 708 840 724 876 l 708 836 q 688 768 708 789 q 636 731 636 760 q 649 706 649 714 q 524 396 550 508 q 469 353 479 385 q 504 324 479 324 l 507 324 q 496 114 496 150 l 513 14 l 513 11 q 489 0 513 6 q 417 -21 456 0 q 360 -51 400 -40 q 267 -37 310 -51 q 205 -9 224 -24 q 186 14 186 6 l 186 15 q 215 215 215 57 l 215 251 q 199 279 215 261 q 182 300 182 297 q 208 340 182 314 q 172 489 208 399 l 161 518 l 160 522 l 164 549 q 163 560 164 556 l 75 774 l 75 776 q 91 803 75 782 q 107 832 107 824 q 58 854 107 846 q 42 899 49 854 l 40 914 q 21 945 39 918 q 3 981 3 972 q 19 993 3 983 q 90 1021 64 1021 z "}}}
